<?xml version="1.0" encoding="UTF-8"?>
<!DOCTYPE svg PUBLIC "-//W3C//DTD SVG 1.1//EN" "http://www.w3.org/Graphics/SVG/1.1/DTD/svg11.dtd">
<svg width="171mm" height="199mm" viewBox="0 0 17100 19900" version="1.1" xmlns="http://www.w3.org/2000/svg" xmlns:xlink="http://www.w3.org/1999/xlink" stroke-width="28.222" stroke-linejoin="round" xml:space="preserve">
 <path fill="rgb(255,255,255)" stroke="none" d="M 8546,19876 L -13,19876 -13,-13 17105,-13 17105,19876 8546,19876 Z "/>
 <path fill="none" stroke="rgb(179,179,179)" stroke-linejoin="round" d="M 9407,17771 L 2245,17771 2245,2053 16570,2053 16570,17771 9407,17771 Z "/>
 <path fill="none" stroke="rgb(179,179,179)" stroke-linejoin="round" d="M 16570,17770 L 2245,17770 "/>
 <path fill="none" stroke="rgb(179,179,179)" stroke-linejoin="round" d="M 16570,15150 L 2245,15150 "/>
 <path fill="none" stroke="rgb(179,179,179)" stroke-linejoin="round" d="M 16570,12530 L 2245,12530 "/>
 <path fill="none" stroke="rgb(179,179,179)" stroke-linejoin="round" d="M 16570,9911 L 2245,9911 "/>
 <path fill="none" stroke="rgb(179,179,179)" stroke-linejoin="round" d="M 16570,7291 L 2245,7291 "/>
 <path fill="none" stroke="rgb(179,179,179)" stroke-linejoin="round" d="M 16570,4671 L 2245,4671 "/>
 <path fill="none" stroke="rgb(179,179,179)" stroke-linejoin="round" d="M 16570,2052 L 2245,2052 "/>
 <path fill="none" stroke="rgb(179,179,179)" stroke-linejoin="round" d="M 2245,17920 L 2245,17770 "/>
 <path fill="none" stroke="rgb(179,179,179)" stroke-linejoin="round" d="M 2245,17920 L 2245,17770 "/>
 <path fill="none" stroke="rgb(179,179,179)" stroke-linejoin="round" d="M 3677,17920 L 3677,17770 "/>
 <path fill="none" stroke="rgb(179,179,179)" stroke-linejoin="round" d="M 3677,17920 L 3677,17770 "/>
 <path fill="none" stroke="rgb(179,179,179)" stroke-linejoin="round" d="M 5110,17920 L 5110,17770 "/>
 <path fill="none" stroke="rgb(179,179,179)" stroke-linejoin="round" d="M 5110,17920 L 5110,17770 "/>
 <path fill="none" stroke="rgb(179,179,179)" stroke-linejoin="round" d="M 6542,17920 L 6542,17770 "/>
 <path fill="none" stroke="rgb(179,179,179)" stroke-linejoin="round" d="M 6542,17920 L 6542,17770 "/>
 <path fill="none" stroke="rgb(179,179,179)" stroke-linejoin="round" d="M 7975,17920 L 7975,17770 "/>
 <path fill="none" stroke="rgb(179,179,179)" stroke-linejoin="round" d="M 7975,17920 L 7975,17770 "/>
 <path fill="none" stroke="rgb(179,179,179)" stroke-linejoin="round" d="M 9407,17920 L 9407,17770 "/>
 <path fill="none" stroke="rgb(179,179,179)" stroke-linejoin="round" d="M 9407,17920 L 9407,17770 "/>
 <path fill="none" stroke="rgb(179,179,179)" stroke-linejoin="round" d="M 10839,17920 L 10839,17770 "/>
 <path fill="none" stroke="rgb(179,179,179)" stroke-linejoin="round" d="M 10839,17920 L 10839,17770 "/>
 <path fill="none" stroke="rgb(179,179,179)" stroke-linejoin="round" d="M 12272,17920 L 12272,17770 "/>
 <path fill="none" stroke="rgb(179,179,179)" stroke-linejoin="round" d="M 12272,17920 L 12272,17770 "/>
 <path fill="none" stroke="rgb(179,179,179)" stroke-linejoin="round" d="M 13704,17920 L 13704,17770 "/>
 <path fill="none" stroke="rgb(179,179,179)" stroke-linejoin="round" d="M 13704,17920 L 13704,17770 "/>
 <path fill="none" stroke="rgb(179,179,179)" stroke-linejoin="round" d="M 15137,17920 L 15137,17770 "/>
 <path fill="none" stroke="rgb(179,179,179)" stroke-linejoin="round" d="M 15137,17920 L 15137,17770 "/>
 <path fill="none" stroke="rgb(179,179,179)" stroke-linejoin="round" d="M 16570,17920 L 16570,17770 "/>
 <path fill="none" stroke="rgb(179,179,179)" stroke-linejoin="round" d="M 16570,17920 L 16570,17770 "/>
 <path fill="none" stroke="rgb(179,179,179)" stroke-linejoin="round" d="M 2245,17770 L 16570,17770 "/>
 <path fill="none" stroke="rgb(179,179,179)" stroke-linejoin="round" d="M 2095,17770 L 2245,17770 "/>
 <path fill="none" stroke="rgb(179,179,179)" stroke-linejoin="round" d="M 2095,17770 L 2245,17770 "/>
 <path fill="none" stroke="rgb(179,179,179)" stroke-linejoin="round" d="M 2095,15150 L 2245,15150 "/>
 <path fill="none" stroke="rgb(179,179,179)" stroke-linejoin="round" d="M 2095,15150 L 2245,15150 "/>
 <path fill="none" stroke="rgb(179,179,179)" stroke-linejoin="round" d="M 2095,12530 L 2245,12530 "/>
 <path fill="none" stroke="rgb(179,179,179)" stroke-linejoin="round" d="M 2095,12530 L 2245,12530 "/>
 <path fill="none" stroke="rgb(179,179,179)" stroke-linejoin="round" d="M 2095,9911 L 2245,9911 "/>
 <path fill="none" stroke="rgb(179,179,179)" stroke-linejoin="round" d="M 2095,9911 L 2245,9911 "/>
 <path fill="none" stroke="rgb(179,179,179)" stroke-linejoin="round" d="M 2095,7291 L 2245,7291 "/>
 <path fill="none" stroke="rgb(179,179,179)" stroke-linejoin="round" d="M 2095,7291 L 2245,7291 "/>
 <path fill="none" stroke="rgb(179,179,179)" stroke-linejoin="round" d="M 2095,4671 L 2245,4671 "/>
 <path fill="none" stroke="rgb(179,179,179)" stroke-linejoin="round" d="M 2095,4671 L 2245,4671 "/>
 <path fill="none" stroke="rgb(179,179,179)" stroke-linejoin="round" d="M 2095,2052 L 2245,2052 "/>
 <path fill="none" stroke="rgb(179,179,179)" stroke-linejoin="round" d="M 2095,2052 L 2245,2052 "/>
 <path fill="none" stroke="rgb(179,179,179)" stroke-linejoin="round" d="M 2245,17770 L 2245,2052 "/>
 <path fill="none" stroke="rgb(0,69,134)" stroke-width="80" stroke-linejoin="round" d="M 2245,4671 L 2316,4687 2388,4702 2459,4717 2531,4733 2603,4749 2674,4765 2746,4782 2818,4799 2889,4817 2961,4835 3032,4854 3104,4873 3176,4894 3247,4915 3319,4937 3391,4960 3462,4985 3534,5010 3605,5036 3677,5064 3749,5093 3820,5124 3892,5156 3964,5189 4035,5224 4107,5261 4179,5300 4250,5340 4322,5382 4393,5426 4465,5471 4537,5519 4608,5569 4680,5621 4752,5675 4823,5732 4895,5790 4966,5852 5038,5915 5110,5981 5181,6050 5253,6121 5325,6195 5396,6272 5468,6352 5539,6434 5611,6520 5683,6609 5754,6701 5826,6796 5898,6895 5969,6997 6041,7103 6113,7212 6184,7324 6256,7441 6327,7561 6399,7686 6471,7814 6542,7946 6614,8082 6686,8223 6757,8367 6829,8515 6900,8666 6972,8820 7044,8977 7115,9138 7187,9301 7259,9466 7330,9634 7402,9804 7473,9975 7545,10149 7617,10324 7688,10501 7760,10679 7832,10859 7903,11039 7975,11220 8047,11401 8118,11583 8190,11765 8261,11946 8333,12126 8405,12305 8476,12483 8547,12658 8619,12832 8690,13003 8762,13171 8833,13336 8905,13497 8977,13654 9048,13807 9120,13955 9192,14098 9263,14236 9335,14368 9407,14495 9478,14615 9550,14728 9621,14837 9693,14939 9765,15036 9836,15129 9908,15217 9980,15300 10051,15379 10123,15455 10194,15527 10266,15596 10338,15662 10409,15725 10481,15786 10553,15845 10624,15902 10696,15958 10767,16013 10839,16067 10911,16120 10982,16172 11054,16224 11126,16275 11197,16326 11269,16376 11341,16425 11412,16473 11484,16521 11555,16567 11627,16613 11699,16658 11770,16702 11842,16745 11914,16788 11985,16829 12057,16869 12128,16908 12200,16946 12272,16984 12343,17020 12415,17054 12487,17088 12558,17121 12630,17153 12701,17183 12773,17213 12845,17241 12916,17269 12988,17295 13060,17321 13131,17345 13203,17369 13275,17392 13346,17413 13418,17434 13489,17454 13561,17472 13633,17490 13704,17508 13776,17524 13848,17539 13919,17554 13991,17567 14062,17580 14134,17592 14206,17604 14277,17615 14349,17625 14421,17635 14492,17644 14564,17652 14635,17660 14707,17668 14779,17675 14850,17681 14922,17687 14994,17693 15065,17699 15137,17704 15209,17709 15280,17714 15352,17718 15423,17722 15495,17726 15567,17730 15638,17734 15710,17737 15782,17740 15853,17744 15925,17746 15996,17749 16068,17752 16140,17755 16211,17757 16283,17760 16355,17762 16426,17765 16498,17767 16570,17770 "/>
 <text class="SVGTextShape"><tspan class="TextParagraph"><tspan class="TextPosition" x="2150" y="18338"><tspan font-family="Liberation Sans, sans-serif" font-size="353px" font-weight="400" lengthAdjust="spacingAndGlyphs" textLength="191" fill="rgb(0,0,0)" stroke="none" style="white-space: pre">0</tspan></tspan></tspan></text>
 <text class="SVGTextShape"><tspan class="TextParagraph"><tspan class="TextPosition" x="3582" y="18338"><tspan font-family="Liberation Sans, sans-serif" font-size="353px" font-weight="400" lengthAdjust="spacingAndGlyphs" textLength="191" fill="rgb(0,0,0)" stroke="none" style="white-space: pre">1</tspan></tspan></tspan></text>
 <text class="SVGTextShape"><tspan class="TextParagraph"><tspan class="TextPosition" x="5015" y="18338"><tspan font-family="Liberation Sans, sans-serif" font-size="353px" font-weight="400" lengthAdjust="spacingAndGlyphs" textLength="191" fill="rgb(0,0,0)" stroke="none" style="white-space: pre">2</tspan></tspan></tspan></text>
 <text class="SVGTextShape"><tspan class="TextParagraph"><tspan class="TextPosition" x="6447" y="18338"><tspan font-family="Liberation Sans, sans-serif" font-size="353px" font-weight="400" lengthAdjust="spacingAndGlyphs" textLength="191" fill="rgb(0,0,0)" stroke="none" style="white-space: pre">3</tspan></tspan></tspan></text>
 <text class="SVGTextShape"><tspan class="TextParagraph"><tspan class="TextPosition" x="7880" y="18338"><tspan font-family="Liberation Sans, sans-serif" font-size="353px" font-weight="400" lengthAdjust="spacingAndGlyphs" textLength="191" fill="rgb(0,0,0)" stroke="none" style="white-space: pre">4</tspan></tspan></tspan></text>
 <text class="SVGTextShape"><tspan class="TextParagraph"><tspan class="TextPosition" x="9312" y="18338"><tspan font-family="Liberation Sans, sans-serif" font-size="353px" font-weight="400" lengthAdjust="spacingAndGlyphs" textLength="191" fill="rgb(0,0,0)" stroke="none" style="white-space: pre">5</tspan></tspan></tspan></text>
 <text class="SVGTextShape"><tspan class="TextParagraph"><tspan class="TextPosition" x="10744" y="18338"><tspan font-family="Liberation Sans, sans-serif" font-size="353px" font-weight="400" lengthAdjust="spacingAndGlyphs" textLength="191" fill="rgb(0,0,0)" stroke="none" style="white-space: pre">6</tspan></tspan></tspan></text>
 <text class="SVGTextShape"><tspan class="TextParagraph"><tspan class="TextPosition" x="12177" y="18338"><tspan font-family="Liberation Sans, sans-serif" font-size="353px" font-weight="400" lengthAdjust="spacingAndGlyphs" textLength="191" fill="rgb(0,0,0)" stroke="none" style="white-space: pre">7</tspan></tspan></tspan></text>
 <text class="SVGTextShape"><tspan class="TextParagraph"><tspan class="TextPosition" x="13609" y="18338"><tspan font-family="Liberation Sans, sans-serif" font-size="353px" font-weight="400" lengthAdjust="spacingAndGlyphs" textLength="191" fill="rgb(0,0,0)" stroke="none" style="white-space: pre">8</tspan></tspan></tspan></text>
 <text class="SVGTextShape"><tspan class="TextParagraph"><tspan class="TextPosition" x="15042" y="18338"><tspan font-family="Liberation Sans, sans-serif" font-size="353px" font-weight="400" lengthAdjust="spacingAndGlyphs" textLength="191" fill="rgb(0,0,0)" stroke="none" style="white-space: pre">9</tspan></tspan></tspan></text>
 <text class="SVGTextShape"><tspan class="TextParagraph"><tspan class="TextPosition" x="16379" y="18338"><tspan font-family="Liberation Sans, sans-serif" font-size="353px" font-weight="400" lengthAdjust="spacingAndGlyphs" textLength="382" fill="rgb(0,0,0)" stroke="none" style="white-space: pre">10</tspan></tspan></tspan></text>
 <text class="SVGTextShape"><tspan class="TextParagraph"><tspan class="TextPosition" x="1804" y="17891"><tspan font-family="Liberation Sans, sans-serif" font-size="353px" font-weight="400" lengthAdjust="spacingAndGlyphs" textLength="191" fill="rgb(0,0,0)" stroke="none" style="white-space: pre">0</tspan></tspan></tspan></text>
 <text class="SVGTextShape"><tspan class="TextParagraph"><tspan class="TextPosition" x="1612" y="15271"><tspan font-family="Liberation Sans, sans-serif" font-size="353px" font-weight="400" lengthAdjust="spacingAndGlyphs" textLength="382" fill="rgb(0,0,0)" stroke="none" style="white-space: pre">20</tspan></tspan></tspan></text>
 <text class="SVGTextShape"><tspan class="TextParagraph"><tspan class="TextPosition" x="1612" y="12651"><tspan font-family="Liberation Sans, sans-serif" font-size="353px" font-weight="400" lengthAdjust="spacingAndGlyphs" textLength="382" fill="rgb(0,0,0)" stroke="none" style="white-space: pre">40</tspan></tspan></tspan></text>
 <text class="SVGTextShape"><tspan class="TextParagraph"><tspan class="TextPosition" x="1612" y="10031"><tspan font-family="Liberation Sans, sans-serif" font-size="353px" font-weight="400" lengthAdjust="spacingAndGlyphs" textLength="382" fill="rgb(0,0,0)" stroke="none" style="white-space: pre">60</tspan></tspan></tspan></text>
 <text class="SVGTextShape"><tspan class="TextParagraph"><tspan class="TextPosition" x="1612" y="7412"><tspan font-family="Liberation Sans, sans-serif" font-size="353px" font-weight="400" lengthAdjust="spacingAndGlyphs" textLength="382" fill="rgb(0,0,0)" stroke="none" style="white-space: pre">80</tspan></tspan></tspan></text>
 <text class="SVGTextShape"><tspan class="TextParagraph"><tspan class="TextPosition" x="1421" y="4792"><tspan font-family="Liberation Sans, sans-serif" font-size="353px" font-weight="400" lengthAdjust="spacingAndGlyphs" textLength="573" fill="rgb(0,0,0)" stroke="none" style="white-space: pre">100</tspan></tspan></tspan></text>
 <text class="SVGTextShape"><tspan class="TextParagraph"><tspan class="TextPosition" x="1421" y="2173"><tspan font-family="Liberation Sans, sans-serif" font-size="353px" font-weight="400" lengthAdjust="spacingAndGlyphs" textLength="573" fill="rgb(0,0,0)" stroke="none" style="white-space: pre">120</tspan></tspan></tspan></text>
 <text class="SVGTextShape"><tspan class="TextParagraph"><tspan class="TextPosition" x="6298" y="1188"><tspan font-family="Noto Sans CJK JP, sans-serif" font-size="459px" font-weight="400" lengthAdjust="spacingAndGlyphs" textLength="4497" fill="rgb(0,0,0)" stroke="none" style="white-space: pre">ドランカーの生存曲線</tspan></tspan></tspan></text>
 <text class="SVGTextShape"><tspan class="TextParagraph"><tspan class="TextPosition" x="8066" y="19281"><tspan font-family="Noto Sans CJK JP, sans-serif" font-size="318px" font-weight="400" lengthAdjust="spacingAndGlyphs" textLength="1270" fill="rgb(0,0,0)" stroke="none" style="white-space: pre">経過時間</tspan><tspan font-family="Liberation Sans, sans-serif" font-size="318px" font-weight="400" lengthAdjust="spacingAndGlyphs" textLength="105" fill="rgb(0,0,0)" stroke="none" style="white-space: pre">(</tspan><tspan font-family="Noto Sans CJK JP, sans-serif" font-size="318px" font-weight="400" lengthAdjust="spacingAndGlyphs" textLength="317" fill="rgb(0,0,0)" stroke="none" style="white-space: pre">分</tspan><tspan font-family="Liberation Sans, sans-serif" font-size="318px" font-weight="400" lengthAdjust="spacingAndGlyphs" textLength="105" fill="rgb(0,0,0)" stroke="none" style="white-space: pre">)</tspan></tspan></tspan></text>
 <text class="SVGTextShape" transform="rotate(-90 904 10904)"><tspan class="TextParagraph"><tspan class="TextPosition" x="904" y="10904"><tspan font-family="Noto Sans CJK JP, sans-serif" font-size="318px" font-weight="400" lengthAdjust="spacingAndGlyphs" textLength="952" fill="rgb(0,0,0)" stroke="none" style="white-space: pre">生存率</tspan></tspan><tspan class="TextPosition" x="904" y="9862"><tspan font-family="Liberation Sans, sans-serif" font-size="318px" font-weight="400" lengthAdjust="spacingAndGlyphs" textLength="493" fill="rgb(0,0,0)" stroke="none" style="white-space: pre">(%)</tspan></tspan></tspan></text>
</svg>