<?xml version="1.0" encoding="UTF-8" standalone="no"?>
<!DOCTYPE svg PUBLIC "-//W3C//DTD SVG 1.1//EN"
 "http://www.w3.org/Graphics/SVG/1.1/DTD/svg11.dtd">
<!-- Generated by graphviz version 12.2.1 (20241206.2353)
 -->
<!-- Title: LAYOUT Pages: 1 -->
<svg width="752pt" height="1069pt"
 viewBox="0.00 0.00 752.06 1069.09" xmlns="http://www.w3.org/2000/svg" xmlns:xlink="http://www.w3.org/1999/xlink">
<g id="graph0" class="graph" transform="scale(1 1) rotate(0) translate(4 1065.09)">
<title>LAYOUT</title>
<polygon fill="white" stroke="none" points="-4,4 -4,-1065.09 748.06,-1065.09 748.06,4 -4,4"/>
<!-- n11 -->
<g id="node1" class="node">
<title>n11</title>
<polygon fill="white" stroke="black" points="106.5,-1035.89 20.1,-1035.89 20.1,-999.89 106.5,-999.89 106.5,-1035.89"/>
<text text-anchor="middle" x="63.3" y="-1014.77" font-family="Times,serif" font-size="10.00">box</text>
</g>
<!-- n21 -->
<g id="node6" class="node">
<title>n21</title>
<ellipse fill="white" stroke="black" cx="63.3" cy="-917.94" rx="18" ry="18"/>
</g>
<!-- n11&#45;&gt;n21 -->
<!-- n12 -->
<g id="node2" class="node">
<title>n12</title>
<polygon fill="white" stroke="black" points="275.5,-1035.89 189.1,-1035.89 189.1,-999.89 275.5,-999.89 275.5,-1035.89"/>
<text text-anchor="middle" x="232.3" y="-1014.77" font-family="Times,serif" font-size="10.00">polygon</text>
</g>
<!-- n22 -->
<g id="node7" class="node">
<title>n22</title>
<polygon fill="white" stroke="black" points="236.56,-899.99 239.37,-900.09 242.16,-900.24 244.91,-900.43 247.61,-900.68 250.24,-900.97 252.8,-901.31 255.28,-901.69 257.67,-902.12 259.95,-902.59 262.13,-903.1 264.18,-903.66 266.12,-904.25 267.92,-904.88 269.59,-905.55 271.12,-906.25 272.51,-906.98 273.75,-907.74 274.84,-908.53 275.78,-909.35 276.57,-910.19 277.21,-911.05 277.7,-911.93 278.04,-912.83 278.24,-913.74 278.29,-914.66 278.2,-915.59 277.98,-916.53 277.63,-917.47 277.15,-918.41 276.55,-919.35 275.83,-920.29 275,-921.22 274.08,-922.14 273.05,-923.06 271.93,-923.95 270.73,-924.83 269.45,-925.69 268.09,-926.53 266.67,-927.35 265.19,-928.14 263.65,-928.9 262.07,-929.64 260.44,-930.34 258.77,-931 257.06,-931.63 255.33,-932.23 253.57,-932.78 251.78,-933.29 249.98,-933.77 248.15,-934.19 246.32,-934.58 244.47,-934.91 242.61,-935.21 240.75,-935.45 238.88,-935.65 237,-935.79 235.12,-935.89 233.24,-935.94 231.36,-935.94 229.48,-935.89 227.6,-935.79 225.72,-935.65 223.85,-935.45 221.99,-935.21 220.13,-934.91 218.28,-934.58 216.45,-934.19 214.62,-933.77 212.82,-933.29 211.03,-932.78 209.27,-932.23 207.54,-931.63 205.83,-931 204.16,-930.34 202.53,-929.64 200.95,-928.9 199.41,-928.14 197.93,-927.35 196.51,-926.53 195.15,-925.69 193.87,-924.83 192.67,-923.95 191.55,-923.06 190.53,-922.14 189.6,-921.22 188.77,-920.29 188.05,-919.35 187.45,-918.41 186.97,-917.47 186.62,-916.53 186.4,-915.59 186.31,-914.66 186.36,-913.74 186.56,-912.83 186.9,-911.93 187.39,-911.05 188.03,-910.19 188.82,-909.35 189.76,-908.53 190.85,-907.74 192.09,-906.98 193.48,-906.25 195.01,-905.55 196.68,-904.88 198.48,-904.25 200.42,-903.66 202.47,-903.1 204.65,-902.59 206.94,-902.12 209.32,-901.69 211.8,-901.31 214.36,-900.97 216.99,-900.68 219.69,-900.43 222.44,-900.24 225.23,-900.09 228.04,-899.99 230.88,-899.94 233.72,-899.94 236.56,-899.99"/>
<text text-anchor="middle" x="232.3" y="-914.82" font-family="Times,serif" font-size="10.00">egg</text>
</g>
<!-- n12&#45;&gt;n22 -->
<!-- n13 -->
<g id="node3" class="node">
<title>n13</title>
<ellipse fill="white" stroke="black" cx="410.3" cy="-1017.89" rx="43.2" ry="18"/>
<text text-anchor="middle" x="410.3" y="-1014.77" font-family="Times,serif" font-size="10.00">ellipse</text>
</g>
<!-- n23 -->
<g id="node8" class="node">
<title>n23</title>
<polygon fill="white" stroke="black" points="410.3,-938.69 342.08,-907.57 478.52,-907.57 410.3,-938.69"/>
<text text-anchor="middle" x="410.3" y="-914.82" font-family="Times,serif" font-size="10.00">triangle</text>
</g>
<!-- n13&#45;&gt;n23 -->
<!-- n14 -->
<g id="node4" class="node">
<title>n14</title>
<ellipse fill="white" stroke="black" cx="549.3" cy="-1017.89" rx="43.2" ry="18"/>
<text text-anchor="middle" x="549.3" y="-1014.77" font-family="Times,serif" font-size="10.00">oval</text>
</g>
<!-- n24 -->
<g id="node9" class="node">
<title>n24</title>
<polygon fill="white" stroke="none" points="592.5,-935.94 506.1,-935.94 506.1,-899.94 592.5,-899.94 592.5,-935.94"/>
<text text-anchor="middle" x="549.3" y="-914.82" font-family="Times,serif" font-size="10.00">plaintext</text>
</g>
<!-- n14&#45;&gt;n24 -->
<!-- n15 -->
<g id="node5" class="node">
<title>n15</title>
<ellipse fill="white" stroke="black" cx="679.3" cy="-1017.89" rx="43.2" ry="43.2"/>
<text text-anchor="middle" x="679.3" y="-1014.77" font-family="Times,serif" font-size="10.00">circle</text>
</g>
<!-- n25 -->
<g id="node10" class="node">
<title>n25</title>
<polygon fill="white" stroke="none" points="692.05,-924.32 666.55,-924.32 666.55,-911.57 692.05,-911.57 692.05,-924.32"/>
<text text-anchor="middle" x="679.3" y="-914.82" font-family="Times,serif" font-size="10.00">plain</text>
</g>
<!-- n15&#45;&gt;n25 -->
<!-- n31 -->
<g id="node11" class="node">
<title>n31</title>
<polygon fill="white" stroke="black" points="63.3,-861.19 10.52,-843.19 63.3,-825.19 116.08,-843.19 63.3,-861.19"/>
<text text-anchor="middle" x="63.3" y="-840.07" font-family="Times,serif" font-size="10.00">diamond</text>
</g>
<!-- n21&#45;&gt;n31 -->
<!-- n32 -->
<g id="node12" class="node">
<title>n32</title>
<polygon fill="white" stroke="black" points="266.54,-861.19 198.06,-861.19 173.68,-825.19 290.92,-825.19 266.54,-861.19"/>
<text text-anchor="middle" x="232.3" y="-840.07" font-family="Times,serif" font-size="10.00">trapezium</text>
</g>
<!-- n22&#45;&gt;n32 -->
<!-- n33 -->
<g id="node13" class="node">
<title>n33</title>
<polygon fill="white" stroke="black" points="488.57,-861.19 364.06,-861.19 332.03,-825.19 456.54,-825.19 488.57,-861.19"/>
<text text-anchor="middle" x="410.3" y="-840.07" font-family="Times,serif" font-size="10.00">parallelogram</text>
</g>
<!-- n23&#45;&gt;n33 -->
<!-- n34 -->
<g id="node14" class="node">
<title>n34</title>
<polygon fill="white" stroke="black" points="592.5,-848.75 549.3,-861.19 506.1,-848.75 506.14,-828.63 592.46,-828.63 592.5,-848.75"/>
<text text-anchor="middle" x="549.3" y="-840.07" font-family="Times,serif" font-size="10.00">house</text>
</g>
<!-- n24&#45;&gt;n34 -->
<!-- n35 -->
<g id="node15" class="node">
<title>n35</title>
<polygon fill="white" stroke="black" points="728.27,-848.75 679.3,-861.19 630.33,-848.75 649.03,-828.63 709.57,-828.63 728.27,-848.75"/>
<text text-anchor="middle" x="679.3" y="-840.07" font-family="Times,serif" font-size="10.00">pentagon</text>
</g>
<!-- n25&#45;&gt;n35 -->
<!-- n41 -->
<g id="node16" class="node">
<title>n41</title>
<polygon fill="white" stroke="black" points="106.5,-741.99 84.9,-759.99 41.7,-759.99 20.1,-741.99 41.7,-723.99 84.9,-723.99 106.5,-741.99"/>
<text text-anchor="middle" x="63.3" y="-738.87" font-family="Times,serif" font-size="10.00">hexagon</text>
</g>
<!-- n31&#45;&gt;n41 -->
<!-- n42 -->
<g id="node17" class="node">
<title>n42</title>
<polygon fill="white" stroke="black" points="275.5,-737.99 266.94,-753.21 232.3,-759.99 197.66,-753.21 189.1,-737.99 213.07,-725.77 251.53,-725.77 275.5,-737.99"/>
<text text-anchor="middle" x="232.3" y="-738.87" font-family="Times,serif" font-size="10.00">septagon</text>
</g>
<!-- n32&#45;&gt;n42 -->
<!-- n43 -->
<g id="node18" class="node">
<title>n43</title>
<polygon fill="white" stroke="black" points="453.5,-734.54 453.5,-749.45 428.19,-759.99 392.41,-759.99 367.1,-749.45 367.1,-734.54 392.41,-723.99 428.19,-723.99 453.5,-734.54"/>
<text text-anchor="middle" x="410.3" y="-738.87" font-family="Times,serif" font-size="10.00">octagon</text>
</g>
<!-- n33&#45;&gt;n43 -->
<!-- n44 -->
<g id="node19" class="node">
<title>n44</title>
<ellipse fill="white" stroke="black" cx="549.3" cy="-741.99" rx="43.2" ry="43.2"/>
<ellipse fill="none" stroke="black" cx="549.3" cy="-741.99" rx="47.2" ry="47.2"/>
<text text-anchor="middle" x="549.3" y="-738.87" font-family="Times,serif" font-size="10.00">doublecircle</text>
</g>
<!-- n34&#45;&gt;n44 -->
<!-- n45 -->
<g id="node20" class="node">
<title>n45</title>
<polygon fill="white" stroke="black" points="740.06,-734.54 740.06,-749.45 704.47,-759.99 654.13,-759.99 618.54,-749.45 618.54,-734.54 654.13,-723.99 704.47,-723.99 740.06,-734.54"/>
<polygon fill="none" stroke="black" points="744.06,-731.55 744.06,-752.43 705.05,-763.99 653.55,-763.99 614.54,-752.43 614.54,-731.55 653.55,-719.99 705.05,-719.99 744.06,-731.55"/>
<text text-anchor="middle" x="679.3" y="-738.87" font-family="Times,serif" font-size="10.00">doubleoctagon</text>
</g>
<!-- n35&#45;&gt;n45 -->
<!-- n51 -->
<g id="node21" class="node">
<title>n51</title>
<polygon fill="white" stroke="black" points="118.6,-625.34 118.6,-640.25 86.21,-650.79 40.39,-650.79 8,-640.25 8,-625.34 40.39,-614.79 86.21,-614.79 118.6,-625.34"/>
<polygon fill="none" stroke="black" points="122.6,-622.43 122.6,-643.15 86.84,-654.79 39.76,-654.79 4,-643.15 4,-622.43 39.76,-610.79 86.84,-610.79 122.6,-622.43"/>
<polygon fill="none" stroke="black" points="126.6,-619.53 126.6,-646.06 87.48,-658.79 39.12,-658.79 0,-646.06 0,-619.53 39.12,-606.79 87.48,-606.79 126.6,-619.53"/>
<text text-anchor="middle" x="63.3" y="-629.67" font-family="Times,serif" font-size="10.00">tripleoctagon</text>
</g>
<!-- n41&#45;&gt;n51 -->
<!-- n52 -->
<g id="node22" class="node">
<title>n52</title>
<polygon fill="white" stroke="black" points="232.3,-612.04 319.8,-643.17 144.8,-643.17 232.3,-612.04"/>
<text text-anchor="middle" x="232.3" y="-629.67" font-family="Times,serif" font-size="10.00">invtriangle</text>
</g>
<!-- n42&#45;&gt;n52 -->
<!-- n53 -->
<g id="node23" class="node">
<title>n53</title>
<polygon fill="white" stroke="black" points="368.1,-614.79 452.5,-614.79 482.55,-650.79 338.05,-650.79 368.1,-614.79"/>
<text text-anchor="middle" x="410.3" y="-629.67" font-family="Times,serif" font-size="10.00">invtrapezium</text>
</g>
<!-- n43&#45;&gt;n53 -->
<!-- n54 -->
<g id="node24" class="node">
<title>n54</title>
<polygon fill="white" stroke="black" points="502.03,-627.23 549.3,-614.79 596.57,-627.23 596.53,-647.35 502.08,-647.35 502.03,-627.23"/>
<text text-anchor="middle" x="549.3" y="-629.67" font-family="Times,serif" font-size="10.00">invhouse</text>
</g>
<!-- n44&#45;&gt;n54 -->
<!-- n55 -->
<g id="node25" class="node">
<title>n55</title>
<polygon fill="white" stroke="black" points="679.3,-650.79 617.43,-632.79 679.3,-614.79 741.17,-632.79 679.3,-650.79"/>
<polyline fill="none" stroke="black" points="628.95,-636.14 628.95,-629.44"/>
<polyline fill="none" stroke="black" points="667.78,-618.14 690.82,-618.14"/>
<polyline fill="none" stroke="black" points="729.65,-629.44 729.65,-636.14"/>
<polyline fill="none" stroke="black" points="690.82,-647.44 667.78,-647.44"/>
<text text-anchor="middle" x="679.3" y="-629.67" font-family="Times,serif" font-size="10.00">Mdiamond</text>
</g>
<!-- n45&#45;&gt;n55 -->
<!-- n61 -->
<g id="node26" class="node">
<title>n61</title>
<polygon fill="white" stroke="black" points="106.5,-570.79 20.1,-570.79 20.1,-484.39 106.5,-484.39 106.5,-570.79"/>
<polyline fill="none" stroke="black" points="32.1,-570.79 20.1,-558.79"/>
<polyline fill="none" stroke="black" points="20.1,-496.39 32.1,-484.39"/>
<polyline fill="none" stroke="black" points="94.5,-484.39 106.5,-496.39"/>
<polyline fill="none" stroke="black" points="106.5,-558.79 94.5,-570.79"/>
<text text-anchor="middle" x="63.3" y="-524.47" font-family="Times,serif" font-size="10.00">Msquare</text>
</g>
<!-- n51&#45;&gt;n61 -->
<!-- n62 -->
<g id="node27" class="node">
<title>n62</title>
<ellipse fill="white" stroke="black" cx="232.3" cy="-527.59" rx="43.2" ry="43.2"/>
<polyline fill="none" stroke="black" points="260.87,-559.99 203.73,-559.99"/>
<polyline fill="none" stroke="black" points="260.87,-495.19 203.73,-495.19"/>
<text text-anchor="middle" x="232.3" y="-524.47" font-family="Times,serif" font-size="10.00">Mcircle</text>
</g>
<!-- n52&#45;&gt;n62 -->
<!-- n63 -->
<g id="node28" class="node">
<title>n63</title>
<polygon fill="white" stroke="black" points="453.5,-545.59 367.1,-545.59 367.1,-509.59 453.5,-509.59 453.5,-545.59"/>
<text text-anchor="middle" x="410.3" y="-524.47" font-family="Times,serif" font-size="10.00">rect</text>
</g>
<!-- n53&#45;&gt;n63 -->
<!-- n64 -->
<g id="node29" class="node">
<title>n64</title>
<polygon fill="white" stroke="black" points="592.5,-545.59 506.1,-545.59 506.1,-509.59 592.5,-509.59 592.5,-545.59"/>
<text text-anchor="middle" x="549.3" y="-524.47" font-family="Times,serif" font-size="10.00">rectangle</text>
</g>
<!-- n54&#45;&gt;n64 -->
<!-- n65 -->
<g id="node30" class="node">
<title>n65</title>
<polygon fill="white" stroke="black" points="722.5,-570.79 636.1,-570.79 636.1,-484.39 722.5,-484.39 722.5,-570.79"/>
<text text-anchor="middle" x="679.3" y="-524.47" font-family="Times,serif" font-size="10.00">square</text>
</g>
<!-- n55&#45;&gt;n65 -->
<!-- n71 -->
<g id="node31" class="node">
<title>n71</title>
<polygon fill="white" stroke="black" points="109.77,-414.63 74.27,-414.63 63.3,-448.39 52.33,-414.63 16.83,-414.63 45.55,-393.76 34.58,-360 63.3,-380.87 92.02,-360 81.05,-393.76 109.77,-414.63"/>
<text text-anchor="middle" x="63.3" y="-401.07" font-family="Times,serif" font-size="10.00">star</text>
</g>
<!-- n61&#45;&gt;n71 -->
<!-- n72 -->
<g id="node32" class="node">
<title>n72</title>
<polygon fill="white" stroke="none" points="275.5,-422.2 189.1,-422.2 189.1,-386.2 275.5,-386.2 275.5,-422.2"/>
<text text-anchor="middle" x="232.3" y="-401.07" font-family="Times,serif" font-size="10.00">none</text>
</g>
<!-- n62&#45;&gt;n72 -->
<!-- n73 -->
<g id="node33" class="node">
<title>n73</title>
<polygon fill="white" stroke="none" points="453.5,-422.2 367.1,-422.2 367.1,-386.2 453.5,-386.2 453.5,-422.2"/>
<polyline fill="none" stroke="black" points="367.1,-386.2 453.5,-386.2"/>
<text text-anchor="middle" x="410.3" y="-401.07" font-family="Times,serif" font-size="10.00">underline</text>
</g>
<!-- n63&#45;&gt;n73 -->
<!-- n74 -->
<g id="node34" class="node">
<title>n74</title>
<path fill="white" stroke="black" d="M592.5,-418.92C592.5,-420.73 573.14,-422.2 549.3,-422.2 525.46,-422.2 506.1,-420.73 506.1,-418.92 506.1,-418.92 506.1,-389.47 506.1,-389.47 506.1,-387.66 525.46,-386.2 549.3,-386.2 573.14,-386.2 592.5,-387.66 592.5,-389.47 592.5,-389.47 592.5,-418.92 592.5,-418.92"/>
<path fill="none" stroke="black" d="M592.5,-418.92C592.5,-417.12 573.14,-415.65 549.3,-415.65 525.46,-415.65 506.1,-417.12 506.1,-418.92"/>
<text text-anchor="middle" x="549.3" y="-401.07" font-family="Times,serif" font-size="10.00">cylinder</text>
</g>
<!-- n64&#45;&gt;n74 -->
<!-- n75 -->
<g id="node35" class="node">
<title>n75</title>
<polygon fill="white" stroke="black" points="716.5,-422.2 636.1,-422.2 636.1,-386.2 722.5,-386.2 722.5,-416.2 716.5,-422.2"/>
<polyline fill="none" stroke="black" points="716.5,-422.2 716.5,-416.2"/>
<polyline fill="none" stroke="black" points="722.5,-416.2 716.5,-416.2"/>
<text text-anchor="middle" x="679.3" y="-401.07" font-family="Times,serif" font-size="10.00">note</text>
</g>
<!-- n65&#45;&gt;n75 -->
<!-- n81 -->
<g id="node36" class="node">
<title>n81</title>
<polygon fill="white" stroke="black" points="106.5,-324 32.1,-324 32.1,-328 20.1,-328 20.1,-288 106.5,-288 106.5,-324"/>
<polyline fill="none" stroke="black" points="20.1,-324 32.1,-324"/>
<text text-anchor="middle" x="63.3" y="-302.88" font-family="Times,serif" font-size="10.00">tab</text>
</g>
<!-- n71&#45;&gt;n81 -->
<!-- n82 -->
<g id="node37" class="node">
<title>n82</title>
<polygon fill="white" stroke="black" points="275.5,-324 272.5,-328 251.5,-328 248.5,-324 189.1,-324 189.1,-288 275.5,-288 275.5,-324"/>
<text text-anchor="middle" x="232.3" y="-302.88" font-family="Times,serif" font-size="10.00">folder</text>
</g>
<!-- n72&#45;&gt;n82 -->
<!-- n83 -->
<g id="node38" class="node">
<title>n83</title>
<polygon fill="white" stroke="black" points="453.5,-324 371.1,-324 367.1,-320 367.1,-288 449.5,-288 453.5,-292 453.5,-324"/>
<polyline fill="none" stroke="black" points="449.5,-320 367.1,-320"/>
<polyline fill="none" stroke="black" points="449.5,-320 449.5,-288"/>
<polyline fill="none" stroke="black" points="449.5,-320 453.5,-324"/>
<text text-anchor="middle" x="410.3" y="-302.88" font-family="Times,serif" font-size="10.00">box3d</text>
</g>
<!-- n73&#45;&gt;n83 -->
<!-- n84 -->
<g id="node39" class="node">
<title>n84</title>
<polygon fill="white" stroke="black" points="592.5,-324 506.1,-324 506.1,-320 502.1,-320 502.1,-316 506.1,-316 506.1,-296 502.1,-296 502.1,-292 506.1,-292 506.1,-288 592.5,-288 592.5,-324"/>
<polyline fill="none" stroke="black" points="506.1,-320 510.1,-320 510.1,-316 506.1,-316"/>
<polyline fill="none" stroke="black" points="506.1,-296 510.1,-296 510.1,-292 506.1,-292"/>
<text text-anchor="middle" x="549.3" y="-302.88" font-family="Times,serif" font-size="10.00">component</text>
</g>
<!-- n74&#45;&gt;n84 -->
<!-- n85 -->
<g id="node40" class="node">
<title>n85</title>
<polygon fill="white" stroke="black" points="690.1,-324 657.7,-324 657.7,-306 663.7,-306 663.7,-318 690.1,-318 690.1,-315 702.1,-321 690.1,-327 690.1,-324"/>
<polyline fill="none" stroke="black" points="636.1,-306 722.5,-306"/>
<text text-anchor="middle" x="679.3" y="-302.88" font-family="Times,serif" font-size="10.00">promoter</text>
</g>
<!-- n75&#45;&gt;n85 -->
<!-- n91 -->
<g id="node41" class="node">
<title>n91</title>
<polygon fill="white" stroke="black" points="94.5,-246 20.1,-246 20.1,-222 94.5,-222 106.5,-234 94.5,-246"/>
<text text-anchor="middle" x="63.3" y="-230.88" font-family="Times,serif" font-size="10.00">cds</text>
</g>
<!-- n81&#45;&gt;n91 -->
<!-- n92 -->
<g id="node42" class="node">
<title>n92</title>
<polygon fill="white" stroke="black" points="235.3,-234 235.3,-240 241.3,-240 241.3,-246 223.3,-246 223.3,-240 229.3,-240 229.3,-234 235.3,-234"/>
<polyline fill="none" stroke="black" points="189.1,-234 275.5,-234"/>
<text text-anchor="middle" x="232.3" y="-230.88" font-family="Times,serif" font-size="10.00">terminator</text>
</g>
<!-- n82&#45;&gt;n92 -->
<!-- n93 -->
<g id="node43" class="node">
<title>n93</title>
<polygon fill="white" stroke="black" points="419.3,-234 419.3,-237 413.3,-243 407.3,-243 401.3,-237 401.3,-234 419.3,-234"/>
<polyline fill="none" stroke="black" points="367.1,-234 453.5,-234"/>
<text text-anchor="middle" x="410.3" y="-230.88" font-family="Times,serif" font-size="10.00">utr</text>
</g>
<!-- n83&#45;&gt;n93 -->
<!-- n94 -->
<g id="node44" class="node">
<title>n94</title>
<polygon fill="white" stroke="black" points="561.3,-237 549.3,-249 549.3,-243 527.7,-243 527.7,-237 561.3,-237"/>
<polyline fill="none" stroke="black" points="506.1,-234 592.5,-234"/>
<text text-anchor="middle" x="549.3" y="-230.88" font-family="Times,serif" font-size="10.00">primersite</text>
</g>
<!-- n84&#45;&gt;n94 -->
<!-- n95 -->
<g id="node45" class="node">
<title>n95</title>
<polygon fill="white" stroke="black" points="696.1,-237 668.5,-237 668.5,-243 662.5,-243 662.5,-231 690.1,-231 690.1,-225 696.1,-225 696.1,-237"/>
<polyline fill="none" stroke="black" points="636.1,-234 662.5,-234"/>
<polyline fill="none" stroke="black" points="696.1,-234 722.5,-234"/>
<text text-anchor="middle" x="679.3" y="-230.88" font-family="Times,serif" font-size="10.00">restrictionsite</text>
</g>
<!-- n85&#45;&gt;n95 -->
<!-- na1 -->
<g id="node46" class="node">
<title>na1</title>
<polygon fill="white" stroke="black" points="18.18,-163.5 42.18,-163.5 42.18,-169.5 18.18,-169.5 18.18,-163.5"/>
<polygon fill="white" stroke="black" points="30.18,-154.5 42.18,-154.5 42.18,-160.5 30.18,-160.5 30.18,-154.5"/>
<polyline fill="none" stroke="black" points="42.18,-162 108.43,-162"/>
<text text-anchor="middle" x="63.3" y="-158.88" font-family="Times,serif" font-size="10.00">fivepoverhang</text>
</g>
<!-- n91&#45;&gt;na1 -->
<!-- na2 -->
<g id="node47" class="node">
<title>na2</title>
<polygon fill="white" stroke="black" points="281.55,-163.5 281.55,-169.5 257.55,-169.5 257.55,-163.5 281.55,-163.5"/>
<polygon fill="white" stroke="black" points="269.55,-154.5 269.55,-160.5 257.55,-160.5 257.55,-154.5 269.55,-154.5"/>
<polyline fill="none" stroke="black" points="183.05,-162 257.55,-162"/>
<text text-anchor="middle" x="232.3" y="-158.88" font-family="Times,serif" font-size="10.00">threepoverhang</text>
</g>
<!-- n92&#45;&gt;na2 -->
<!-- na3 -->
<g id="node48" class="node">
<title>na3</title>
<polygon fill="white" stroke="black" points="396.8,-163.5 408.8,-163.5 408.8,-169.5 396.8,-169.5 396.8,-163.5"/>
<polygon fill="white" stroke="black" points="396.8,-154.5 408.8,-154.5 408.8,-160.5 396.8,-160.5 396.8,-154.5"/>
<polygon fill="white" stroke="black" points="411.8,-154.5 423.8,-154.5 423.8,-160.5 411.8,-160.5 411.8,-154.5"/>
<polygon fill="white" stroke="black" points="411.8,-163.5 423.8,-163.5 423.8,-169.5 411.8,-169.5 411.8,-163.5"/>
<polyline fill="none" stroke="black" points="423.8,-162 453.5,-162"/>
<polyline fill="none" stroke="black" points="396.8,-162 367.1,-162"/>
<text text-anchor="middle" x="410.3" y="-158.88" font-family="Times,serif" font-size="10.00">noverhang</text>
</g>
<!-- n93&#45;&gt;na3 -->
<!-- na4 -->
<g id="node49" class="node">
<title>na4</title>
<polygon fill="white" stroke="black" points="537.3,-163.5 561.3,-163.5 561.3,-169.5 537.3,-169.5 537.3,-163.5"/>
<polygon fill="white" stroke="black" points="537.3,-154.5 561.3,-154.5 561.3,-160.5 537.3,-160.5 537.3,-154.5"/>
<polyline fill="none" stroke="black" points="561.3,-162 592.5,-162"/>
<polyline fill="none" stroke="black" points="506.1,-162 537.3,-162"/>
<text text-anchor="middle" x="549.3" y="-158.88" font-family="Times,serif" font-size="10.00">assembly</text>
</g>
<!-- n94&#45;&gt;na4 -->
<!-- na5 -->
<g id="node50" class="node">
<title>na5</title>
<polygon fill="white" stroke="black" points="722.5,-174 636.1,-174 636.1,-150 722.5,-150 722.5,-174"/>
<polyline fill="none" stroke="black" points="639.1,-163.5 642.1,-160.5"/>
<polyline fill="none" stroke="black" points="639.1,-160.5 642.1,-163.5"/>
<polyline fill="none" stroke="black" points="639.1,-153 719.5,-153"/>
<text text-anchor="middle" x="679.3" y="-158.88" font-family="Times,serif" font-size="10.00">signature</text>
</g>
<!-- n95&#45;&gt;na5 -->
<!-- nb1 -->
<g id="node51" class="node">
<title>nb1</title>
<polygon fill="white" stroke="black" points="69.3,-96 69.3,-84 57.3,-84 57.3,-96 69.3,-96"/>
<polyline fill="none" stroke="black" points="72.3,-99 72.3,-81 54.3,-81 54.3,-99 72.3,-99"/>
<polyline fill="none" stroke="black" points="72.3,-90 106.5,-90"/>
<polyline fill="none" stroke="black" points="20.1,-90 54.3,-90"/>
<text text-anchor="middle" x="63.3" y="-86.88" font-family="Times,serif" font-size="10.00">insulator</text>
</g>
<!-- na1&#45;&gt;nb1 -->
<!-- nb2 -->
<g id="node52" class="node">
<title>nb2</title>
<polygon fill="white" stroke="black" points="235.3,-96 235.3,-97.5 233.8,-99 235.3,-100.5 235.3,-102 233.8,-102 232.3,-100.5 230.8,-102 229.3,-102 229.3,-100.5 230.8,-99 229.3,-97.5 229.3,-96 230.8,-96 232.3,-97.5 233.8,-96 235.3,-96"/>
<polyline fill="none" stroke="black" points="232.3,-90 232.3,-91.5"/>
<polyline fill="none" stroke="black" points="232.3,-93 232.3,-94.5"/>
<polyline fill="none" stroke="black" points="189.1,-90 275.5,-90"/>
<text text-anchor="middle" x="232.3" y="-86.88" font-family="Times,serif" font-size="10.00">ribosite</text>
</g>
<!-- na2&#45;&gt;nb2 -->
<!-- nb3 -->
<g id="node53" class="node">
<title>nb3</title>
<polygon fill="white" stroke="black" points="411.8,-96 413.3,-97.5 413.3,-100.5 411.8,-102 408.8,-102 407.3,-100.5 407.3,-97.5 408.8,-96 411.8,-96"/>
<polyline fill="none" stroke="black" points="410.3,-90 410.3,-91.5"/>
<polyline fill="none" stroke="black" points="410.3,-93 410.3,-94.5"/>
<polyline fill="none" stroke="black" points="367.1,-90 453.5,-90"/>
<text text-anchor="middle" x="410.3" y="-86.88" font-family="Times,serif" font-size="10.00">rnastab</text>
</g>
<!-- na3&#45;&gt;nb3 -->
<!-- nb4 -->
<g id="node54" class="node">
<title>nb4</title>
<polygon fill="white" stroke="black" points="552.3,-96 552.3,-97.5 550.8,-99 552.3,-100.5 552.3,-102 550.8,-102 549.3,-100.5 547.8,-102 546.3,-102 546.3,-100.5 547.8,-99 546.3,-97.5 546.3,-96 547.8,-96 549.3,-97.5 550.8,-96 552.3,-96"/>
<polyline fill="none" stroke="black" points="549.3,-97.5 549.3,-90"/>
<polyline fill="none" stroke="black" points="506.1,-90 592.5,-90"/>
<text text-anchor="middle" x="549.3" y="-86.88" font-family="Times,serif" font-size="10.00">proteasesite</text>
</g>
<!-- na4&#45;&gt;nb4 -->
<!-- nb5 -->
<g id="node55" class="node">
<title>nb5</title>
<polygon fill="white" stroke="black" points="680.8,-96 682.3,-97.5 682.3,-100.5 680.8,-102 677.8,-102 676.3,-100.5 676.3,-97.5 677.8,-96 680.8,-96"/>
<polyline fill="none" stroke="black" points="679.3,-96 679.3,-90"/>
<polyline fill="none" stroke="black" points="636.1,-90 722.5,-90"/>
<text text-anchor="middle" x="679.3" y="-86.88" font-family="Times,serif" font-size="10.00">proteinstab</text>
</g>
<!-- na5&#45;&gt;nb5 -->
<!-- nc1 -->
<g id="node56" class="node">
<title>nc1</title>
<polygon fill="white" stroke="black" points="88.5,-30 20.1,-30 20.1,0 38.1,0 38.1,-6 88.5,-6 88.5,0 106.5,-18 88.5,-36 88.5,-30"/>
<text text-anchor="middle" x="63.3" y="-14.88" font-family="Times,serif" font-size="10.00">rpromoter</text>
</g>
<!-- nb1&#45;&gt;nc1 -->
<!-- nc2 -->
<g id="node57" class="node">
<title>nc2</title>
<polygon fill="white" stroke="black" points="257.5,-30 189.1,-30 189.1,-6 257.5,-6 257.5,0 275.5,-18 257.5,-36 257.5,-30"/>
<text text-anchor="middle" x="232.3" y="-14.88" font-family="Times,serif" font-size="10.00">rarrow</text>
</g>
<!-- nb2&#45;&gt;nc2 -->
<!-- nc3 -->
<g id="node58" class="node">
<title>nc3</title>
<polygon fill="white" stroke="black" points="453.5,-30 385.1,-30 385.1,-36 367.1,-18 385.1,0 385.1,-6 453.5,-6 453.5,-30"/>
<text text-anchor="middle" x="410.3" y="-14.88" font-family="Times,serif" font-size="10.00">larrow</text>
</g>
<!-- nb3&#45;&gt;nc3 -->
<!-- nc4 -->
<g id="node59" class="node">
<title>nc4</title>
<polygon fill="white" stroke="black" points="592.5,-30 524.1,-30 524.1,-36 506.1,-18 524.1,0 524.1,-6 574.5,-6 574.5,0 592.5,0 592.5,-30"/>
<text text-anchor="middle" x="549.3" y="-14.88" font-family="Times,serif" font-size="10.00">lpromoter</text>
</g>
<!-- nb4&#45;&gt;nc4 -->
</g>
</svg>
