<?xml version="1.0" encoding="UTF-8" standalone="no"?>
<!DOCTYPE svg PUBLIC "-//W3C//DTD SVG 1.1//EN"
 "http://www.w3.org/Graphics/SVG/1.1/DTD/svg11.dtd">
<!-- Generated by graphviz version 12.2.1 (20241206.2353)
 -->
<!-- Title: LAYOUT Pages: 1 -->
<svg width="747pt" height="190pt"
 viewBox="0.00 0.00 747.00 190.00" xmlns="http://www.w3.org/2000/svg" xmlns:xlink="http://www.w3.org/1999/xlink">
<g id="graph0" class="graph" transform="scale(1 1) rotate(0) translate(4 186)">
<title>LAYOUT</title>
<polygon fill="white" stroke="none" points="-4,4 -4,-186 743,-186 743,4 -4,4"/>
<!-- n111 -->
<g id="node1" class="node">
<title>n111</title>
</g>
<!-- n112 -->
<g id="node2" class="node">
<title>n112</title>
</g>
<!-- n111&#45;&gt;n112 -->
<g id="edge1" class="edge">
<title>n111&#45;&gt;n112</title>
<path fill="none" stroke="black" d="M53.78,-164C64.26,-164 76.46,-164 87.77,-164"/>
<polygon fill="black" stroke="black" points="97.75,-160 97.75,-168 89.75,-168 89.75,-160 97.75,-160"/>
<polyline fill="none" stroke="black" points="89.75,-164 87.75,-164"/>
<text text-anchor="middle" x="76" y="-170.95" font-family="Times,serif" font-size="14.00">box</text>
</g>
<!-- n211 -->
<g id="node9" class="node">
<title>n211</title>
</g>
<!-- n111&#45;&gt;n211 -->
<!-- n121 -->
<g id="node3" class="node">
<title>n121</title>
</g>
<!-- n122 -->
<g id="node4" class="node">
<title>n122</title>
</g>
<!-- n121&#45;&gt;n122 -->
<g id="edge2" class="edge">
<title>n121&#45;&gt;n122</title>
<path fill="none" stroke="black" d="M259.72,-164C272.75,-164 288.62,-164 302.8,-164"/>
<polygon fill="black" stroke="black" points="302.91,-164 312.91,-168.5 308.25,-164 312.58,-164 312.58,-164 312.58,-164 308.25,-164 312.91,-159.5 302.91,-164"/>
<text text-anchor="middle" x="286.5" y="-170.95" font-family="Times,serif" font-size="14.00">crow</text>
</g>
<!-- n221 -->
<g id="node11" class="node">
<title>n221</title>
</g>
<!-- n121&#45;&gt;n221 -->
<!-- n131 -->
<g id="node5" class="node">
<title>n131</title>
</g>
<!-- n132 -->
<g id="node6" class="node">
<title>n132</title>
</g>
<!-- n131&#45;&gt;n132 -->
<g id="edge3" class="edge">
<title>n131&#45;&gt;n132</title>
<path fill="none" stroke="black" d="M438.83,-164C453.13,-164 470.95,-164 486.59,-164"/>
<polyline fill="none" stroke="black" points="497,-164 486.5,-164"/>
<path fill="none" stroke="black" d="M491.5,-159C498.17,-159 498.17,-169 491.5,-169"/>
<text text-anchor="middle" x="468" y="-170.95" font-family="Times,serif" font-size="14.00">curve</text>
</g>
<!-- n231 -->
<g id="node13" class="node">
<title>n231</title>
</g>
<!-- n131&#45;&gt;n231 -->
<!-- n141 -->
<g id="node7" class="node">
<title>n141</title>
</g>
<!-- n142 -->
<g id="node8" class="node">
<title>n142</title>
</g>
<!-- n141&#45;&gt;n142 -->
<g id="edge4" class="edge">
<title>n141&#45;&gt;n142</title>
<path fill="none" stroke="black" d="M622.9,-164C638.42,-164 658.16,-164 675.11,-164"/>
<polyline fill="none" stroke="black" points="685.24,-164 675.24,-164"/>
<path fill="none" stroke="black" d="M680.24,-159C673.57,-159 673.57,-169 680.24,-169"/>
<text text-anchor="middle" x="654" y="-170.95" font-family="Times,serif" font-size="14.00">icurve</text>
</g>
<!-- n241 -->
<g id="node15" class="node">
<title>n241</title>
</g>
<!-- n141&#45;&gt;n241 -->
<!-- n212 -->
<g id="node10" class="node">
<title>n212</title>
</g>
<!-- n211&#45;&gt;n212 -->
<g id="edge5" class="edge">
<title>n211&#45;&gt;n212</title>
<path fill="none" stroke="black" d="M53.79,-91C73.15,-91 99.61,-91 121.39,-91"/>
<polygon fill="black" stroke="black" points="121.35,-91 127.35,-87 133.35,-91 127.35,-95 121.35,-91"/>
<text text-anchor="middle" x="94" y="-97.95" font-family="Times,serif" font-size="14.00">diamond</text>
</g>
<!-- n311 -->
<g id="node17" class="node">
<title>n311</title>
</g>
<!-- n211&#45;&gt;n311 -->
<!-- n222 -->
<g id="node12" class="node">
<title>n222</title>
</g>
<!-- n221&#45;&gt;n222 -->
<g id="edge6" class="edge">
<title>n221&#45;&gt;n222</title>
<path fill="none" stroke="black" d="M259.97,-91C270.08,-91 281.73,-91 292.51,-91"/>
<ellipse fill="black" stroke="black" cx="296.79" cy="-91" rx="4" ry="4"/>
<text text-anchor="middle" x="280.5" y="-97.95" font-family="Times,serif" font-size="14.00">dot</text>
</g>
<!-- n321 -->
<g id="node19" class="node">
<title>n321</title>
</g>
<!-- n221&#45;&gt;n321 -->
<!-- n232 -->
<g id="node14" class="node">
<title>n232</title>
</g>
<!-- n231&#45;&gt;n232 -->
<g id="edge7" class="edge">
<title>n231&#45;&gt;n232</title>
<path fill="none" stroke="black" d="M438.94,-91C448.18,-91 458.7,-91 468.62,-91"/>
<polygon fill="black" stroke="black" points="478.56,-94.5 468.56,-91 478.56,-87.5 478.56,-94.5"/>
<text text-anchor="middle" x="459" y="-97.95" font-family="Times,serif" font-size="14.00">inv</text>
</g>
<!-- n331 -->
<g id="node21" class="node">
<title>n331</title>
</g>
<!-- n231&#45;&gt;n331 -->
<!-- n242 -->
<g id="node16" class="node">
<title>n242</title>
</g>
<!-- n241&#45;&gt;n242 -->
<g id="edge8" class="edge">
<title>n241&#45;&gt;n242</title>
<path fill="none" stroke="black" d="M622.72,-91C639.07,-91 659.9,-91 676.25,-91"/>
<text text-anchor="middle" x="649.5" y="-97.95" font-family="Times,serif" font-size="14.00">none</text>
</g>
<!-- n312 -->
<g id="node18" class="node">
<title>n312</title>
</g>
<!-- n311&#45;&gt;n312 -->
<g id="edge9" class="edge">
<title>n311&#45;&gt;n312</title>
<path fill="none" stroke="black" d="M53.77,-18C70.54,-18 92.4,-18 110.95,-18"/>
<polygon fill="black" stroke="black" points="110.78,-21.5 120.78,-18 110.78,-14.5 110.78,-21.5"/>
<text text-anchor="middle" x="88" y="-24.95" font-family="Times,serif" font-size="14.00">normal</text>
</g>
<!-- n322 -->
<g id="node20" class="node">
<title>n322</title>
</g>
<!-- n321&#45;&gt;n322 -->
<g id="edge10" class="edge">
<title>n321&#45;&gt;n322</title>
<path fill="none" stroke="black" d="M259.97,-18C271.3,-18 284.55,-18 296.34,-18"/>
<polygon fill="black" stroke="black" points="300.29,-13 300.29,-23 298.29,-23 298.29,-13 300.29,-13"/>
<polyline fill="none" stroke="black" points="301.29,-18 296.29,-18"/>
<text text-anchor="middle" x="280.5" y="-24.95" font-family="Times,serif" font-size="14.00">tee</text>
</g>
<!-- n332 -->
<g id="node22" class="node">
<title>n332</title>
</g>
<!-- n331&#45;&gt;n332 -->
<g id="edge11" class="edge">
<title>n331&#45;&gt;n332</title>
<path fill="none" stroke="black" d="M438.76,-18C448.83,-18 460.48,-18 471.36,-18"/>
<polygon fill="black" stroke="black" points="481.11,-18 471.11,-22.5 477.32,-18 471.11,-18 471.11,-18 471.11,-18 477.32,-18 471.11,-13.5 481.11,-18"/>
<text text-anchor="middle" x="460.5" y="-24.95" font-family="Times,serif" font-size="14.00">vee</text>
</g>
</g>
</svg>
