<svg xmlns="http://www.w3.org/2000/svg" xmlns:xlink="http://www.w3.org/1999/xlink" contentStyleType="text/css" data-diagram-type="DESCRIPTION" height="961.4583px" preserveAspectRatio="none" style="width:882px;height:961px;" version="1.1" viewBox="0 0 882 961" width="882.2917px" zoomAndPan="magnify"><defs><linearGradient id="g15cphszi395fo0" x1="50%" x2="50%" y1="0%" y2="100%"><stop offset="0%" stop-color="#B8B8B8"/><stop offset="100%" stop-color="#6B6B6B"/></linearGradient><linearGradient id="g15cphszi395fo1" x1="50%" x2="50%" y1="0%" y2="100%"><stop offset="0%" stop-color="#70B8F7"/><stop offset="100%" stop-color="#246BAA"/></linearGradient></defs><g><!--cluster ???????--><g class="cluster" data-entity="&#31070;&#32076;&#28814;&#30151;&#24615;&#20206;&#35500;" data-source-line="15" data-uid="ent0006" id="cluster_&#31070;&#32076;&#28814;&#30151;&#24615;&#20206;&#35500;"><rect fill="url(#g15cphszi395fo0)" height="223.6354" rx="20.8333" ry="20.8333" style="stroke:#446E9B;stroke-width:2.0833;" width="321.875" x="17.7083" y="105.2396"/><text fill="#FFFFFF" font-family="Verdana" font-size="12.5" font-weight="bold" lengthAdjust="spacing" textLength="87.5007" x="134.8955" y="125.8938">&#31070;&#32076;&#28814;&#30151;&#24615;&#20206;&#35500;</text></g><!--cluster ????????--><g class="cluster" data-entity="&#12467;&#12523;&#12481;&#12478;&#12540;&#12523;&#20206;&#35500;" data-source-line="25" data-uid="ent0014" id="cluster_&#12467;&#12523;&#12481;&#12478;&#12540;&#12523;&#20206;&#35500;"><rect fill="url(#g15cphszi395fo0)" height="111.8229" rx="20.8333" ry="20.8333" style="stroke:#446E9B;stroke-width:2.0833;" width="164.5833" x="416.6667" y="217.0521"/><text fill="#FFFFFF" font-family="Verdana" font-size="12.5" font-weight="bold" lengthAdjust="spacing" textLength="100.0008" x="448.958" y="237.7063">&#12467;&#12523;&#12481;&#12478;&#12540;&#12523;&#20206;&#35500;</text></g><!--cluster ???????--><g class="cluster" data-entity="&#31070;&#32076;&#21487;&#36870;&#24615;&#20206;&#35500;" data-source-line="31" data-uid="ent0018" id="cluster_&#31070;&#32076;&#21487;&#36870;&#24615;&#20206;&#35500;"><rect fill="url(#g15cphszi395fo0)" height="239.6146" rx="20.8333" ry="20.8333" style="stroke:#446E9B;stroke-width:2.0833;" width="569.7917" x="301.0417" y="353.875"/><text fill="#FFFFFF" font-family="Verdana" font-size="12.5" font-weight="bold" lengthAdjust="spacing" textLength="87.5007" x="542.1872" y="374.5293">&#31070;&#32076;&#21487;&#36870;&#24615;&#20206;&#35500;</text></g><!--cluster ???????--><g class="cluster" data-entity="&#12514;&#12494;&#12450;&#12511;&#12531;&#20206;&#35500;" data-source-line="46" data-uid="ent0032" id="cluster_&#12514;&#12494;&#12450;&#12511;&#12531;&#20206;&#35500;"><rect fill="url(#g15cphszi395fo0)" height="111.8125" rx="20.8333" ry="20.8333" style="stroke:#446E9B;stroke-width:2.0833;" width="152.0833" x="414.5833" y="618.4896"/><text fill="#FFFFFF" font-family="Verdana" font-size="12.5" font-weight="bold" lengthAdjust="spacing" textLength="87.5007" x="446.8747" y="639.1438">&#12514;&#12494;&#12450;&#12511;&#12531;&#20206;&#35500;</text></g><!--entity microglia--><g class="entity" data-entity="microglia" data-source-line="16" data-uid="ent0007" id="entity_microglia"><rect fill="url(#g15cphszi395fo0)" height="48.2751" rx="20.8333" ry="20.8333" style="stroke:#304D6D;stroke-width:2.0833;" width="181.2511" x="141.6667" y="152.1146"/><text fill="#FFFFFF" font-family="Verdana" font-size="12.5" lengthAdjust="spacing" textLength="150.0011" x="157.2917" y="181.1022">&#12511;&#12463;&#12525;&#12464;&#12522;&#12450;&#32048;&#32990;&#12398;&#27963;&#24615;&#21270;</text></g><!--entity Cytokine--><g class="entity" data-entity="Cytokine" data-source-line="17" data-uid="ent0008" id="entity_Cytokine"><rect fill="url(#g15cphszi395fo0)" height="48.2751" rx="20.8333" ry="20.8333" style="stroke:#304D6D;stroke-width:2.0833;" width="168.751" x="154.1667" y="263.9271"/><text fill="#FFFFFF" font-family="Verdana" font-size="12.5" lengthAdjust="spacing" textLength="137.501" x="169.7917" y="292.9147">&#28814;&#30151;&#24615;&#12469;&#12452;&#12488;&#12459;&#12452;&#12531;&#25918;&#20986;</text></g><g class="entity" data-entity="GMN9" data-source-line="19" data-uid="ent0010" id="entity_GMN9"><path d="M34.8958,273.3021 L34.8958,302.8272 A4.1667,4.1667 0 0 0 39.0625,306.9939 L113.0212,306.9939 A4.1667,4.1667 0 0 0 117.1879,302.8272 L117.1879,292.2292 L153.9896,288.0625 L117.1879,283.8958 L117.1879,279.5521 L106.7712,269.1354 L39.0625,269.1354 A4.1667,4.1667 0 0 0 34.8958,273.3021" fill="url(#g15cphszi395fo1)" style="stroke:#246BAA;stroke-width:1.0417;"/><path d="M106.7712,269.1354 L106.7712,277.4688 A2.0833,2.0833 0 0 0 108.8545,279.5521 L117.1879,279.5521 L106.7712,269.1354" fill="url(#g15cphszi395fo1)" style="stroke:#246BAA;stroke-width:1.0417;"/><text fill="#FFFFFF" font-family="Verdana" font-size="12.5" lengthAdjust="spacing" textLength="50.0004" x="46.3542" y="292.9147">&#28814;&#30151;&#21453;&#24540;</text></g><!--entity cortisol--><g class="entity" data-entity="cortisol" data-source-line="26" data-uid="ent0015" id="entity_cortisol"><rect fill="url(#g15cphszi395fo0)" height="48.2751" rx="20.8333" ry="20.8333" style="stroke:#304D6D;stroke-width:2.0833;" width="131.2508" x="433.3333" y="263.9271"/><text fill="#FFFFFF" font-family="Verdana" font-size="12.5" lengthAdjust="spacing" textLength="100.0008" x="448.9583" y="292.9147">&#12467;&#12523;&#12481;&#12478;&#12540;&#12523;&#19978;&#26119;</text></g><!--entity BDNF--><g class="entity" data-entity="BDNF" data-source-line="32" data-uid="ent0019" id="entity_BDNF"><rect fill="url(#g15cphszi395fo0)" height="48.2751" rx="20.8333" ry="20.8333" style="stroke:#304D6D;stroke-width:2.0833;" width="89.4879" x="450.0521" y="400.75"/><text fill="#FFFFFF" font-family="Verdana" font-size="12.5" lengthAdjust="spacing" textLength="58.2379" x="465.6771" y="429.7376">BDNF&#20302;&#19979;</text></g><!--entity Nrf2--><g class="entity" data-entity="Nrf2" data-source-line="33" data-uid="ent0020" id="entity_Nrf2"><rect fill="url(#g15cphszi395fo0)" height="48.2751" rx="20.8333" ry="20.8333" style="stroke:#304D6D;stroke-width:2.0833;" width="82.3629" x="318.1979" y="520.0313"/><text fill="#FFFFFF" font-family="Verdana" font-size="12.5" lengthAdjust="spacing" textLength="51.1129" x="333.8229" y="549.0188">Nrf2&#20302;&#19979;</text></g><!--entity synapse--><g class="entity" data-entity="synapse" data-source-line="34" data-uid="ent0021" id="entity_synapse"><rect fill="url(#g15cphszi395fo0)" height="48.2751" rx="20.8333" ry="20.8333" style="stroke:#304D6D;stroke-width:2.0833;" width="106.2506" x="437.5" y="520.0313"/><text fill="#FFFFFF" font-family="Verdana" font-size="12.5" lengthAdjust="spacing" textLength="75.0006" x="453.125" y="549.0188">&#12471;&#12490;&#12503;&#12473;&#33806;&#32302;</text></g><!--entity Neurogenesis--><g class="entity" data-entity="Neurogenesis" data-source-line="35" data-uid="ent0022" id="entity_Neurogenesis"><rect fill="url(#g15cphszi395fo0)" height="48.2751" rx="20.8333" ry="20.8333" style="stroke:#304D6D;stroke-width:2.0833;" width="131.2508" x="722.9167" y="520.0313"/><text fill="#FFFFFF" font-family="Verdana" font-size="12.5" lengthAdjust="spacing" textLength="100.0008" x="738.5417" y="549.0188">&#31070;&#32076;&#32048;&#32990;&#26032;&#29983;&#28187;&#23569;</text></g><!--entity apoptosis--><g class="entity" data-entity="apoptosis" data-source-line="36" data-uid="ent0023" id="entity_apoptosis"><rect fill="url(#g15cphszi395fo0)" height="65.3002" rx="20.8333" ry="20.8333" style="stroke:#304D6D;stroke-width:2.0833;" width="106.2506" x="580.2083" y="511.5208"/><text fill="#FFFFFF" font-family="Verdana" font-size="12.5" lengthAdjust="spacing" textLength="75.0006" x="595.8333" y="540.5084">&#12450;&#12509;&#12488;&#12540;&#12471;&#12473;</text><text fill="#FFFFFF" font-family="Verdana" font-size="12.5" lengthAdjust="spacing" textLength="62.5005" x="595.8333" y="557.5335">&#31070;&#32076;&#32048;&#32990;&#27515;</text></g><!--entity serotonin--><g class="entity" data-entity="serotonin" data-source-line="47" data-uid="ent0033" id="entity_serotonin"><rect fill="url(#g15cphszi395fo0)" height="48.2751" rx="20.8333" ry="20.8333" style="stroke:#304D6D;stroke-width:2.0833;" width="118.7507" x="431.25" y="665.3646"/><text fill="#FFFFFF" font-family="Verdana" font-size="12.5" lengthAdjust="spacing" textLength="87.5007" x="446.875" y="694.3522">&#12475;&#12525;&#12488;&#12491;&#12531;&#20302;&#19979;</text></g><!--entity stress--><g class="entity" data-entity="stress" data-source-line="8" data-uid="ent0002" id="entity_stress"><rect fill="url(#g15cphszi395fo0)" height="48.2751" rx="20.8333" ry="20.8333" style="stroke:#304D6D;stroke-width:2.0833;" width="81.2504" x="294.7917" y="28.4792"/><text fill="#FFFFFF" font-family="Verdana" font-size="12.5" lengthAdjust="spacing" textLength="50.0004" x="310.4167" y="57.4668">&#12473;&#12488;&#12524;&#12473;</text></g><g class="entity" data-entity="GMN3" data-source-line="10" data-uid="ent0004" id="entity_GMN3"><path d="M412.3958,20.8333 L412.3958,48.4479 L376.3854,52.6146 L412.3958,56.7812 L412.3958,84.4087 A4.1667,4.1667 0 0 0 416.5625,88.5754 L560.5217,88.5754 A4.1667,4.1667 0 0 0 564.6884,84.4087 L564.6884,27.0833 L554.2717,16.6667 L416.5625,16.6667 A4.1667,4.1667 0 0 0 412.3958,20.8333" fill="url(#g15cphszi395fo1)" style="stroke:#246BAA;stroke-width:1.0417;"/><path d="M554.2717,16.6667 L554.2717,25 A2.0833,2.0833 0 0 0 556.3551,27.0833 L564.6884,27.0833 L554.2717,16.6667" fill="url(#g15cphszi395fo1)" style="stroke:#246BAA;stroke-width:1.0417;"/><text fill="#FFFFFF" font-family="Verdana" font-size="12.5" lengthAdjust="spacing" textLength="120.0009" x="423.8542" y="40.4459">&#36523;&#20307;&#30340;(&#30142;&#24739;&#12289;&#22806;&#20663;&#31561;)</text><text fill="#FFFFFF" font-family="Verdana" font-size="12.5" lengthAdjust="spacing" textLength="37.5003" x="423.8542" y="57.471">&#24515;&#29702;&#30340;</text><text fill="#FFFFFF" font-family="Verdana" font-size="12.5" lengthAdjust="spacing" textLength="37.5003" x="423.8542" y="74.4962">&#31038;&#20250;&#30340;</text></g><!--entity depression--><g class="entity" data-entity="depression" data-source-line="53" data-uid="ent0036" id="entity_depression"><rect fill="url(#g15cphszi395fo0)" height="174.8508" rx="20.8333" ry="20.8333" style="stroke:#304D6D;stroke-width:2.0833;" width="131.2508" x="567.7083" y="776.1354"/><text fill="#FFFFFF" font-family="Verdana" font-size="16.6667" font-weight="bold" lengthAdjust="spacing" textLength="50.0001" x="583.3333" y="809.5771">&#12358;&#12388;&#30149;</text><line style="stroke:#304D6D;stroke-width:1.0417;" x1="568.75" x2="697.9174" y1="819.6688" y2="819.6688"/><line style="stroke:#304D6D;stroke-width:1.0417;" x1="568.75" x2="697.9174" y1="821.7521" y2="821.7521"/><text fill="#FFFFFF" font-family="Verdana" font-size="12.5" lengthAdjust="spacing" textLength="75.0006" x="583.3333" y="842.4064">&#30333;&#36074;&#20307;&#31309;&#28187;&#23569;</text><text fill="#FFFFFF" font-family="Verdana" font-size="12.5" lengthAdjust="spacing" textLength="75.0006" x="583.3333" y="859.4315">&#28023;&#39340;&#20307;&#31309;&#28187;&#23569;</text><text fill="#FFFFFF" font-family="Verdana" font-size="12.5" lengthAdjust="spacing" textLength="87.5007" x="583.3333" y="876.4566">&#25153;&#26691;&#20307;&#20307;&#31309;&#28187;&#23569;</text><text fill="#FFFFFF" font-family="Verdana" font-size="12.5" lengthAdjust="spacing" textLength="100.0008" x="583.3333" y="893.4817">&#21069;&#38957;&#21069;&#37326;&#20307;&#31309;&#28187;&#23569;</text><text fill="#FFFFFF" font-family="Verdana" font-size="12.5" lengthAdjust="spacing" textLength="100.0008" x="583.3333" y="910.5069">&#31070;&#32076;&#20253;&#36948;&#29289;&#36074;&#19981;&#35519;</text><text fill="#FFFFFF" font-family="Verdana" font-size="12.5" lengthAdjust="spacing" textLength="62.5005" x="583.3333" y="927.532">&#33075;&#34880;&#27969;&#30064;&#24120;</text></g><!--link stress to microglia--><g class="link" data-entity-1="stress" data-entity-2="microglia" data-source-line="22" data-uid="lnk12" id="link_stress_microglia"><path d="M315.5313,77.0938 C297.2708,98.6146 274.3974,125.5778 256.1578,147.0778" fill="none" id="stress-to-microglia" style="stroke:#446E9B;stroke-width:3.125;"/><polygon fill="#446E9B" points="252.1146,151.8438,261.3568,147.3903,255.484,147.8721,255.0021,141.9993,252.1146,151.8438" style="stroke:#446E9B;stroke-width:3.125;"/></g><!--link microglia to Cytokine--><g class="link" data-entity-1="microglia" data-entity-2="Cytokine" data-source-line="23" data-uid="lnk13" id="link_microglia_Cytokine"><path d="M233.6354,200.8333 C234.6875,219.3438 235.791,238.7809 236.8431,257.2809" fill="none" id="microglia-to-Cytokine" style="stroke:#446E9B;stroke-width:3.125;"/><polygon fill="#446E9B" points="237.1979,263.5208,240.8256,253.9244,236.9022,258.3209,232.5057,254.3975,237.1979,263.5208" style="stroke:#446E9B;stroke-width:3.125;"/></g><!--link stress to cortisol--><g class="link" data-entity-1="stress" data-entity-2="cortisol" data-source-line="28" data-uid="lnk16" id="link_stress_cortisol"><path d="M351.6979,76.8854 C382.9583,121.5 447.5067,213.611 478.913,258.4235" fill="none" id="stress-to-cortisol" style="stroke:#446E9B;stroke-width:3.125;"/><polygon fill="#446E9B" points="482.5,263.5417,480.5316,253.473,479.5108,259.2765,473.7074,258.2557,482.5,263.5417" style="stroke:#446E9B;stroke-width:3.125;"/></g><!--link Cytokine to cortisol--><g class="link" data-entity-1="Cytokine" data-entity-2="cortisol" data-source-line="29" data-uid="lnk17" id="link_Cytokine_cortisol"><path d="M322.9688,303.9375 C359.6354,307.5208 390.1099,307.6396 426.7765,302.6187" fill="none" id="Cytokine-to-cortisol" style="stroke:#446E9B;stroke-width:3.125;"/><polygon fill="#446E9B" points="432.9688,301.7708,423.1152,298.9146,427.8086,302.4774,424.2457,307.1708,432.9688,301.7708" style="stroke:#446E9B;stroke-width:3.125;"/></g><!--link Cytokine to BDNF--><g class="link" data-entity-1="Cytokine" data-entity-2="BDNF" data-source-line="38" data-uid="lnk24" id="link_Cytokine_BDNF"><path d="M283.1771,312.5729 C330.0625,337.2292 397.8428,372.8731 444.7074,397.5085" fill="none" id="Cytokine-to-BDNF" style="stroke:#446E9B;stroke-width:3.125;"/><polygon fill="#446E9B" points="450.2396,400.4167,443.88,392.3663,445.6294,397.9932,440.0025,399.7426,450.2396,400.4167" style="stroke:#446E9B;stroke-width:3.125;"/></g><!--link cortisol to BDNF--><g class="link" data-entity-1="cortisol" data-entity-2="BDNF" data-source-line="39" data-uid="lnk25" id="link_cortisol_BDNF"><path d="M498.2292,312.5729 C497.4688,337.3125 496.4637,369.7634 495.7032,394.3988" fill="none" id="cortisol-to-BDNF" style="stroke:#446E9B;stroke-width:3.125;"/><polygon fill="#446E9B" points="495.5104,400.6458,499.9643,391.4038,495.6711,395.44,491.635,391.1467,495.5104,400.6458" style="stroke:#446E9B;stroke-width:3.125;"/></g><!--link BDNF to Nrf2--><g class="link" data-entity-1="BDNF" data-entity-2="Nrf2" data-source-line="40" data-uid="lnk26" id="link_BDNF_Nrf2"><path d="M467.7188,449.3646 C444.0938,469.8021 414.7354,495.211 391.1312,515.6485" fill="none" id="BDNF-to-Nrf2" style="stroke:#446E9B;stroke-width:3.125;"/><polygon fill="#446E9B" points="386.4063,519.7396,396.2211,516.7529,390.3437,516.3303,390.7663,510.453,386.4063,519.7396" style="stroke:#446E9B;stroke-width:3.125;"/></g><!--link BDNF to synapse--><g class="link" data-entity-1="BDNF" data-entity-2="synapse" data-source-line="41" data-uid="lnk27" id="link_BDNF_synapse"><path d="M493.9583,449.3646 C493.2292,469.8021 492.4103,493.0561 491.6812,513.4936" fill="none" id="BDNF-to-synapse" style="stroke:#446E9B;stroke-width:3.125;"/><polygon fill="#446E9B" points="491.4583,519.7396,495.9566,510.5191,491.644,514.5346,487.6286,510.222,491.4583,519.7396" style="stroke:#446E9B;stroke-width:3.125;"/></g><!--link BDNF to Neurogenesis--><g class="link" data-entity-1="BDNF" data-entity-2="Neurogenesis" data-source-line="42" data-uid="lnk28" id="link_BDNF_Neurogenesis"><path d="M540.0417,443.9792 C590.9063,464.2708 667.8304,494.9651 723.7263,517.2672" fill="none" id="BDNF-to-Neurogenesis" style="stroke:#446E9B;stroke-width:3.125;"/><polygon fill="#446E9B" points="729.5313,519.5833,722.3679,512.2391,724.6938,517.6532,719.2797,519.9791,729.5313,519.5833" style="stroke:#446E9B;stroke-width:3.125;"/></g><!--link BDNF to apoptosis--><g class="link" data-entity-1="BDNF" data-entity-2="apoptosis" data-source-line="43" data-uid="lnk29" id="link_BDNF_apoptosis"><path d="M522.4896,449.3646 C543.5,467.1354 567.8219,487.7136 590.9365,507.2657" fill="none" id="BDNF-to-apoptosis" style="stroke:#446E9B;stroke-width:3.125;"/><polygon fill="#446E9B" points="595.7083,511.3021,591.2415,502.0663,591.7318,507.9384,585.8597,508.4287,595.7083,511.3021" style="stroke:#446E9B;stroke-width:3.125;"/></g><!--reverse link microglia to Nrf2--><g class="link" data-entity-1="microglia" data-entity-2="Nrf2" data-source-line="44" data-uid="lnk31" id="link_microglia_Nrf2"><path d="M328.3585,196.0081 C335.4731,200.1852 336.5,202.2292 341.6667,208.7188 C415.8646,302 382.5833,460.3229 366.3854,519.7083" fill="none" id="microglia-backto-Nrf2" style="stroke:#446E9B;stroke-width:3.125;"/><polygon fill="#446E9B" points="322.9688,192.8438,328.9437,201.1835,327.4602,195.4807,333.1629,193.9972,322.9688,192.8438" style="stroke:#446E9B;stroke-width:3.125;"/></g><!--link synapse to serotonin--><g class="link" data-entity-1="synapse" data-entity-2="serotonin" data-source-line="49" data-uid="lnk34" id="link_synapse_serotonin"><path d="M490.625,568.5521 C490.625,595.1875 490.625,632.25 490.625,658.8854" fill="none" id="synapse-to-serotonin" style="stroke:#446E9B;stroke-width:3.125;"/><polygon fill="#446E9B" points="490.625,665.1354,494.7917,655.7604,490.625,659.9271,486.4583,655.7604,490.625,665.1354" style="stroke:#446E9B;stroke-width:3.125;"/></g><!--link Cytokine to serotonin--><g class="link" data-entity-1="Cytokine" data-entity-2="serotonin" data-source-line="50" data-uid="lnk35" id="link_Cytokine_serotonin"><path d="M236.5,312.4375 C232.8542,368.7083 231.2708,513.7083 301.0417,601.8229 C333.0521,642.25 382.1433,662.8529 424.7267,674.6446" fill="none" id="Cytokine-to-serotonin" style="stroke:#446E9B;stroke-width:3.125;"/><polygon fill="#446E9B" points="430.75,676.3125,422.8269,669.7951,425.7306,674.9226,420.6031,677.8262,430.75,676.3125" style="stroke:#446E9B;stroke-width:3.125;"/></g><!--link serotonin to depression--><g class="link" data-entity-1="serotonin" data-entity-2="depression" data-source-line="63" data-uid="lnk37" id="link_serotonin_depression"><path d="M510.1667,714.0938 C525.0521,732.0313 542.478,753.0337 563.2801,778.1066" fill="none" id="serotonin-to-depression" style="stroke:#446E9B;stroke-width:3.125;"/><polygon fill="#446E9B" points="567.2708,782.9167,564.4914,773.0411,563.9452,778.9083,558.078,778.3621,567.2708,782.9167" style="stroke:#446E9B;stroke-width:3.125;"/></g><!--link Neurogenesis to depression--><g class="link" data-entity-1="Neurogenesis" data-entity-2="depression" data-source-line="64" data-uid="lnk38" id="link_Neurogenesis_depression"><path d="M777.125,568.5417 C756.0521,611.625 712.8088,700.042 678.4755,770.2295" fill="none" id="Neurogenesis-to-depression" style="stroke:#446E9B;stroke-width:3.125;"/><polygon fill="#446E9B" points="675.7292,775.8438,683.5915,769.2532,678.0178,771.1652,676.1058,765.5914,675.7292,775.8438" style="stroke:#446E9B;stroke-width:3.125;"/></g><!--link apoptosis to depression--><g class="link" data-entity-1="apoptosis" data-entity-2="depression" data-source-line="65" data-uid="lnk39" id="link_apoptosis_depression"><path d="M633.3333,577.0938 C633.3333,623.1354 633.3333,703.7083 633.3333,769.5521" fill="none" id="apoptosis-to-depression" style="stroke:#446E9B;stroke-width:3.125;"/><polygon fill="#446E9B" points="633.3333,775.8021,637.5,766.4271,633.3333,770.5938,629.1667,766.4271,633.3333,775.8021" style="stroke:#446E9B;stroke-width:3.125;"/></g><!--SRC=[TLJ1Jjj043tRNx5mQNk8L5MzjeTIzSWFj3sOP0bMd5tBTeHGXHHxAMc01AhIqD82XQQj20GYXOX0GlYOZRt9NtJNBewTXXoisPdPcVVUJ5PwCAKRIZgh04rPmZaBG2qZIrFM0in2OEfA4chAN69nGRMWB9aP5UcAeMJ1d9BCf0sSGwaPh643M8Q2UBO1aHLDCs3IKb1QW-2TB4d_yWq43V3qiImjox8qofYcpXKb7oWvvSOqK4nWMWOqJLb2s8B0KDCBlBOqk3xfttnYkoiFMQNdEJzftdQh5TUvPFNY8nvtRmdRMkLnRhDghz_TzMs8Ka3KYRTal_PPQuCvPRPJyF9_-fspGUrqEW0R0KOEg7DEIPqw3Kfgr3bY5uq1sQVscNVHuVVSZOeFEAic3PpML2L-FwnFdHPrgeAaS-8RJM-xvnQk_SipInRcmd6P0y8Qd1TyfU2skrboRx_pSqY4ooS52e542Y-YnFDe_z0CWs7zCT6Rb9nGObEdHqcNs_U9y7zYUytxKl2n9x5XgIRM9e4QnUuGW8G_p6XimbJSpVDXVlN-gRnuEVkgVrFkjzTz2E8OJvWrvfz44iHndD8b9MkKxF256soLMViiMBibfEWc79jXi2d-tBrAWsqVUErlRkDZK1hckDWGGLCrnriSKRBdhtLNj7Ektg1OgNh7hw3eMBUmVtqvAXJNA21sfrJ49RwXoW6xc2la4K-COOs58Y14EP38wR6bYYyEuSpAFhy3liZtRar7_6y4_tMHDHg72GriOQIYO6S2h2FiesXCZ94_2YO5TR5oAaRWDU__351xbTfLjlDUdFXFl0LVRmRDcdWwZal1wBZJQrqEVv-EEuksTqYuSypl5al37tNnBPJ7Gi58-zszeRtDYiUYKRiqgDsAzsgbEJZCUosRVMwuxROilUNGGneXuH45BdvaH1CJma5DYFu5]--></g></svg>