<svg xmlns="http://www.w3.org/2000/svg" xmlns:xlink="http://www.w3.org/1999/xlink" contentStyleType="text/css" data-diagram-type="DESCRIPTION" height="1055px" preserveAspectRatio="none" style="width:729px;height:1055px;background:#FFFFFF;" version="1.1" viewBox="0 0 729 1055" width="729px" zoomAndPan="magnify"><defs/><g><rect fill="none" height="175.5438" rx="20" ry="20" style="stroke:#000000;stroke-width:1;" width="310.9993" x="272.788" y="97.2719"/><text fill="#000000" font-family="sans-serif" font-size="14" font-weight="bold" lengthAdjust="spacing" textLength="97.9996" x="379.2878" y="115.5118">&#31070;&#32076;&#28814;&#30151;&#24615;&#20206;&#35500;</text><rect fill="none" height="95.2719" rx="20" ry="20" style="stroke:#000000;stroke-width:1;" width="161.9995" x="189.7881" y="322.8157"/><text fill="#000000" font-family="sans-serif" font-size="14" font-weight="bold" lengthAdjust="spacing" textLength="111.9995" x="214.7881" y="341.0557">&#12467;&#12523;&#12481;&#12478;&#12540;&#12523;&#20206;&#35500;</text><rect fill="none" height="215.8157" rx="20" ry="20" style="stroke:#000000;stroke-width:1;" width="505.8726" x="206.5604" y="468.0876"/><text fill="#000000" font-family="sans-serif" font-size="14" font-weight="bold" lengthAdjust="spacing" textLength="97.9996" x="410.4969" y="486.3276">&#31070;&#32076;&#21487;&#36870;&#24615;&#20206;&#35500;</text><rect fill="none" height="95.2719" rx="20" ry="20" style="stroke:#000000;stroke-width:1;" width="147.9996" x="531.4335" y="733.9034"/><text fill="#000000" font-family="sans-serif" font-size="14" font-weight="bold" lengthAdjust="spacing" textLength="97.9996" x="556.4335" y="752.1433">&#12514;&#12494;&#12450;&#12511;&#12531;&#20206;&#35500;</text><!--entity microglia--><g class="entity" data-entity="microglia" data-source-line="14" data-uid="ent0007" id="entity_microglia"><rect fill="#F1F1F1" height="40.2719" rx="20" ry="20" style="stroke:#181818;stroke-width:0.5;" width="187.9993" x="287.788" y="137.2719"/><text fill="#000000" font-family="sans-serif" font-size="14" lengthAdjust="spacing" textLength="167.9993" x="297.788" y="163.5118">&#12511;&#12463;&#12525;&#12464;&#12522;&#12450;&#32048;&#32990;&#12398;&#27963;&#24615;&#21270;</text></g><!--entity Cytokine--><g class="entity" data-entity="Cytokine" data-source-line="15" data-uid="ent0008" id="entity_Cytokine"><rect fill="#F1F1F1" height="40.2719" rx="20" ry="20" style="stroke:#181818;stroke-width:0.5;" width="173.9993" x="323.7878" y="217.5438"/><text fill="#000000" font-family="sans-serif" font-size="14" lengthAdjust="spacing" textLength="153.9993" x="333.7878" y="243.7838">&#28814;&#30151;&#24615;&#12469;&#12452;&#12488;&#12459;&#12452;&#12531;&#25918;&#20986;</text></g><g class="entity" data-entity="GMN9" data-source-line="17" data-uid="ent0010" id="entity_GMN9"><path d="M495.7872,148.7198 L495.7872,177.5438 L568.7873,177.5438 L568.7873,158.7198 L558.7873,148.7198 L495.7872,148.7198" fill="#FEFFDD" style="stroke:#181818;stroke-width:0.5;"/><path d="M558.7873,148.7198 L558.7873,158.7198 L568.7873,158.7198 L558.7873,148.7198" fill="#FEFFDD" style="stroke:#181818;stroke-width:1;"/><text fill="#000000" font-family="sans-serif" font-size="13" lengthAdjust="spacing" textLength="52.0001" x="501.7872" y="168.7998">&#28814;&#30151;&#21453;&#24540;</text></g><!--entity cortisol--><g class="entity" data-entity="cortisol" data-source-line="24" data-uid="ent0015" id="entity_cortisol"><rect fill="#F1F1F1" height="40.2719" rx="20" ry="20" style="stroke:#181818;stroke-width:0.5;" width="131.9995" x="204.7881" y="362.8157"/><text fill="#000000" font-family="sans-serif" font-size="14" lengthAdjust="spacing" textLength="111.9995" x="214.7881" y="389.0557">&#12467;&#12523;&#12481;&#12478;&#12540;&#12523;&#19978;&#26119;</text></g><!--entity BDNF--><g class="entity" data-entity="BDNF" data-source-line="30" data-uid="ent0019" id="entity_BDNF"><rect fill="#F1F1F1" height="40.2719" rx="20" ry="20" style="stroke:#181818;stroke-width:0.5;" width="84.6797" x="242.5613" y="508.0876"/><text fill="#000000" font-family="sans-serif" font-size="14" lengthAdjust="spacing" textLength="64.6797" x="252.5613" y="534.3276">BDNF&#20302;&#19979;</text></g><!--entity Nrf2--><g class="entity" data-entity="Nrf2" data-source-line="31" data-uid="ent0020" id="entity_Nrf2"><rect fill="#F1F1F1" height="40.2719" rx="20" ry="20" style="stroke:#181818;stroke-width:0.5;" width="75.8738" x="221.5604" y="618.4955"/><text fill="#000000" font-family="sans-serif" font-size="14" lengthAdjust="spacing" textLength="55.8738" x="231.5604" y="644.7354">Nrf2&#20302;&#19979;</text></g><!--entity synapse--><g class="entity" data-entity="synapse" data-source-line="32" data-uid="ent0021" id="entity_synapse"><rect fill="#F1F1F1" height="40.2719" rx="20" ry="20" style="stroke:#181818;stroke-width:0.5;" width="103.9996" x="593.4333" y="618.4955"/><text fill="#000000" font-family="sans-serif" font-size="14" lengthAdjust="spacing" textLength="83.9996" x="603.4333" y="644.7354">&#12471;&#12490;&#12503;&#12473;&#33806;&#32302;</text></g><!--entity Neurogenesis--><g class="entity" data-entity="Neurogenesis" data-source-line="33" data-uid="ent0022" id="entity_Neurogenesis"><rect fill="#F1F1F1" height="40.2719" rx="20" ry="20" style="stroke:#181818;stroke-width:0.5;" width="131.9995" x="441.4338" y="618.4955"/><text fill="#000000" font-family="sans-serif" font-size="14" lengthAdjust="spacing" textLength="111.9995" x="451.4338" y="644.7354">&#31070;&#32076;&#32048;&#32990;&#26032;&#29983;&#28187;&#23569;</text></g><!--entity apoptosis--><g class="entity" data-entity="apoptosis" data-source-line="34" data-uid="ent0023" id="entity_apoptosis"><rect fill="#F1F1F1" height="60.5438" rx="20" ry="20" style="stroke:#181818;stroke-width:0.5;" width="103.9996" x="317.4341" y="608.3596"/><text fill="#000000" font-family="sans-serif" font-size="14" lengthAdjust="spacing" textLength="83.9996" x="327.4341" y="634.5995">&#12450;&#12509;&#12488;&#12540;&#12471;&#12473;</text><text fill="#000000" font-family="sans-serif" font-size="14" lengthAdjust="spacing" textLength="69.9997" x="327.4341" y="654.8714">&#31070;&#32076;&#32048;&#32990;&#27515;</text></g><!--entity serotonin--><g class="entity" data-entity="serotonin" data-source-line="45" data-uid="ent0032" id="entity_serotonin"><rect fill="#F1F1F1" height="40.2719" rx="20" ry="20" style="stroke:#181818;stroke-width:0.5;" width="117.9996" x="546.4335" y="773.9034"/><text fill="#000000" font-family="sans-serif" font-size="14" lengthAdjust="spacing" textLength="97.9996" x="556.4335" y="800.1433">&#12475;&#12525;&#12488;&#12491;&#12531;&#20302;&#19979;</text></g><!--entity stress--><g class="entity" data-entity="stress" data-source-line="6" data-uid="ent0002" id="entity_stress"><rect fill="#F1F1F1" height="40.2719" rx="20" ry="20" style="stroke:#181818;stroke-width:0.5;" width="75.9998" x="210.7881" y="12"/><text fill="#000000" font-family="sans-serif" font-size="14" lengthAdjust="spacing" textLength="55.9998" x="220.7881" y="38.2399">&#12473;&#12488;&#12524;&#12473;</text></g><g class="entity" data-entity="GMN3" data-source-line="8" data-uid="ent0004" id="entity_GMN3"><path d="M12,97.2719 L12,163.744 L158.7881,163.744 L158.7881,107.2719 L148.7881,97.2719 L12,97.2719" fill="#FEFFDD" style="stroke:#181818;stroke-width:0.5;"/><path d="M148.7881,97.2719 L148.7881,107.2719 L158.7881,107.2719 L148.7881,97.2719" fill="#FEFFDD" style="stroke:#181818;stroke-width:1;"/><text fill="#000000" font-family="sans-serif" font-size="13" lengthAdjust="spacing" textLength="125.7881" x="18" y="117.3519">&#36523;&#20307;&#30340;(&#30142;&#24739;&#12289;&#22806;&#20663;&#31561;)</text><text fill="#000000" font-family="sans-serif" font-size="13" lengthAdjust="spacing" textLength="39" x="18" y="136.1759">&#24515;&#29702;&#30340;</text><text fill="#000000" font-family="sans-serif" font-size="13" lengthAdjust="spacing" textLength="39" x="18" y="155">&#31038;&#20250;&#30340;</text></g><!--entity depression--><g class="entity" data-entity="depression" data-source-line="51" data-uid="ent0035" id="entity_depression"><rect fill="#F1F1F1" height="175.6953" rx="20" ry="20" style="stroke:#181818;stroke-width:0.5;" width="131.9995" x="441.4338" y="874.1753"/><text fill="#000000" font-family="sans-serif" font-size="18" font-weight="bold" lengthAdjust="spacing" textLength="53.9997" x="451.4338" y="905.0552">&#12358;&#12388;&#30149;</text><line style="stroke:#181818;stroke-width:1;" x1="442.4338" x2="572.4333" y1="910.2391" y2="910.2391"/><line style="stroke:#181818;stroke-width:1;" x1="442.4338" x2="572.4333" y1="912.2391" y2="912.2391"/><text fill="#000000" font-family="sans-serif" font-size="14" lengthAdjust="spacing" textLength="83.9996" x="451.4338" y="930.4791">&#30333;&#36074;&#20307;&#31309;&#28187;&#23569;</text><text fill="#000000" font-family="sans-serif" font-size="14" lengthAdjust="spacing" textLength="83.9996" x="451.4338" y="950.751">&#28023;&#39340;&#20307;&#31309;&#28187;&#23569;</text><text fill="#000000" font-family="sans-serif" font-size="14" lengthAdjust="spacing" textLength="97.9996" x="451.4338" y="971.0229">&#25153;&#26691;&#20307;&#20307;&#31309;&#28187;&#23569;</text><text fill="#000000" font-family="sans-serif" font-size="14" lengthAdjust="spacing" textLength="111.9995" x="451.4338" y="991.2948">&#21069;&#38957;&#21069;&#37326;&#20307;&#31309;&#28187;&#23569;</text><text fill="#000000" font-family="sans-serif" font-size="14" lengthAdjust="spacing" textLength="111.9995" x="451.4338" y="1011.5667">&#31070;&#32076;&#20253;&#36948;&#29289;&#36074;&#19981;&#35519;</text><text fill="#000000" font-family="sans-serif" font-size="14" lengthAdjust="spacing" textLength="69.9997" x="451.4338" y="1031.8386">&#33075;&#34880;&#27969;&#30064;&#24120;</text></g><line style="stroke:#181818;stroke-width:1;stroke-dasharray:7.0,7.0;" x1="229.788" x2="229.788" y1="52.2719" y2="62.2719"/><line style="stroke:#181818;stroke-width:1;stroke-dasharray:7.0,7.0;" x1="229.788" x2="85.3941" y1="62.2719" y2="62.2719"/><line style="stroke:#181818;stroke-width:1;stroke-dasharray:7.0,7.0;" x1="85.3941" x2="85.3941" y1="62.2719" y2="97.2719"/><line style="stroke:#181818;stroke-width:1;stroke-dasharray:7.0,7.0;" x1="532.2873" x2="532.2873" y1="177.5438" y2="207.5438"/><line style="stroke:#181818;stroke-width:1;stroke-dasharray:7.0,7.0;" x1="532.2873" x2="439.7874" y1="207.5438" y2="207.5438"/><line style="stroke:#181818;stroke-width:1;stroke-dasharray:7.0,7.0;" x1="439.7874" x2="439.7874" y1="207.5438" y2="217.5438"/><line style="stroke:#181818;stroke-width:1;" x1="267.7879" x2="267.7879" y1="52.2719" y2="62.2719"/><line style="stroke:#181818;stroke-width:1;" x1="267.7879" x2="413.1208" y1="62.2719" y2="62.2719"/><line style="stroke:#181818;stroke-width:1;" x1="413.1208" x2="413.1208" y1="62.2719" y2="137.2719"/><polygon fill="#181818" points="413.1208,137.2719,417.1208,128.2719,413.1208,132.2719,409.1208,128.2719,413.1208,137.2719" style="stroke:#181818;stroke-width:1;"/><line style="stroke:#181818;stroke-width:1;" x1="381.7876" x2="381.7876" y1="177.5438" y2="217.5438"/><polygon fill="#181818" points="381.7876,217.5438,385.7876,208.5438,381.7876,212.5438,377.7876,208.5438,381.7876,217.5438" style="stroke:#181818;stroke-width:1;"/><line style="stroke:#181818;stroke-width:1;" x1="248.788" x2="248.788" y1="52.2719" y2="362.8157"/><polygon fill="#181818" points="248.788,362.8157,252.788,353.8157,248.788,357.8157,244.788,353.8157,248.788,362.8157" style="stroke:#181818;stroke-width:1;"/><line style="stroke:#181818;stroke-width:1;" x1="367.2877" x2="367.2877" y1="257.8157" y2="287.8157"/><line style="stroke:#181818;stroke-width:1;" x1="367.2877" x2="292.7878" y1="287.8157" y2="287.8157"/><line style="stroke:#181818;stroke-width:1;" x1="292.7878" x2="292.7878" y1="287.8157" y2="362.8157"/><polygon fill="#181818" points="292.7878,362.8157,296.7878,353.8157,292.7878,357.8157,288.7878,353.8157,292.7878,362.8157" style="stroke:#181818;stroke-width:1;"/><line style="stroke:#181818;stroke-width:1;" x1="410.7875" x2="410.7875" y1="257.8157" y2="453.0876"/><line style="stroke:#181818;stroke-width:1;" x1="410.7875" x2="299.0145" y1="453.0876" y2="453.0876"/><line style="stroke:#181818;stroke-width:1;" x1="299.0145" x2="299.0145" y1="453.0876" y2="508.0876"/><polygon fill="#181818" points="299.0145,508.0876,303.0145,499.0876,299.0145,503.0876,295.0145,499.0876,299.0145,508.0876" style="stroke:#181818;stroke-width:1;"/><line style="stroke:#181818;stroke-width:1;" x1="270.7879" x2="270.7879" y1="403.0876" y2="508.0876"/><polygon fill="#181818" points="270.7879,508.0876,274.7879,499.0876,270.7879,503.0876,266.7879,499.0876,270.7879,508.0876" style="stroke:#181818;stroke-width:1;"/><line style="stroke:#181818;stroke-width:1;" x1="259.4973" x2="259.4973" y1="548.3596" y2="618.4955"/><polygon fill="#181818" points="259.4973,618.4955,263.4973,609.4955,259.4973,613.4955,255.4973,609.4955,259.4973,618.4955" style="stroke:#181818;stroke-width:1;"/><line style="stroke:#181818;stroke-width:1;" x1="310.3051" x2="310.3051" y1="548.3596" y2="558.3596"/><line style="stroke:#181818;stroke-width:1;" x1="310.3051" x2="645.4331" y1="558.3596" y2="558.3596"/><line style="stroke:#181818;stroke-width:1;" x1="645.4331" x2="645.4331" y1="558.3596" y2="618.4955"/><polygon fill="#181818" points="645.4331,618.4955,649.4331,609.4955,645.4331,613.4955,641.4331,609.4955,645.4331,618.4955" style="stroke:#181818;stroke-width:1;"/><line style="stroke:#181818;stroke-width:1;" x1="293.3691" x2="293.3691" y1="548.3596" y2="568.3596"/><line style="stroke:#181818;stroke-width:1;" x1="293.3691" x2="507.4335" y1="568.3596" y2="568.3596"/><line style="stroke:#181818;stroke-width:1;" x1="507.4335" x2="507.4335" y1="568.3596" y2="618.4955"/><polygon fill="#181818" points="507.4335,618.4955,511.4335,609.4955,507.4335,613.4955,503.4335,609.4955,507.4335,618.4955" style="stroke:#181818;stroke-width:1;"/><line style="stroke:#181818;stroke-width:1;" x1="276.4332" x2="276.4332" y1="548.3596" y2="578.3596"/><line style="stroke:#181818;stroke-width:1;" x1="276.4332" x2="369.434" y1="578.3596" y2="578.3596"/><line style="stroke:#181818;stroke-width:1;" x1="369.434" x2="369.434" y1="578.3596" y2="608.3596"/><polygon fill="#181818" points="369.434,608.3596,373.434,599.3596,369.434,603.3596,365.434,599.3596,369.434,608.3596" style="stroke:#181818;stroke-width:1;"/><line style="stroke:#181818;stroke-width:1;" x1="259.4973" x2="259.4973" y1="658.7674" y2="698.9034"/><line style="stroke:#181818;stroke-width:1;" x1="259.4973" x2="168.7881" y1="698.9034" y2="698.9034"/><line style="stroke:#181818;stroke-width:1;" x1="168.7881" x2="168.7881" y1="698.9034" y2="82.2719"/><line style="stroke:#181818;stroke-width:1;" x1="168.7881" x2="350.4544" y1="82.2719" y2="82.2719"/><line style="stroke:#181818;stroke-width:1;" x1="350.4544" x2="350.4544" y1="82.2719" y2="137.2719"/><polygon fill="#181818" points="350.4544,137.2719,354.4544,128.2719,350.4544,132.2719,346.4544,128.2719,350.4544,137.2719" style="stroke:#181818;stroke-width:1;"/><line style="stroke:#181818;stroke-width:1;" x1="645.4331" x2="645.4331" y1="658.7674" y2="698.9034"/><line style="stroke:#181818;stroke-width:1;" x1="645.4331" x2="585.7667" y1="698.9034" y2="698.9034"/><line style="stroke:#181818;stroke-width:1;" x1="585.7667" x2="585.7667" y1="698.9034" y2="773.9034"/><polygon fill="#181818" points="585.7667,773.9034,589.7667,764.9034,585.7667,768.9034,581.7667,764.9034,585.7667,773.9034" style="stroke:#181818;stroke-width:1;"/><line style="stroke:#181818;stroke-width:1;" x1="454.2873" x2="454.2873" y1="257.8157" y2="287.8157"/><line style="stroke:#181818;stroke-width:1;" x1="454.2873" x2="722.4329" y1="287.8157" y2="287.8157"/><line style="stroke:#181818;stroke-width:1;" x1="722.4329" x2="722.4329" y1="287.8157" y2="718.9034"/><line style="stroke:#181818;stroke-width:1;" x1="722.4329" x2="625.0999" y1="718.9034" y2="718.9034"/><line style="stroke:#181818;stroke-width:1;" x1="625.0999" x2="625.0999" y1="718.9034" y2="773.9034"/><polygon fill="#181818" points="625.0999,773.9034,629.0999,764.9034,625.0999,768.9034,621.0999,764.9034,625.0999,773.9034" style="stroke:#181818;stroke-width:1;"/><line style="stroke:#181818;stroke-width:1;" x1="605.4333" x2="605.4333" y1="814.1753" y2="864.1753"/><line style="stroke:#181818;stroke-width:1;" x1="605.4333" x2="540.4334" y1="864.1753" y2="864.1753"/><line style="stroke:#181818;stroke-width:1;" x1="540.4334" x2="540.4334" y1="864.1753" y2="874.1753"/><polygon fill="#181818" points="540.4334,874.1753,544.4334,865.1753,540.4334,869.1753,536.4334,865.1753,540.4334,874.1753" style="stroke:#181818;stroke-width:1;"/><line style="stroke:#181818;stroke-width:1;" x1="507.4335" x2="507.4335" y1="658.7674" y2="874.1753"/><polygon fill="#181818" points="507.4335,874.1753,511.4335,865.1753,507.4335,869.1753,503.4335,865.1753,507.4335,874.1753" style="stroke:#181818;stroke-width:1;"/><line style="stroke:#181818;stroke-width:1;" x1="369.434" x2="369.434" y1="668.9034" y2="698.9034"/><line style="stroke:#181818;stroke-width:1;" x1="369.434" x2="474.4337" y1="698.9034" y2="698.9034"/><line style="stroke:#181818;stroke-width:1;" x1="474.4337" x2="474.4337" y1="698.9034" y2="874.1753"/><polygon fill="#181818" points="474.4337,874.1753,478.4337,865.1753,474.4337,869.1753,470.4337,865.1753,474.4337,874.1753" style="stroke:#181818;stroke-width:1;"/><!--SRC=[TLHDJnD163xl_egHanv8ZF6g1p4U-GFgOKE7kg7CDBjB334atHsa5cZ1Y4LHGB1gA1IQb8Q5bl9Zfhkp_HVEp8RzelImcNa_d-Tvtuxoe6Xe-NaD5BH5l601M9XJ5NDEHqNDqEQ10MSi3UKB47nG5SN02oWtXGq43V3qiQeigQeIHqnGvvAIJvISyCC4q4nWMWOqJLL1s8B0qFFlB5uak3eUNdzXEyiFMNtWExzfoVOQTS-vOAtA8-xtRWZRNE5-VcQDmR2_8yyGvO2easx9_konxZfpQcoxx9V-3NkdGVDa8WIR04RsgND6IOiwRKgQr3bav-s0x57xr3_lyJnllIu1p-ip1iuNT2sT7zMdJfSw3K7IEPQ7ZhyryCfNCdbgqS9SECXp9U42d1LybJ3RswXwDp_vFIB2vLD2XS1a3hz7ay-J_QDZv8pgPqJlK79CYKsT0ILzVhvFXBk1xgh_hIonps33qarS60SgzjqY09Doc4dVcAbu6sUZqihzKtdnSlhLyBesTDSa175D1qmRiqyI0UAQfNH1oIebstpXWiqQSq_3jLj4Mj64cHc6coBdxjVRR6lVTtzuxSzXQRZ0nOO8chgPRN58oQvSwxvevro-GQbIhPwie1LnqS8oVIaf5DSe97QhLC8alf7A8RkKAUAH3anXJRaI84GvsIfUgVJQ4Cwh9jdjypM-TsTwubyZsA-9g7WO9ZImXP6Emeq9aSR8OsyinHrV4b0E5iNIwHY1rnp3Cq3j5MetsFP7SUC_yHfylmuwJV5u75N3uN6ZtxqO_Jt96YksVq2uCMFtAjNHhvRubciPLpZKONztP6-nof5ev5Q3veruiPOxmK79xzhiQzjpNLLvow57D29YCGKkVs98OmEYKOtn_WS0]--></g></svg>