<?xml version="1.0" encoding="UTF-8" standalone="no"?>
<!DOCTYPE svg PUBLIC "-//W3C//DTD SVG 1.1//EN"
 "http://www.w3.org/Graphics/SVG/1.1/DTD/svg11.dtd">
<!-- Generated by graphviz version 12.2.1 (20241206.2353)
 -->
<!-- Title: sample Pages: 1 -->
<svg width="231pt" height="185pt"
 viewBox="0.00 0.00 231.00 185.01" xmlns="http://www.w3.org/2000/svg" xmlns:xlink="http://www.w3.org/1999/xlink">
<g id="graph0" class="graph" transform="scale(1 1) rotate(0) translate(4 181.01)">
<title>sample</title>
<polygon fill="white" stroke="none" points="-4,4 -4,-181.01 227,-181.01 227,4 -4,4"/>
<g id="clust1" class="cluster">
<title>cluster_our</title>
<polygon fill="lightgray" stroke="black" points="8,-8 8,-89 215,-89 215,-8 8,-8"/>
<text text-anchor="start" x="97.25" y="-72.7" font-family="Times,serif" font-weight="bold" font-size="14.00">弊社</text>
</g>
<!-- cust -->
<g id="node1" class="node">
<title>cust</title>
<ellipse fill="none" stroke="black" cx="111" cy="-156.51" rx="41.54" ry="20.51"/>
<text text-anchor="middle" x="111" y="-153.71" font-family="Times,serif" font-size="14.00">お客様</text>
</g>
<!-- eigyou -->
<g id="node2" class="node">
<title>eigyou</title>
<polygon fill="white" stroke="black" points="74.38,-52 15.62,-52 15.62,-16 74.38,-16 74.38,-52"/>
<text text-anchor="middle" x="45" y="-31.2" font-family="Times,serif" font-size="14.00">営業部</text>
</g>
<!-- cust&#45;&gt;eigyou -->
<g id="edge2" class="edge">
<title>cust&#45;&gt;eigyou</title>
<path fill="none" stroke="black" d="M100.54,-136.41C89.62,-116.47 72.39,-85.02 60.02,-62.43"/>
<polygon fill="black" stroke="black" points="63.15,-60.86 55.28,-53.77 57.01,-64.22 63.15,-60.86"/>
<text text-anchor="middle" x="103.9" y="-104.7" font-family="Times,serif" font-size="14.00">発注</text>
</g>
<!-- dev -->
<g id="node3" class="node">
<title>dev</title>
<polygon fill="white" stroke="black" points="207.38,-52 148.62,-52 148.62,-16 207.38,-16 207.38,-52"/>
<text text-anchor="middle" x="178" y="-31.2" font-family="Times,serif" font-size="14.00">開発部</text>
</g>
<!-- eigyou&#45;&gt;dev -->
<g id="edge1" class="edge">
<title>eigyou&#45;&gt;dev</title>
<path fill="none" stroke="black" d="M74.85,-34C93.16,-34 116.86,-34 136.93,-34"/>
<polygon fill="black" stroke="black" points="136.74,-37.5 146.74,-34 136.74,-30.5 136.74,-37.5"/>
<text text-anchor="middle" x="111.5" y="-44.7" font-family="Times,serif" font-size="14.00">開発依頼</text>
</g>
<!-- dev&#45;&gt;cust -->
<g id="edge3" class="edge">
<title>dev&#45;&gt;cust</title>
<path fill="none" stroke="black" d="M168.3,-52.44C157.54,-71.8 139.99,-103.36 127.15,-126.47"/>
<polygon fill="black" stroke="black" points="124.15,-124.65 122.35,-135.09 130.27,-128.05 124.15,-124.65"/>
<text text-anchor="middle" x="156.74" y="-104.7" font-family="Times,serif" font-size="14.00">納品</text>
</g>
</g>
</svg>
