<svg xmlns="http://www.w3.org/2000/svg" xmlns:xlink="http://www.w3.org/1999/xlink" contentStyleType="text/css" data-diagram-type="WBS" height="749px" preserveAspectRatio="none" style="width:390px;height:749px;background:#FFFFFF;" version="1.1" viewBox="0 0 390 749" width="390px" zoomAndPan="magnify"><defs/><g><line style="stroke:#181818;stroke-width:1.5;" x1="67.2623" x2="67.2623" y1="66.3441" y2="86.3441"/><rect fill="#F1F1F1" height="36.3441" style="stroke:#181818;stroke-width:1.5;" width="114.5247" x="10" y="86.3441"/><text fill="#000000" font-family="sans-serif" font-size="12" lengthAdjust="spacing" textLength="94.5247" x="20" y="109.1722">Current Member</text><line style="stroke:#181818;stroke-width:1.5;" x1="67.2623" x2="77.2623" y1="155.8603" y2="155.8603"/><rect fill="#F1F1F1" height="36.3441" style="stroke:#181818;stroke-width:1.5;" width="60.1163" x="77.2623" y="137.6882"/><text fill="#000000" font-family="sans-serif" font-size="12" lengthAdjust="spacing" textLength="40.1163" x="87.2623" y="160.5163">Takapii</text><line style="stroke:#181818;stroke-width:1.5;" x1="107.3205" x2="117.3205" y1="207.2044" y2="207.2044"/><rect fill="#F1F1F1" height="36.3441" style="stroke:#181818;stroke-width:1.5;" width="50.0482" x="117.3205" y="189.0323"/><text fill="#000000" font-family="sans-serif" font-size="12" lengthAdjust="spacing" textLength="30.0482" x="127.3205" y="211.8604">Vocal</text><line style="stroke:#181818;stroke-width:1.5;" x1="107.3205" x2="107.3205" y1="174.0323" y2="207.2044"/><line style="stroke:#181818;stroke-width:1.5;" x1="67.2623" x2="77.2623" y1="258.5485" y2="258.5485"/><rect fill="#F1F1F1" height="36.3441" style="stroke:#181818;stroke-width:1.5;" width="47.5402" x="77.2623" y="240.3765"/><text fill="#000000" font-family="sans-serif" font-size="12" lengthAdjust="spacing" textLength="27.5402" x="87.2623" y="263.2045">Syun</text><line style="stroke:#181818;stroke-width:1.5;" x1="101.0324" x2="111.0324" y1="309.8926" y2="309.8926"/><rect fill="#F1F1F1" height="36.3441" style="stroke:#181818;stroke-width:1.5;" width="55.2682" x="111.0324" y="291.7206"/><text fill="#000000" font-family="sans-serif" font-size="12" lengthAdjust="spacing" textLength="35.2682" x="121.0324" y="314.5487">Guitar</text><line style="stroke:#181818;stroke-width:1.5;" x1="101.0324" x2="101.0324" y1="276.7206" y2="309.8926"/><line style="stroke:#181818;stroke-width:1.5;" x1="67.2623" x2="77.2623" y1="361.2367" y2="361.2367"/><rect fill="#F1F1F1" height="36.3441" style="stroke:#181818;stroke-width:1.5;" width="60.6923" x="77.2623" y="343.0647"/><text fill="#000000" font-family="sans-serif" font-size="12" lengthAdjust="spacing" textLength="40.6923" x="87.2623" y="365.8928">Michee</text><line style="stroke:#181818;stroke-width:1.5;" x1="107.6085" x2="117.6085" y1="412.5809" y2="412.5809"/><rect fill="#F1F1F1" height="36.3441" style="stroke:#181818;stroke-width:1.5;" width="50.0482" x="117.6085" y="394.4088"/><text fill="#000000" font-family="sans-serif" font-size="12" lengthAdjust="spacing" textLength="30.0482" x="127.6085" y="417.2369">Vocal</text><line style="stroke:#181818;stroke-width:1.5;" x1="107.6085" x2="117.6085" y1="463.925" y2="463.925"/><rect fill="#F1F1F1" height="36.3441" style="stroke:#181818;stroke-width:1.5;" width="74.0244" x="117.6085" y="445.7529"/><text fill="#000000" font-family="sans-serif" font-size="12" lengthAdjust="spacing" textLength="54.0244" x="127.6085" y="468.581">Keyboard</text><line style="stroke:#181818;stroke-width:1.5;" x1="107.6085" x2="107.6085" y1="379.4088" y2="463.925"/><line style="stroke:#181818;stroke-width:1.5;" x1="67.2623" x2="77.2623" y1="515.2691" y2="515.2691"/><rect fill="#F1F1F1" height="36.3441" style="stroke:#181818;stroke-width:1.5;" width="50.9362" x="77.2623" y="497.097"/><text fill="#000000" font-family="sans-serif" font-size="12" lengthAdjust="spacing" textLength="30.9362" x="87.2623" y="519.9251">Tetsu</text><line style="stroke:#181818;stroke-width:1.5;" x1="102.7305" x2="112.7305" y1="566.6132" y2="566.6132"/><rect fill="#F1F1F1" height="36.3441" style="stroke:#181818;stroke-width:1.5;" width="50.0482" x="112.7305" y="548.4411"/><text fill="#000000" font-family="sans-serif" font-size="12" lengthAdjust="spacing" textLength="30.0482" x="122.7305" y="571.2692">Vocal</text><line style="stroke:#181818;stroke-width:1.5;" x1="102.7305" x2="112.7305" y1="617.9573" y2="617.9573"/><rect fill="#F1F1F1" height="36.3441" style="stroke:#181818;stroke-width:1.5;" width="46.0282" x="112.7305" y="599.7853"/><text fill="#000000" font-family="sans-serif" font-size="12" lengthAdjust="spacing" textLength="26.0282" x="122.7305" y="622.6133">Bass</text><line style="stroke:#181818;stroke-width:1.5;" x1="102.7305" x2="102.7305" y1="533.4411" y2="617.9573"/><line style="stroke:#181818;stroke-width:1.5;" x1="67.2623" x2="77.2623" y1="669.3014" y2="669.3014"/><rect fill="#F1F1F1" height="36.3441" style="stroke:#181818;stroke-width:1.5;" width="47.7562" x="77.2623" y="651.1294"/><text fill="#000000" font-family="sans-serif" font-size="12" lengthAdjust="spacing" textLength="27.7562" x="87.2623" y="673.9575">Toku</text><line style="stroke:#181818;stroke-width:1.5;" x1="101.1404" x2="111.1404" y1="720.6455" y2="720.6455"/><rect fill="#F1F1F1" height="36.3441" style="stroke:#181818;stroke-width:1.5;" width="58.1003" x="111.1404" y="702.4735"/><text fill="#000000" font-family="sans-serif" font-size="12" lengthAdjust="spacing" textLength="38.1003" x="121.1404" y="725.3016">Drums</text><line style="stroke:#181818;stroke-width:1.5;" x1="101.1404" x2="101.1404" y1="687.4735" y2="720.6455"/><line style="stroke:#181818;stroke-width:1.5;" x1="67.2623" x2="67.2623" y1="122.6882" y2="669.3014"/><line style="stroke:#181818;stroke-width:1.5;" x1="259.2171" x2="259.2171" y1="66.3441" y2="86.3441"/><rect fill="#F1F1F1" height="36.3441" style="stroke:#181818;stroke-width:1.5;" width="95.1685" x="211.6329" y="86.3441"/><text fill="#000000" font-family="sans-serif" font-size="12" lengthAdjust="spacing" textLength="75.1685" x="221.6329" y="109.1722">Past Member</text><line style="stroke:#181818;stroke-width:1.5;" x1="259.2171" x2="269.2171" y1="155.8603" y2="155.8603"/><rect fill="#F1F1F1" height="36.3441" style="stroke:#181818;stroke-width:1.5;" width="41.6122" x="269.2171" y="137.6882"/><text fill="#000000" font-family="sans-serif" font-size="12" lengthAdjust="spacing" textLength="21.6122" x="279.2171" y="160.5163">Ken</text><line style="stroke:#181818;stroke-width:1.5;" x1="290.0232" x2="300.0232" y1="207.2044" y2="207.2044"/><rect fill="#F1F1F1" height="36.3441" style="stroke:#181818;stroke-width:1.5;" width="50.0482" x="300.0232" y="189.0323"/><text fill="#000000" font-family="sans-serif" font-size="12" lengthAdjust="spacing" textLength="30.0482" x="310.0232" y="211.8604">Vocal</text><line style="stroke:#181818;stroke-width:1.5;" x1="290.0232" x2="300.0232" y1="258.5485" y2="258.5485"/><rect fill="#F1F1F1" height="36.3441" style="stroke:#181818;stroke-width:1.5;" width="55.2682" x="300.0232" y="240.3765"/><text fill="#000000" font-family="sans-serif" font-size="12" lengthAdjust="spacing" textLength="35.2682" x="310.0232" y="263.2045">Guitar</text><line style="stroke:#181818;stroke-width:1.5;" x1="290.0232" x2="300.0232" y1="309.8926" y2="309.8926"/><rect fill="#F1F1F1" height="36.3441" style="stroke:#181818;stroke-width:1.5;" width="46.0282" x="300.0232" y="291.7206"/><text fill="#000000" font-family="sans-serif" font-size="12" lengthAdjust="spacing" textLength="26.0282" x="310.0232" y="314.5487">Bass</text><line style="stroke:#181818;stroke-width:1.5;" x1="290.0232" x2="300.0232" y1="361.2367" y2="361.2367"/><rect fill="#F1F1F1" height="36.3441" style="stroke:#181818;stroke-width:1.5;" width="58.1003" x="300.0232" y="343.0647"/><text fill="#000000" font-family="sans-serif" font-size="12" lengthAdjust="spacing" textLength="38.1003" x="310.0232" y="365.8928">Drums</text><line style="stroke:#181818;stroke-width:1.5;" x1="290.0232" x2="290.0232" y1="174.0323" y2="361.2367"/><line style="stroke:#181818;stroke-width:1.5;" x1="259.2171" x2="269.2171" y1="412.5809" y2="412.5809"/><rect fill="#F1F1F1" height="36.3441" style="stroke:#181818;stroke-width:1.5;" width="83.8645" x="269.2171" y="394.4088"/><text fill="#000000" font-family="sans-serif" font-size="12" lengthAdjust="spacing" textLength="63.8645" x="279.2171" y="417.2369">OrzBruford</text><line style="stroke:#181818;stroke-width:1.5;" x1="311.1494" x2="321.1494" y1="463.925" y2="463.925"/><rect fill="#F1F1F1" height="36.3441" style="stroke:#181818;stroke-width:1.5;" width="58.1003" x="321.1494" y="445.7529"/><text fill="#000000" font-family="sans-serif" font-size="12" lengthAdjust="spacing" textLength="38.1003" x="331.1494" y="468.581">Drums</text><line style="stroke:#181818;stroke-width:1.5;" x1="311.1494" x2="311.1494" y1="430.7529" y2="463.925"/><line style="stroke:#181818;stroke-width:1.5;" x1="259.2171" x2="259.2171" y1="122.6882" y2="412.5809"/><line style="stroke:#181818;stroke-width:1.5;" x1="67.2623" x2="259.2171" y1="66.3441" y2="66.3441"/><rect fill="#F1F1F1" height="36.3441" style="stroke:#181818;stroke-width:1.5;" width="100.2325" x="113.1235" y="10"/><text fill="#000000" font-family="sans-serif" font-size="12" lengthAdjust="spacing" textLength="80.2325" x="123.1235" y="32.8281">Instant Karma</text><line style="stroke:#181818;stroke-width:1.5;" x1="163.2397" x2="163.2397" y1="46.3441" y2="66.3441"/><!--SRC=[PP11Qy9048Nl-olcg86AZLWa9r5RQJHKQapFasIqYybkcTrDiR- -6wD8wstclPcFnviQYso_SoC2U5L-KHPMo3MA882vOoOl95Jdn5u98CKZVadPpW5aki3gB6zFJdNQqabFF8k9B3w9_fq6iA9Jhf7BZaVMkBkJ6HhJsVfuSHViQYFQL1iqVoAjIDq1RYbki2kZdTxuPyPkhxiKLsTAgcoh49lAzx1Brj0G6waLF0x2OJWUXBqFAY561SC93CDeD8v6Jn1lKsZjlkWjD-ic1ACT5mIbD9Pbxgmdz4MC3SAxKrRM5C6I4QiikGhmh1h9MjM-RX5dIGHRb_jlj0HP8XQqHrTPVrNeKgf31BlqvM4YrgWE3W-UfrnLYRdsD3vrsoy0]--></g></svg>