<svg xmlns="http://www.w3.org/2000/svg" xmlns:xlink="http://www.w3.org/1999/xlink" contentStyleType="text/css" data-diagram-type="WBS" height="1211px" preserveAspectRatio="none" style="width:221px;height:1211px;background:#FFFFFF;" version="1.1" viewBox="0 0 221 1211" width="221px" zoomAndPan="magnify"><defs/><g><line style="stroke:#181818;stroke-width:1.5;" x1="43.9882" x2="43.9882" y1="66.3441" y2="86.3441"/><rect fill="#F1F1F1" height="36.3441" style="stroke:#181818;stroke-width:1.5;" width="67.9763" x="10" y="86.3441"/><text fill="#000000" font-family="sans-serif" font-size="12" lengthAdjust="spacing" textLength="47.9763" x="20" y="109.1722">Member</text><line style="stroke:#181818;stroke-width:1.5;" x1="43.9882" x2="53.9882" y1="155.8603" y2="155.8603"/><rect fill="#F1F1F1" height="36.3441" style="stroke:#181818;stroke-width:1.5;" width="63.4283" x="53.9882" y="137.6882"/><text fill="#000000" font-family="sans-serif" font-size="12" lengthAdjust="spacing" textLength="43.4283" x="63.9882" y="160.5163">Current</text><line style="stroke:#181818;stroke-width:1.5;" x1="85.7023" x2="95.7023" y1="207.2044" y2="207.2044"/><rect fill="#F1F1F1" height="36.3441" style="stroke:#181818;stroke-width:1.5;" width="60.1163" x="95.7023" y="189.0323"/><text fill="#000000" font-family="sans-serif" font-size="12" lengthAdjust="spacing" textLength="40.1163" x="105.7023" y="211.8604">Takapii</text><line style="stroke:#181818;stroke-width:1.5;" x1="125.7605" x2="135.7605" y1="258.5485" y2="258.5485"/><rect fill="#F1F1F1" height="36.3441" style="stroke:#181818;stroke-width:1.5;" width="50.0482" x="135.7605" y="240.3765"/><text fill="#000000" font-family="sans-serif" font-size="12" lengthAdjust="spacing" textLength="30.0482" x="145.7605" y="263.2045">Vocal</text><line style="stroke:#181818;stroke-width:1.5;" x1="125.7605" x2="125.7605" y1="225.3765" y2="258.5485"/><line style="stroke:#181818;stroke-width:1.5;" x1="85.7023" x2="95.7023" y1="309.8926" y2="309.8926"/><rect fill="#F1F1F1" height="36.3441" style="stroke:#181818;stroke-width:1.5;" width="47.5402" x="95.7023" y="291.7206"/><text fill="#000000" font-family="sans-serif" font-size="12" lengthAdjust="spacing" textLength="27.5402" x="105.7023" y="314.5487">Syun</text><line style="stroke:#181818;stroke-width:1.5;" x1="119.4724" x2="129.4724" y1="361.2367" y2="361.2367"/><rect fill="#F1F1F1" height="36.3441" style="stroke:#181818;stroke-width:1.5;" width="55.2682" x="129.4724" y="343.0647"/><text fill="#000000" font-family="sans-serif" font-size="12" lengthAdjust="spacing" textLength="35.2682" x="139.4724" y="365.8928">Guitar</text><line style="stroke:#181818;stroke-width:1.5;" x1="119.4724" x2="119.4724" y1="328.0647" y2="361.2367"/><line style="stroke:#181818;stroke-width:1.5;" x1="85.7023" x2="95.7023" y1="412.5809" y2="412.5809"/><rect fill="#F1F1F1" height="36.3441" style="stroke:#181818;stroke-width:1.5;" width="60.6923" x="95.7023" y="394.4088"/><text fill="#000000" font-family="sans-serif" font-size="12" lengthAdjust="spacing" textLength="40.6923" x="105.7023" y="417.2369">Michee</text><line style="stroke:#181818;stroke-width:1.5;" x1="126.0485" x2="136.0485" y1="463.925" y2="463.925"/><rect fill="#F1F1F1" height="36.3441" style="stroke:#181818;stroke-width:1.5;" width="50.0482" x="136.0485" y="445.7529"/><text fill="#000000" font-family="sans-serif" font-size="12" lengthAdjust="spacing" textLength="30.0482" x="146.0485" y="468.581">Vocal</text><line style="stroke:#181818;stroke-width:1.5;" x1="126.0485" x2="136.0485" y1="515.2691" y2="515.2691"/><rect fill="#F1F1F1" height="36.3441" style="stroke:#181818;stroke-width:1.5;" width="74.0244" x="136.0485" y="497.097"/><text fill="#000000" font-family="sans-serif" font-size="12" lengthAdjust="spacing" textLength="54.0244" x="146.0485" y="519.9251">Keyboard</text><line style="stroke:#181818;stroke-width:1.5;" x1="126.0485" x2="126.0485" y1="430.7529" y2="515.2691"/><line style="stroke:#181818;stroke-width:1.5;" x1="85.7023" x2="95.7023" y1="566.6132" y2="566.6132"/><rect fill="#F1F1F1" height="36.3441" style="stroke:#181818;stroke-width:1.5;" width="50.9362" x="95.7023" y="548.4411"/><text fill="#000000" font-family="sans-serif" font-size="12" lengthAdjust="spacing" textLength="30.9362" x="105.7023" y="571.2692">Tetsu</text><line style="stroke:#181818;stroke-width:1.5;" x1="121.1704" x2="131.1704" y1="617.9573" y2="617.9573"/><rect fill="#F1F1F1" height="36.3441" style="stroke:#181818;stroke-width:1.5;" width="50.0482" x="131.1704" y="599.7853"/><text fill="#000000" font-family="sans-serif" font-size="12" lengthAdjust="spacing" textLength="30.0482" x="141.1704" y="622.6133">Vocal</text><line style="stroke:#181818;stroke-width:1.5;" x1="121.1704" x2="131.1704" y1="669.3014" y2="669.3014"/><rect fill="#F1F1F1" height="36.3441" style="stroke:#181818;stroke-width:1.5;" width="46.0282" x="131.1704" y="651.1294"/><text fill="#000000" font-family="sans-serif" font-size="12" lengthAdjust="spacing" textLength="26.0282" x="141.1704" y="673.9575">Bass</text><line style="stroke:#181818;stroke-width:1.5;" x1="121.1704" x2="121.1704" y1="584.7853" y2="669.3014"/><line style="stroke:#181818;stroke-width:1.5;" x1="85.7023" x2="95.7023" y1="720.6455" y2="720.6455"/><rect fill="#F1F1F1" height="36.3441" style="stroke:#181818;stroke-width:1.5;" width="47.7562" x="95.7023" y="702.4735"/><text fill="#000000" font-family="sans-serif" font-size="12" lengthAdjust="spacing" textLength="27.7562" x="105.7023" y="725.3016">Toku</text><line style="stroke:#181818;stroke-width:1.5;" x1="119.5804" x2="129.5804" y1="771.9897" y2="771.9897"/><rect fill="#F1F1F1" height="36.3441" style="stroke:#181818;stroke-width:1.5;" width="58.1003" x="129.5804" y="753.8176"/><text fill="#000000" font-family="sans-serif" font-size="12" lengthAdjust="spacing" textLength="38.1003" x="139.5804" y="776.6457">Drums</text><line style="stroke:#181818;stroke-width:1.5;" x1="119.5804" x2="119.5804" y1="738.8176" y2="771.9897"/><line style="stroke:#181818;stroke-width:1.5;" x1="85.7023" x2="85.7023" y1="174.0323" y2="720.6455"/><line style="stroke:#181818;stroke-width:1.5;" x1="43.9882" x2="53.9882" y1="823.3338" y2="823.3338"/><rect fill="#F1F1F1" height="36.3441" style="stroke:#181818;stroke-width:1.5;" width="44.0722" x="53.9882" y="805.1617"/><text fill="#000000" font-family="sans-serif" font-size="12" lengthAdjust="spacing" textLength="24.0722" x="63.9882" y="827.9898">Past</text><line style="stroke:#181818;stroke-width:1.5;" x1="76.0243" x2="86.0243" y1="874.6779" y2="874.6779"/><rect fill="#F1F1F1" height="36.3441" style="stroke:#181818;stroke-width:1.5;" width="41.6122" x="86.0243" y="856.5058"/><text fill="#000000" font-family="sans-serif" font-size="12" lengthAdjust="spacing" textLength="21.6122" x="96.0243" y="879.3339">Ken</text><line style="stroke:#181818;stroke-width:1.5;" x1="106.8303" x2="116.8303" y1="926.022" y2="926.022"/><rect fill="#F1F1F1" height="36.3441" style="stroke:#181818;stroke-width:1.5;" width="50.0482" x="116.8303" y="907.8499"/><text fill="#000000" font-family="sans-serif" font-size="12" lengthAdjust="spacing" textLength="30.0482" x="126.8303" y="930.678">Vocal</text><line style="stroke:#181818;stroke-width:1.5;" x1="106.8303" x2="116.8303" y1="977.3661" y2="977.3661"/><rect fill="#F1F1F1" height="36.3441" style="stroke:#181818;stroke-width:1.5;" width="55.2682" x="116.8303" y="959.1941"/><text fill="#000000" font-family="sans-serif" font-size="12" lengthAdjust="spacing" textLength="35.2682" x="126.8303" y="982.0221">Guitar</text><line style="stroke:#181818;stroke-width:1.5;" x1="106.8303" x2="116.8303" y1="1028.7102" y2="1028.7102"/><rect fill="#F1F1F1" height="36.3441" style="stroke:#181818;stroke-width:1.5;" width="46.0282" x="116.8303" y="1010.5382"/><text fill="#000000" font-family="sans-serif" font-size="12" lengthAdjust="spacing" textLength="26.0282" x="126.8303" y="1033.3663">Bass</text><line style="stroke:#181818;stroke-width:1.5;" x1="106.8303" x2="116.8303" y1="1080.0543" y2="1080.0543"/><rect fill="#F1F1F1" height="36.3441" style="stroke:#181818;stroke-width:1.5;" width="58.1003" x="116.8303" y="1061.8823"/><text fill="#000000" font-family="sans-serif" font-size="12" lengthAdjust="spacing" textLength="38.1003" x="126.8303" y="1084.7104">Drums</text><line style="stroke:#181818;stroke-width:1.5;" x1="106.8303" x2="106.8303" y1="892.8499" y2="1080.0543"/><line style="stroke:#181818;stroke-width:1.5;" x1="76.0243" x2="86.0243" y1="1131.3985" y2="1131.3985"/><rect fill="#F1F1F1" height="36.3441" style="stroke:#181818;stroke-width:1.5;" width="83.8645" x="86.0243" y="1113.2264"/><text fill="#000000" font-family="sans-serif" font-size="12" lengthAdjust="spacing" textLength="63.8645" x="96.0243" y="1136.0545">OrzBruford</text><line style="stroke:#181818;stroke-width:1.5;" x1="127.9565" x2="137.9565" y1="1182.7426" y2="1182.7426"/><rect fill="#F1F1F1" height="36.3441" style="stroke:#181818;stroke-width:1.5;" width="58.1003" x="137.9565" y="1164.5705"/><text fill="#000000" font-family="sans-serif" font-size="12" lengthAdjust="spacing" textLength="38.1003" x="147.9565" y="1187.3986">Drums</text><line style="stroke:#181818;stroke-width:1.5;" x1="127.9565" x2="127.9565" y1="1149.5705" y2="1182.7426"/><line style="stroke:#181818;stroke-width:1.5;" x1="76.0243" x2="76.0243" y1="841.5058" y2="1131.3985"/><line style="stroke:#181818;stroke-width:1.5;" x1="43.9882" x2="43.9882" y1="122.6882" y2="823.3338"/><line style="stroke:#181818;stroke-width:1.5;" x1="43.9882" x2="110.0364" y1="66.3441" y2="66.3441"/><rect fill="#F1F1F1" height="36.3441" style="stroke:#181818;stroke-width:1.5;" width="100.2325" x="59.9202" y="10"/><text fill="#000000" font-family="sans-serif" font-size="12" lengthAdjust="spacing" textLength="80.2325" x="69.9202" y="32.8281">Instant Karma</text><line style="stroke:#181818;stroke-width:1.5;" x1="110.0364" x2="110.0364" y1="46.3441" y2="66.3441"/><!--SRC=[RP11Qy9048Nl-olcg86AZLWa9r5RQJHKggRdIJBQnMItpEwcs5_VZIOWwEtDcpSVZvaQYsn_CoC2U5T-K1PMo1MA8824gepOgm3cZfcKRNG0EppXZvIN8O1KvrXU5zkpKwsxTDAJhtOYys-YktW0Apfd6hbeiMIDUv2QeJ5jGf-wm89TPSIbsmPDMsn5wi7zJPKRM8Uuo0_-cx4xwBPAjvkIAfhVY4tf7xDFrb0J6waLF0_2OJWUXBqlAY161SC93CDeD8v6Bn1lTz2i-wAttAph48nsd1CKqbYMcREUq1SnrWYVJbbPKGHBHYpJf3FWLTMIjQgQfyTf4i7MPVuQBK6QY0KTq9NMft9TI7MCOBzxUvg8DQgZmwFdALUMOguzZS_NwHy0]--></g></svg>