<svg xmlns="http://www.w3.org/2000/svg" xmlns:xlink="http://www.w3.org/1999/xlink" contentStyleType="text/css" data-diagram-type="DESCRIPTION" height="646px" preserveAspectRatio="none" style="width:654px;height:646px;background:#FFFFFF;" version="1.1" viewBox="0 0 654 646" width="654px" zoomAndPan="magnify"><defs/><g><!--entity Stress--><g class="entity" data-entity="Stress" data-source-line="3" data-uid="ent0002" id="entity_Stress"><rect fill="#F1F1F1" height="39.0679" rx="2.5" ry="2.5" style="stroke:#181818;stroke-width:0.5;" width="75.9998" x="105" y="7"/><text fill="#000000" font-family="sans-serif" font-size="14" lengthAdjust="spacing" textLength="55.9998" x="115" y="31.9659">&#12473;&#12488;&#12524;&#12473;</text></g><!--entity Cortisol--><g class="entity" data-entity="Cortisol" data-source-line="4" data-uid="ent0003" id="entity_Cortisol"><rect fill="#F1F1F1" height="39.0679" rx="2.5" ry="2.5" style="stroke:#181818;stroke-width:0.5;" width="131.9995" x="7" y="205.14"/><text fill="#000000" font-family="sans-serif" font-size="14" lengthAdjust="spacing" textLength="111.9995" x="17" y="230.1059">&#12467;&#12523;&#12481;&#12478;&#12540;&#12523;&#19978;&#26119;</text></g><!--entity Cytokine--><g class="entity" data-entity="Cytokine" data-source-line="5" data-uid="ent0004" id="entity_Cytokine"><rect fill="#F1F1F1" height="39.0679" rx="2.5" ry="2.5" style="stroke:#181818;stroke-width:0.5;" width="173.9993" x="126" y="106.07"/><text fill="#000000" font-family="sans-serif" font-size="14" lengthAdjust="spacing" textLength="153.9993" x="136" y="131.0359">&#28814;&#30151;&#24615;&#12469;&#12452;&#12488;&#12459;&#12452;&#12531;&#19978;&#26119;</text></g><!--entity BDNF--><g class="entity" data-entity="BDNF" data-source-line="6" data-uid="ent0005" id="entity_BDNF"><rect fill="#F1F1F1" height="39.0679" rx="2.5" ry="2.5" style="stroke:#181818;stroke-width:0.5;" width="85.2257" x="245.39" y="304.21"/><text fill="#000000" font-family="sans-serif" font-size="14" lengthAdjust="spacing" textLength="65.2257" x="255.39" y="329.1759">BDNF&#28187;&#23569;</text></g><!--entity Nrf2--><g class="entity" data-entity="Nrf2" data-source-line="7" data-uid="ent0006" id="entity_Nrf2"><rect fill="#F1F1F1" height="39.0679" rx="2.5" ry="2.5" style="stroke:#181818;stroke-width:0.5;" width="77.2458" x="119.38" y="403.28"/><text fill="#000000" font-family="sans-serif" font-size="14" lengthAdjust="spacing" textLength="57.2458" x="129.38" y="428.2459">Nrf2&#28187;&#23569;</text></g><!--entity DecreaseInNewGrowth--><g class="entity" data-entity="DecreaseInNewGrowth" data-source-line="8" data-uid="ent0007" id="entity_DecreaseInNewGrowth"><rect fill="#F1F1F1" height="39.0679" rx="2.5" ry="2.5" style="stroke:#181818;stroke-width:0.5;" width="145.9995" x="71" y="502.34"/><text fill="#000000" font-family="sans-serif" font-size="14" lengthAdjust="spacing" textLength="125.9995" x="81" y="527.3059">&#31070;&#32076;&#32048;&#32990;&#26032;&#29983;&#12398;&#28187;&#23569;</text></g><!--entity Synapse--><g class="entity" data-entity="Synapse" data-source-line="9" data-uid="ent0008" id="entity_Synapse"><rect fill="#F1F1F1" height="39.0679" rx="2.5" ry="2.5" style="stroke:#181818;stroke-width:0.5;" width="145.9995" x="374" y="403.28"/><text fill="#000000" font-family="sans-serif" font-size="14" lengthAdjust="spacing" textLength="125.9995" x="384" y="428.2459">&#12471;&#12490;&#12503;&#12473;&#21487;&#22609;&#24615;&#20302;&#19979;</text></g><!--entity Apoptosis--><g class="entity" data-entity="Apoptosis" data-source-line="10" data-uid="ent0009" id="entity_Apoptosis"><rect fill="#F1F1F1" height="39.0679" rx="2.5" ry="2.5" style="stroke:#181818;stroke-width:0.5;" width="173.9993" x="252" y="502.34"/><text fill="#000000" font-family="sans-serif" font-size="14" lengthAdjust="spacing" textLength="153.9993" x="262" y="527.3059">&#31070;&#32076;&#32048;&#32990;&#12398;&#12450;&#12509;&#12488;&#12540;&#12471;&#12473;</text></g><!--entity Serotonin--><g class="entity" data-entity="Serotonin" data-source-line="11" data-uid="ent0010" id="entity_Serotonin"><rect fill="#F1F1F1" height="39.0679" rx="2.5" ry="2.5" style="stroke:#181818;stroke-width:0.5;" width="187.9993" x="461" y="502.34"/><text fill="#000000" font-family="sans-serif" font-size="14" lengthAdjust="spacing" textLength="167.9993" x="471" y="527.3059">&#12475;&#12525;&#12488;&#12491;&#12531;&#31070;&#32076;&#20253;&#36948;&#12398;&#19981;&#35519;</text></g><!--entity Depression--><g class="entity" data-entity="Depression" data-source-line="12" data-uid="ent0011" id="entity_Depression"><rect fill="#F1F1F1" height="39.0679" rx="2.5" ry="2.5" style="stroke:#181818;stroke-width:0.5;" width="61.9998" x="308" y="601.41"/><text fill="#000000" font-family="sans-serif" font-size="14" lengthAdjust="spacing" textLength="41.9998" x="318" y="626.3759">&#12358;&#12388;&#30149;</text></g><g class="entity" data-entity="GMN27" data-source-line="33" data-uid="ent0028" id="entity_GMN27"><path d="M215.5,12.69 L215.5,22.54 L181.12,26.54 L215.5,30.54 L215.5,40.396 A0,0 0 0 0 215.5,40.396 L314.5001,40.396 A0,0 0 0 0 314.5001,40.396 L314.5001,22.69 L304.5001,12.69 L215.5,12.69 A0,0 0 0 0 215.5,12.69" fill="#FEFFDD" style="stroke:#181818;stroke-width:0.5;"/><path d="M304.5001,12.69 L304.5001,22.69 L314.5001,22.69 L304.5001,12.69" fill="#FEFFDD" style="stroke:#181818;stroke-width:0.5;"/><text fill="#000000" font-family="sans-serif" font-size="13" lengthAdjust="spacing" textLength="78.0001" x="221.5" y="31.587">&#12473;&#12488;&#12524;&#12473;&#35201;&#22240;</text></g><g class="entity" data-entity="GMN30" data-source-line="34" data-uid="ent0031" id="entity_GMN30"><path d="M334.5,111.75 L334.5,121.61 L300.33,125.61 L334.5,129.61 L334.5,139.456 A0,0 0 0 0 334.5,139.456 L407.5001,139.456 A0,0 0 0 0 407.5001,139.456 L407.5001,121.75 L397.5001,111.75 L334.5,111.75 A0,0 0 0 0 334.5,111.75" fill="#FEFFDD" style="stroke:#181818;stroke-width:0.5;"/><path d="M397.5001,111.75 L397.5001,121.75 L407.5001,121.75 L397.5001,111.75" fill="#FEFFDD" style="stroke:#181818;stroke-width:0.5;"/><text fill="#000000" font-family="sans-serif" font-size="13" lengthAdjust="spacing" textLength="52.0001" x="340.5" y="130.647">&#28814;&#30151;&#21453;&#24540;</text></g><!--link Stress to Cortisol--><g class="link" data-entity-1="Stress" data-entity-2="Cortisol" data-source-line="14" data-uid="lnk12" id="link_Stress_Cortisol"><path d="M134.15,46.34 C126.91,62.1 116.65,85.3 109,106.07 C96.38,140.34 86.1554,175.516 79.6954,198.936" fill="none" id="Stress-to-Cortisol" style="stroke:#181818;stroke-width:1;"/><polygon fill="#181818" points="78.1,204.72,84.3491,197.1076,79.4295,199.9,76.6371,194.9804,78.1,204.72" style="stroke:#181818;stroke-width:1;"/></g><!--link Stress to Cytokine--><g class="link" data-entity-1="Stress" data-entity-2="Cytokine" data-source-line="15" data-uid="lnk13" id="link_Stress_Cytokine"><path d="M156.5,46.25 C168.81,63.33 183.4209,83.5832 195.8009,100.7532" fill="none" id="Stress-to-Cytokine" style="stroke:#181818;stroke-width:1;"/><polygon fill="#181818" points="199.31,105.62,197.2909,95.9803,196.3857,101.5643,190.8018,100.6591,199.31,105.62" style="stroke:#181818;stroke-width:1;"/></g><!--link Cytokine to Cortisol--><g class="link" data-entity-1="Cytokine" data-entity-2="Cortisol" data-source-line="16" data-uid="lnk14" id="link_Cytokine_Cortisol"><path d="M185.67,145.55 C161.01,162.66 129.8302,184.2705 105.1902,201.3605" fill="none" id="Cytokine-to-Cortisol" style="stroke:#181818;stroke-width:1;"/><polygon fill="#181818" points="100.26,204.78,109.935,202.9375,104.3685,201.9304,105.3756,196.3639,100.26,204.78" style="stroke:#181818;stroke-width:1;"/></g><!--link Cortisol to BDNF--><g class="link" data-entity-1="Cortisol" data-entity-2="BDNF" data-source-line="17" data-uid="lnk15" id="link_Cortisol_BDNF"><path d="M114.96,244.62 C152.85,261.72 202.821,284.2921 240.671,301.3721" fill="none" id="Cortisol-to-BDNF" style="stroke:#181818;stroke-width:1;"/><polygon fill="#181818" points="246.14,303.84,239.5818,296.4922,241.5825,301.7834,236.2913,303.7841,246.14,303.84" style="stroke:#181818;stroke-width:1;"/></g><!--link Cytokine to BDNF--><g class="link" data-entity-1="Cytokine" data-entity-2="BDNF" data-source-line="18" data-uid="lnk16" id="link_Cytokine_BDNF"><path d="M220.19,145.41 C234.53,182.9 264.3666,260.9459 278.6866,298.3859" fill="none" id="Cytokine-to-BDNF" style="stroke:#181818;stroke-width:1;"/><polygon fill="#181818" points="280.83,303.99,281.3509,294.1549,279.0438,299.3199,273.8788,297.0128,280.83,303.99" style="stroke:#181818;stroke-width:1;"/></g><!--link BDNF to DecreaseInNewGrowth--><g class="link" data-entity-1="BDNF" data-entity-2="DecreaseInNewGrowth" data-source-line="19" data-uid="lnk17" id="link_BDNF_DecreaseInNewGrowth"><path d="M277.38,343.71 C263.77,367.5 238.94,409.18 214,442.34 C197.86,463.8 181.3143,482.1618 166.6243,497.6118" fill="none" id="BDNF-to-DecreaseInNewGrowth" style="stroke:#181818;stroke-width:1;"/><polygon fill="#181818" points="162.49,501.96,171.5903,498.1939,165.9353,498.3365,165.7927,492.6814,162.49,501.96" style="stroke:#181818;stroke-width:1;"/></g><!--link BDNF to Apoptosis--><g class="link" data-entity-1="BDNF" data-entity-2="Apoptosis" data-source-line="20" data-uid="lnk18" id="link_BDNF_Apoptosis"><path d="M292.89,343.55 C302.64,381.04 322.8808,458.8829 332.6108,496.3229" fill="none" id="BDNF-to-Apoptosis" style="stroke:#181818;stroke-width:1;"/><polygon fill="#181818" points="334.12,502.13,335.7277,492.4132,332.8624,497.2907,327.9849,494.4255,334.12,502.13" style="stroke:#181818;stroke-width:1;"/></g><!--link BDNF to Synapse--><g class="link" data-entity-1="BDNF" data-entity-2="Synapse" data-source-line="21" data-uid="lnk19" id="link_BDNF_Synapse"><path d="M319.03,343.69 C347.05,360.79 382.9291,382.6933 410.9191,399.7833" fill="none" id="BDNF-to-Synapse" style="stroke:#181818;stroke-width:1;"/><polygon fill="#181818" points="416.04,402.91,410.4431,394.806,411.7726,400.3044,406.2742,401.6339,416.04,402.91" style="stroke:#181818;stroke-width:1;"/></g><!--link BDNF to Nrf2--><g class="link" data-entity-1="BDNF" data-entity-2="Nrf2" data-source-line="23" data-uid="lnk20" id="link_BDNF_Nrf2"><path d="M262.63,343.69 C239.72,360.79 211.0078,382.2304 188.1178,399.3204" fill="none" id="BDNF-to-Nrf2" style="stroke:#181818;stroke-width:1;"/><polygon fill="#181818" points="183.31,402.91,192.9148,400.7308,187.3165,399.9187,188.1287,394.3204,183.31,402.91" style="stroke:#181818;stroke-width:1;"/></g><!--link Nrf2 to Cytokine--><g class="link" data-entity-1="Nrf2" data-entity-2="Cytokine" data-source-line="24" data-uid="lnk21" id="link_Nrf2_Cytokine"><path d="M161.49,403.05 C171.39,349.93 198.4404,204.7384 208.3804,151.4184" fill="none" id="Nrf2-to-Cytokine" style="stroke:#181818;stroke-width:1;"/><polygon fill="#181818" points="209.48,145.52,203.8984,153.6345,208.5637,150.4353,211.7629,155.1006,209.48,145.52" style="stroke:#181818;stroke-width:1;"/></g><!--link Synapse to Serotonin--><g class="link" data-entity-1="Synapse" data-entity-2="Serotonin" data-source-line="25" data-uid="lnk22" id="link_Synapse_Serotonin"><path d="M468.08,442.76 C487.11,459.86 510.498,480.8787 529.508,497.9687" fill="none" id="Synapse-to-Serotonin" style="stroke:#181818;stroke-width:1;"/><polygon fill="#181818" points="533.97,501.98,529.9512,492.9884,530.2517,498.6372,524.6028,498.9377,533.97,501.98" style="stroke:#181818;stroke-width:1;"/></g><!--link Cytokine to Serotonin--><g class="link" data-entity-1="Cytokine" data-entity-2="Serotonin" data-source-line="27" data-uid="lnk23" id="link_Cytokine_Serotonin"><path d="M248.79,145.52 C317.51,183.9 467.29,278.06 537,403.28 C554.48,434.68 556.6307,471.7212 556.1407,496.0812" fill="none" id="Cytokine-to-Serotonin" style="stroke:#181818;stroke-width:1;"/><polygon fill="#181818" points="556.02,502.08,560.2002,493.1623,556.1206,497.081,552.2018,493.0014,556.02,502.08" style="stroke:#181818;stroke-width:1;"/></g><!--link DecreaseInNewGrowth to Depression--><g class="link" data-entity-1="DecreaseInNewGrowth" data-entity-2="Depression" data-source-line="29" data-uid="lnk24" id="link_DecreaseInNewGrowth_Depression"><path d="M182.06,541.82 C218.75,560.09 268.2187,584.7161 302.4087,601.7361" fill="none" id="DecreaseInNewGrowth-to-Depression" style="stroke:#181818;stroke-width:1;"/><polygon fill="#181818" points="307.78,604.41,301.5057,596.8184,303.3039,602.1818,297.9405,603.9801,307.78,604.41" style="stroke:#181818;stroke-width:1;"/></g><!--link Serotonin to Depression--><g class="link" data-entity-1="Serotonin" data-entity-2="Depression" data-source-line="30" data-uid="lnk25" id="link_Serotonin_Depression"><path d="M512.84,541.82 C470.97,560.64 413.2325,586.5799 375.6825,603.4599" fill="none" id="Serotonin-to-Depression" style="stroke:#181818;stroke-width:1;"/><polygon fill="#181818" points="370.21,605.92,380.0588,605.8782,374.7704,603.8699,376.7787,598.5816,370.21,605.92" style="stroke:#181818;stroke-width:1;"/></g><!--link Apoptosis to Depression--><g class="link" data-entity-1="Apoptosis" data-entity-2="Depression" data-source-line="31" data-uid="lnk26" id="link_Apoptosis_Depression"><path d="M339,541.59 C339,558.67 339,577.79 339,594.96" fill="none" id="Apoptosis-to-Depression" style="stroke:#181818;stroke-width:1;"/><polygon fill="#181818" points="339,600.96,343,591.96,339,595.96,335,591.96,339,600.96" style="stroke:#181818;stroke-width:1;"/></g><!--SRC=[TLFBJW8n5Dtp5OqRLsvSiZ1HYSOD6xy0iSf4d4vccXXtJXiVKO6G4351yH7KH7oGg14ZoiVS6GR_mca7IeVefhazzzpNkRcKM8WIj48e9PjerR1nbXh4J2I4aJ7NynW1-m1-0FmXD536GSlKnewZ4IQ0lG1l0dU1VGFlXBRNFkoTxay8-ZongU6Gl1uGi69GtU_jt05x0zOGwLbJ6Yzwv3Ob6uQ9zSYvL7gXrwxvhRAaYA_kJjjhqvfRV6DrR-h1st7mskhpUk-a5LGkm7tI-2cSjN76mKjc6cyjscIBvk9plWC_15uDbV1Bp_vLEHp1-ofwxICPlhnjPYm7_rSnh0Ni6lYvbBCZih4F6JXh4OiInnXJzHFue-GUXS94cRpE-OzR2JDvxKB_lXkLnJQXn3HCVMdk7hYDeBeRZMM9bSczHjj3KrCpeytes53peH5d3Ws9Il5ZF8c8H_x-KbCvHoChQ2ZV95AGAgmGkLBnnDiTn4Pvb1xnxZJyZzO6BIkb57lSeJeVToHCGZ6oZVKSHMHjS2Se6JkW_gthrox7cAhB98ekmoyL_ExPBm00]--></g></svg>