<?xml version="1.0" encoding="UTF-8" standalone="no"?>
<!DOCTYPE svg PUBLIC "-//W3C//DTD SVG 1.1//EN"
 "http://www.w3.org/Graphics/SVG/1.1/DTD/svg11.dtd">
<!-- Generated by graphviz version 12.2.1 (20241206.2353)
 -->
<!-- Title: GSK Pages: 1 -->
<svg width="404pt" height="481pt"
 viewBox="0.00 0.00 404.15 481.15" xmlns="http://www.w3.org/2000/svg" xmlns:xlink="http://www.w3.org/1999/xlink">
<g id="graph0" class="graph" transform="scale(1 1) rotate(0) translate(4 477.15)">
<title>GSK</title>
<polygon fill="white" stroke="none" points="-4,4 -4,-477.15 400.15,-477.15 400.15,4 -4,4"/>
<!-- SSRI -->
<g id="node1" class="node">
<title>SSRI</title>
<path fill="lightblue" stroke="black" d="M160.75,-473.15C160.75,-473.15 12,-473.15 12,-473.15 6,-473.15 0,-467.15 0,-461.15 0,-461.15 0,-320.4 0,-320.4 0,-314.4 6,-308.4 12,-308.4 12,-308.4 160.75,-308.4 160.75,-308.4 166.75,-308.4 172.75,-314.4 172.75,-320.4 172.75,-320.4 172.75,-461.15 172.75,-461.15 172.75,-467.15 166.75,-473.15 160.75,-473.15"/>
<text text-anchor="middle" x="86.38" y="-455.85" font-family="Times,serif" font-size="14.00">SSRI</text>
<text text-anchor="middle" x="86.38" y="-438.6" font-family="Times,serif" font-size="14.00">SNRI</text>
<text text-anchor="middle" x="86.38" y="-421.35" font-family="Times,serif" font-size="14.00">第2世代抗精神病薬</text>
<text text-anchor="middle" x="86.38" y="-400.35" font-family="Times,serif" font-size="14.00">電気けいれん療法</text>
<text text-anchor="middle" x="86.38" y="-379.35" font-family="Times,serif" font-size="14.00">反復経頭蓋磁気刺激療法</text>
<text text-anchor="middle" x="86.38" y="-358.35" font-family="Times,serif" font-size="14.00">運動療法</text>
<text text-anchor="middle" x="86.38" y="-337.35" font-family="Times,serif" font-size="14.00">温熱療法</text>
<text text-anchor="middle" x="86.38" y="-316.35" font-family="Times,serif" font-size="14.00">etc...</text>
</g>
<!-- BDNF -->
<g id="node2" class="node">
<title>BDNF</title>
<ellipse fill="none" stroke="black" cx="261.38" cy="-390.78" rx="41.74" ry="18"/>
<text text-anchor="middle" x="261.38" y="-386.1" font-family="Times,serif" font-size="14.00">BDNF</text>
</g>
<!-- SSRI&#45;&gt;BDNF -->
<g id="edge1" class="edge">
<title>SSRI&#45;&gt;BDNF</title>
<path fill="none" stroke="black" d="M173.11,-390.78C185.1,-390.78 197.11,-390.78 208.24,-390.78"/>
<polygon fill="black" stroke="black" points="207.97,-394.28 217.97,-390.78 207.97,-387.28 207.97,-394.28"/>
<text text-anchor="middle" x="196.19" y="-401.48" font-family="Times,serif" font-size="14.00">誘導</text>
</g>
<!-- GSK3B -->
<g id="node3" class="node">
<title>GSK3B</title>
<ellipse fill="lightcoral" stroke="black" cx="206.38" cy="-230.9" rx="68.59" ry="20.51"/>
<text text-anchor="middle" x="206.38" y="-228.1" font-family="Helvetica,sans-Serif" font-weight="bold" font-size="14.00">ＧＳＫー３β</text>
</g>
<!-- BDNF&#45;&gt;GSK3B -->
<g id="edge2" class="edge">
<title>BDNF&#45;&gt;GSK3B</title>
<path fill="none" stroke="black" stroke-dasharray="5,2" d="M249.04,-373.27C235.75,-354.38 215.4,-321.97 207.12,-290.4 204.27,-279.5 203.75,-267.05 204.07,-256.45"/>
<polygon fill="black" stroke="black" points="199.24,-252.5 209.23,-252.93 209.14,-254.93 199.15,-254.5 199.24,-252.5"/>
<polyline fill="none" stroke="black" points="204.28,-251.72 204.06,-256.71"/>
<text text-anchor="middle" x="223.25" y="-277.1" font-family="Times,serif" font-size="14.00"> 抑制</text>
</g>
<!-- Apoptosis -->
<g id="node5" class="node">
<title>Apoptosis</title>
<polygon fill="black" stroke="black" points="388.15,-114 388.15,-132.39 349.04,-145.39 293.71,-145.39 254.6,-132.39 254.6,-114 293.71,-101 349.04,-101 388.15,-114"/>
<polygon fill="none" stroke="black" points="392.15,-111.12 392.15,-135.28 349.68,-149.39 293.07,-149.39 250.6,-135.28 250.6,-111.12 293.07,-97 349.68,-97 392.15,-111.12"/>
<polygon fill="none" stroke="black" points="396.15,-108.23 396.15,-138.16 350.33,-153.39 292.42,-153.39 246.6,-138.16 246.6,-108.23 292.42,-93 350.33,-93 396.15,-108.23"/>
<text text-anchor="middle" x="321.38" y="-120.4" font-family="Helvetica,sans-Serif" font-weight="bold" font-size="14.00" fill="white">神経細胞死</text>
</g>
<!-- BDNF&#45;&gt;Apoptosis -->
<g id="edge7" class="edge">
<title>BDNF&#45;&gt;Apoptosis</title>
<path fill="none" stroke="black" stroke-dasharray="5,2" d="M265.22,-372.76C274.96,-329.67 300.73,-215.59 313.7,-158.19"/>
<polygon fill="black" stroke="black" points="309.66,-153.36 319.41,-155.56 318.97,-157.51 309.22,-155.31 309.66,-153.36"/>
<polyline fill="none" stroke="black" points="314.76,-153.49 313.66,-158.36"/>
<text text-anchor="middle" x="317.34" y="-228.1" font-family="Times,serif" font-size="14.00"> 抑制</text>
</g>
<!-- GSK3B&#45;&gt;BDNF -->
<g id="edge3" class="edge">
<title>GSK3B&#45;&gt;BDNF</title>
<path fill="none" stroke="black" stroke-dasharray="5,2" d="M226.4,-250.67C231.33,-256.26 236.12,-262.69 239.38,-269.4 254.83,-301.31 259.49,-342.77 260.85,-367.77"/>
<polygon fill="black" stroke="black" points="266.03,-371.3 256.04,-371.78 255.94,-369.79 265.93,-369.3 266.03,-371.3"/>
<polyline fill="none" stroke="black" points="261.08,-372.54 260.84,-367.55"/>
<text text-anchor="middle" x="262.99" y="-277.1" font-family="Times,serif" font-size="14.00"> 抑制</text>
</g>
<!-- Neurogenesis -->
<g id="node4" class="node">
<title>Neurogenesis</title>
<polygon fill="none" stroke="black" points="152.25,-114 152.25,-132.39 119.52,-145.39 73.23,-145.39 40.5,-132.39 40.5,-114 73.23,-101 119.52,-101 152.25,-114"/>
<polygon fill="none" stroke="black" points="156.25,-111.29 156.25,-135.1 120.28,-149.39 72.47,-149.39 36.5,-135.1 36.5,-111.29 72.47,-97 120.28,-97 156.25,-111.29"/>
<polygon fill="none" stroke="black" points="160.25,-108.57 160.25,-137.82 121.05,-153.39 71.7,-153.39 32.5,-137.82 32.5,-108.57 71.7,-93 121.05,-93 160.25,-108.57"/>
<text text-anchor="middle" x="96.38" y="-120.4" font-family="Helvetica,sans-Serif" font-weight="bold" font-size="14.00">神経新生</text>
</g>
<!-- GSK3B&#45;&gt;Neurogenesis -->
<g id="edge4" class="edge">
<title>GSK3B&#45;&gt;Neurogenesis</title>
<path fill="none" stroke="black" stroke-dasharray="5,2" d="M175.88,-212.08C167.14,-206.32 157.89,-199.56 150.12,-192.39 138.98,-182.1 128.29,-169.36 119.43,-157.69"/>
<polygon fill="black" stroke="black" points="113.09,-157.58 121.09,-151.58 122.29,-153.18 114.29,-159.18 113.09,-157.58"/>
<polyline fill="none" stroke="black" points="116.49,-153.78 119.49,-157.78"/>
<text text-anchor="middle" x="166.25" y="-179.09" font-family="Times,serif" font-size="14.00"> 抑制</text>
</g>
<!-- GSK3B&#45;&gt;Apoptosis -->
<g id="edge6" class="edge">
<title>GSK3B&#45;&gt;Apoptosis</title>
<path fill="none" stroke="black" d="M226.93,-211C242.17,-196.99 263.42,-177.47 281.89,-160.48"/>
<polygon fill="black" stroke="black" points="284.05,-163.26 289.05,-153.91 279.31,-158.1 284.05,-163.26"/>
<text text-anchor="middle" x="281.57" y="-179.09" font-family="Times,serif" font-size="14.00">誘導</text>
</g>
<!-- Li -->
<g id="node6" class="node">
<title>Li</title>
<path fill="lightblue" stroke="black" d="M236.12,-36C236.12,-36 188.62,-36 188.62,-36 182.62,-36 176.62,-30 176.62,-24 176.62,-24 176.62,-12 176.62,-12 176.62,-6 182.62,0 188.62,0 188.62,0 236.12,0 236.12,0 242.12,0 248.12,-6 248.12,-12 248.12,-12 248.12,-24 248.12,-24 248.12,-30 242.12,-36 236.12,-36"/>
<text text-anchor="middle" x="212.38" y="-15.2" font-family="Times,serif" font-size="14.00">リチウム</text>
</g>
<!-- Li&#45;&gt;GSK3B -->
<g id="edge5" class="edge">
<title>Li&#45;&gt;GSK3B</title>
<path fill="none" stroke="black" stroke-dasharray="5,2" d="M210.2,-36.31C208.43,-51.28 206.08,-73.53 205.12,-93 203.21,-132.11 204.28,-177.58 205.28,-205.02"/>
<polygon fill="black" stroke="black" points="210.43,-208.74 200.43,-209.12 200.36,-207.12 210.35,-206.74 210.43,-208.74"/>
<polyline fill="none" stroke="black" points="205.47,-209.93 205.28,-204.94"/>
<text text-anchor="middle" x="221.25" y="-120.4" font-family="Times,serif" font-size="14.00"> 抑制</text>
</g>
<!-- Li&#45;&gt;Apoptosis -->
<g id="edge8" class="edge">
<title>Li&#45;&gt;Apoptosis</title>
<path fill="none" stroke="black" stroke-dasharray="5,2" d="M230.54,-36.2C246.02,-50.85 268.68,-72.31 287.5,-90.12"/>
<polygon fill="black" stroke="black" points="293.43,-88.86 286.56,-96.12 285.11,-94.74 291.98,-87.48 293.43,-88.86"/>
<polyline fill="none" stroke="black" points="290.72,-93.18 287.09,-89.74"/>
<text text-anchor="middle" x="286.27" y="-61.7" font-family="Times,serif" font-size="14.00"> 抑制</text>
</g>
</g>
</svg>
