<svg xmlns="http://www.w3.org/2000/svg" xmlns:xlink="http://www.w3.org/1999/xlink" contentStyleType="text/css" data-diagram-type="DESCRIPTION" height="852px" preserveAspectRatio="none" style="width:618px;height:852px;background:#FFFFFF;" version="1.1" viewBox="0 0 618 852" width="618px" zoomAndPan="magnify"><defs/><g><!--cluster ???????--><g class="cluster" data-entity="&#31070;&#32076;&#28814;&#30151;&#24615;&#20206;&#35500;" data-source-line="12" data-uid="ent0006" id="cluster_&#31070;&#32076;&#28814;&#30151;&#24615;&#20206;&#35500;"><rect fill="none" height="192.13" rx="20" ry="20" style="stroke:#181818;stroke-width:1;" width="314" x="99" y="91.12"/><text fill="#000000" font-family="sans-serif" font-size="14" font-weight="bold" lengthAdjust="spacing" textLength="97.9996" x="207.0002" y="108.0859">&#31070;&#32076;&#28814;&#30151;&#24615;&#20206;&#35500;</text></g><!--cluster ????????--><g class="cluster" data-entity="&#12467;&#12523;&#12481;&#12478;&#12540;&#12523;&#20206;&#35500;" data-source-line="22" data-uid="ent0014" id="cluster_&#12467;&#12523;&#12481;&#12478;&#12540;&#12523;&#20206;&#35500;"><rect fill="none" height="93.06" rx="20" ry="20" style="stroke:#181818;stroke-width:1;" width="164" x="437" y="190.19"/><text fill="#000000" font-family="sans-serif" font-size="14" font-weight="bold" lengthAdjust="spacing" textLength="111.9995" x="463.0002" y="207.1559">&#12467;&#12523;&#12481;&#12478;&#12540;&#12523;&#20206;&#35500;</text></g><!--cluster ???????--><g class="cluster" data-entity="&#31070;&#32076;&#21487;&#36870;&#24615;&#20206;&#35500;" data-source-line="28" data-uid="ent0018" id="cluster_&#31070;&#32076;&#21487;&#36870;&#24615;&#20206;&#35500;"><rect fill="none" height="211.21" rx="20" ry="20" style="stroke:#181818;stroke-width:1;" width="555" x="7" y="307.25"/><text fill="#000000" font-family="sans-serif" font-size="14" font-weight="bold" lengthAdjust="spacing" textLength="97.9996" x="235.5002" y="324.2159">&#31070;&#32076;&#21487;&#36870;&#24615;&#20206;&#35500;</text></g><!--cluster ???????--><g class="cluster" data-entity="&#12514;&#12494;&#12450;&#12511;&#12531;&#20206;&#35500;" data-source-line="43" data-uid="ent0031" id="cluster_&#12514;&#12494;&#12450;&#12511;&#12531;&#20206;&#35500;"><rect fill="none" height="93.07" rx="20" ry="20" style="stroke:#181818;stroke-width:1;" width="150" x="405" y="542.46"/><text fill="#000000" font-family="sans-serif" font-size="14" font-weight="bold" lengthAdjust="spacing" textLength="97.9996" x="431.0002" y="559.4259">&#12514;&#12494;&#12450;&#12511;&#12531;&#20206;&#35500;</text></g><!--entity microglia--><g class="entity" data-entity="microglia" data-source-line="13" data-uid="ent0007" id="entity_microglia"><rect fill="#F1F1F1" height="39.0679" rx="20" ry="20" style="stroke:#181818;stroke-width:0.5;" width="187.9993" x="209" y="129.12"/><text fill="#000000" font-family="sans-serif" font-size="14" lengthAdjust="spacing" textLength="167.9993" x="219" y="154.0859">&#12511;&#12463;&#12525;&#12464;&#12522;&#12450;&#32048;&#32990;&#12398;&#27963;&#24615;&#21270;</text></g><!--entity Cytokine--><g class="entity" data-entity="Cytokine" data-source-line="14" data-uid="ent0008" id="entity_Cytokine"><rect fill="#F1F1F1" height="39.0679" rx="20" ry="20" style="stroke:#181818;stroke-width:0.5;" width="173.9993" x="223" y="228.19"/><text fill="#000000" font-family="sans-serif" font-size="14" lengthAdjust="spacing" textLength="153.9993" x="233" y="253.1559">&#28814;&#30151;&#24615;&#12469;&#12452;&#12488;&#12459;&#12452;&#12531;&#25918;&#20986;</text></g><g class="entity" data-entity="GMN9" data-source-line="16" data-uid="ent0010" id="entity_GMN9"><path d="M115.5,233.87 L115.5,261.576 A0,0 0 0 0 115.5,261.576 L188.5001,261.576 A0,0 0 0 0 188.5001,261.576 L188.5001,251.87 L222.83,247.72 L188.5001,243.87 L188.5001,243.87 L178.5001,233.87 L115.5,233.87 A0,0 0 0 0 115.5,233.87" fill="#FEFFDD" style="stroke:#181818;stroke-width:0.5;"/><path d="M178.5001,233.87 L178.5001,243.87 L188.5001,243.87 L178.5001,233.87" fill="#FEFFDD" style="stroke:#181818;stroke-width:0.5;"/><text fill="#000000" font-family="sans-serif" font-size="13" lengthAdjust="spacing" textLength="52.0001" x="121.5" y="252.767">&#28814;&#30151;&#21453;&#24540;</text></g><!--entity cortisol--><g class="entity" data-entity="cortisol" data-source-line="23" data-uid="ent0015" id="entity_cortisol"><rect fill="#F1F1F1" height="39.0679" rx="20" ry="20" style="stroke:#181818;stroke-width:0.5;" width="131.9995" x="453" y="228.19"/><text fill="#000000" font-family="sans-serif" font-size="14" lengthAdjust="spacing" textLength="111.9995" x="463" y="253.1559">&#12467;&#12523;&#12481;&#12478;&#12540;&#12523;&#19978;&#26119;</text></g><!--entity BDNF--><g class="entity" data-entity="BDNF" data-source-line="29" data-uid="ent0019" id="entity_BDNF"><rect fill="#F1F1F1" height="39.0679" rx="20" ry="20" style="stroke:#181818;stroke-width:0.5;" width="85.2257" x="289.39" y="345.25"/><text fill="#000000" font-family="sans-serif" font-size="14" lengthAdjust="spacing" textLength="65.2257" x="299.39" y="370.2159">BDNF&#20302;&#19979;</text></g><!--entity Nrf2--><g class="entity" data-entity="Nrf2" data-source-line="30" data-uid="ent0020" id="entity_Nrf2"><rect fill="#F1F1F1" height="39.0679" rx="20" ry="20" style="stroke:#181818;stroke-width:0.5;" width="77.2458" x="23.38" y="453.86"/><text fill="#000000" font-family="sans-serif" font-size="14" lengthAdjust="spacing" textLength="57.2458" x="33.38" y="478.8259">Nrf2&#20302;&#19979;</text></g><!--entity synapse--><g class="entity" data-entity="synapse" data-source-line="31" data-uid="ent0021" id="entity_synapse"><rect fill="#F1F1F1" height="39.0679" rx="20" ry="20" style="stroke:#181818;stroke-width:0.5;" width="103.9996" x="442" y="453.86"/><text fill="#000000" font-family="sans-serif" font-size="14" lengthAdjust="spacing" textLength="83.9996" x="452" y="478.8259">&#12471;&#12490;&#12503;&#12473;&#33806;&#32302;</text></g><!--entity Neurogenesis--><g class="entity" data-entity="Neurogenesis" data-source-line="32" data-uid="ent0022" id="entity_Neurogenesis"><rect fill="#F1F1F1" height="39.0679" rx="20" ry="20" style="stroke:#181818;stroke-width:0.5;" width="131.9995" x="136" y="453.86"/><text fill="#000000" font-family="sans-serif" font-size="14" lengthAdjust="spacing" textLength="111.9995" x="146" y="478.8259">&#31070;&#32076;&#32048;&#32990;&#26032;&#29983;&#28187;&#23569;</text></g><!--entity apoptosis--><g class="entity" data-entity="apoptosis" data-source-line="33" data-uid="ent0023" id="entity_apoptosis"><rect fill="#F1F1F1" height="58.1358" rx="20" ry="20" style="stroke:#181818;stroke-width:0.5;" width="103.9996" x="303" y="444.32"/><text fill="#000000" font-family="sans-serif" font-size="14" lengthAdjust="spacing" textLength="83.9996" x="313" y="469.2859">&#12450;&#12509;&#12488;&#12540;&#12471;&#12473;</text><text fill="#000000" font-family="sans-serif" font-size="14" lengthAdjust="spacing" textLength="69.9997" x="313" y="488.3539">&#31070;&#32076;&#32048;&#32990;&#27515;</text></g><!--entity serotonin--><g class="entity" data-entity="serotonin" data-source-line="44" data-uid="ent0032" id="entity_serotonin"><rect fill="#F1F1F1" height="39.0679" rx="20" ry="20" style="stroke:#181818;stroke-width:0.5;" width="117.9996" x="421" y="580.46"/><text fill="#000000" font-family="sans-serif" font-size="14" lengthAdjust="spacing" textLength="97.9996" x="431" y="605.4259">&#12475;&#12525;&#12488;&#12491;&#12531;&#20302;&#19979;</text></g><!--entity stress--><g class="entity" data-entity="stress" data-source-line="5" data-uid="ent0002" id="entity_stress"><rect fill="#F1F1F1" height="39.0679" rx="20" ry="20" style="stroke:#181818;stroke-width:0.5;" width="75.9998" x="355" y="18.03"/><text fill="#000000" font-family="sans-serif" font-size="14" lengthAdjust="spacing" textLength="55.9998" x="365" y="42.9959">&#12473;&#12488;&#12524;&#12473;</text></g><g class="entity" data-entity="GMN3" data-source-line="7" data-uid="ent0004" id="entity_GMN3"><path d="M466.1,6 L466.1,33.56 L431.5,37.56 L466.1,41.56 L466.1,69.118 A0,0 0 0 0 466.1,69.118 L611.9002,69.118 A0,0 0 0 0 611.9002,69.118 L611.9002,16 L601.9002,6 L466.1,6 A0,0 0 0 0 466.1,6" fill="#FEFFDD" style="stroke:#181818;stroke-width:0.5;"/><path d="M601.9002,6 L601.9002,16 L611.9002,16 L601.9002,6" fill="#FEFFDD" style="stroke:#181818;stroke-width:0.5;"/><text fill="#000000" font-family="sans-serif" font-size="13" lengthAdjust="spacing" textLength="124.8002" x="472.1" y="24.897">&#36523;&#20307;&#30340;(&#30142;&#24739;&#12289;&#22806;&#20663;&#31561;)</text><text fill="#000000" font-family="sans-serif" font-size="13" lengthAdjust="spacing" textLength="39" x="472.1" y="42.603">&#24515;&#29702;&#30340;</text><text fill="#000000" font-family="sans-serif" font-size="13" lengthAdjust="spacing" textLength="39" x="472.1" y="60.309">&#31038;&#20250;&#30340;</text></g><!--entity depression--><g class="entity" data-entity="depression" data-source-line="48" data-uid="ent0034" id="entity_depression"><rect fill="#F1F1F1" height="166.9233" rx="20" ry="20" style="stroke:#181818;stroke-width:0.5;" width="131.9995" x="289" y="679.53"/><text fill="#000000" font-family="sans-serif" font-size="18" font-weight="bold" lengthAdjust="spacing" textLength="53.9997" x="299" y="708.7719">&#12358;&#12388;&#30149;</text><line style="stroke:#181818;stroke-width:1;" x1="290" x2="419.9995" y1="714.0458" y2="714.0458"/><line style="stroke:#181818;stroke-width:1;" x1="290" x2="419.9995" y1="716.0458" y2="716.0458"/><text fill="#000000" font-family="sans-serif" font-size="14" lengthAdjust="spacing" textLength="83.9996" x="299" y="733.0118">&#30333;&#36074;&#20307;&#31309;&#28187;&#23569;</text><text fill="#000000" font-family="sans-serif" font-size="14" lengthAdjust="spacing" textLength="83.9996" x="299" y="752.0797">&#28023;&#39340;&#20307;&#31309;&#28187;&#23569;</text><text fill="#000000" font-family="sans-serif" font-size="14" lengthAdjust="spacing" textLength="97.9996" x="299" y="771.1476">&#25153;&#26691;&#20307;&#20307;&#31309;&#28187;&#23569;</text><text fill="#000000" font-family="sans-serif" font-size="14" lengthAdjust="spacing" textLength="111.9995" x="299" y="790.2155">&#21069;&#38957;&#21069;&#37326;&#20307;&#31309;&#28187;&#23569;</text><text fill="#000000" font-family="sans-serif" font-size="14" lengthAdjust="spacing" textLength="111.9995" x="299" y="809.2834">&#31070;&#32076;&#20253;&#36948;&#29289;&#36074;&#19981;&#35519;</text><text fill="#000000" font-family="sans-serif" font-size="14" lengthAdjust="spacing" textLength="69.9997" x="299" y="828.3514">&#33075;&#34880;&#27969;&#30064;&#24120;</text></g><!--link stress to microglia--><g class="link" data-entity-1="stress" data-entity-2="microglia" data-source-line="19" data-uid="lnk12" id="link_stress_microglia"><path d="M377.32,57.56 C360.8,77.59 338.7682,104.3017 322.3182,124.2417" fill="none" id="stress-to-microglia" style="stroke:#181818;stroke-width:1;"/><polygon fill="#181818" points="318.5,128.87,327.3129,124.473,321.6819,125.0131,321.1418,119.3821,318.5,128.87" style="stroke:#181818;stroke-width:1;"/></g><!--link microglia to Cytokine--><g class="link" data-entity-1="microglia" data-entity-2="Cytokine" data-source-line="20" data-uid="lnk13" id="link_microglia_Cytokine"><path d="M304.35,168.37 C305.58,185.45 306.9576,204.5856 308.1976,221.7456" fill="none" id="microglia-to-Cytokine" style="stroke:#181818;stroke-width:1;"/><polygon fill="#181818" points="308.63,227.73,311.9709,218.4651,308.2696,222.743,303.9917,219.0417,308.63,227.73" style="stroke:#181818;stroke-width:1;"/></g><!--link stress to cortisol--><g class="link" data-entity-1="stress" data-entity-2="cortisol" data-source-line="25" data-uid="lnk16" id="link_stress_cortisol"><path d="M404.4,57.4 C428.33,96.93 480.4432,183.017 504.4232,222.637" fill="none" id="stress-to-cortisol" style="stroke:#181818;stroke-width:1;"/><polygon fill="#181818" points="507.53,227.77,506.2919,217.9993,504.941,223.4925,499.4478,222.1416,507.53,227.77" style="stroke:#181818;stroke-width:1;"/></g><!--link Cytokine to cortisol--><g class="link" data-entity-1="Cytokine" data-entity-2="cortisol" data-source-line="26" data-uid="lnk17" id="link_Cytokine_cortisol"><path d="M397.36,261.98 C415.89,262.83 428.4516,262.9152 446.9816,261.0052" fill="none" id="Cytokine-to-cortisol" style="stroke:#181818;stroke-width:1;"/><polygon fill="#181818" points="452.95,260.39,443.5873,257.3339,447.9764,260.9027,444.4076,265.2917,452.95,260.39" style="stroke:#181818;stroke-width:1;"/></g><!--link Cytokine to BDNF--><g class="link" data-entity-1="Cytokine" data-entity-2="BDNF" data-source-line="35" data-uid="lnk24" id="link_Cytokine_BDNF"><path d="M313.63,267.72 C317.71,289.04 323.1528,317.5368 327.2328,338.8668" fill="none" id="Cytokine-to-BDNF" style="stroke:#181818;stroke-width:1;"/><polygon fill="#181818" points="328.36,344.76,330.5979,335.1688,327.4206,339.849,322.7404,336.6718,328.36,344.76" style="stroke:#181818;stroke-width:1;"/></g><!--link cortisol to BDNF--><g class="link" data-entity-1="cortisol" data-entity-2="BDNF" data-source-line="36" data-uid="lnk25" id="link_cortisol_BDNF"><path d="M488.12,267.72 C453.47,289.04 402.6999,320.2853 368.0399,341.6153" fill="none" id="cortisol-to-BDNF" style="stroke:#181818;stroke-width:1;"/><polygon fill="#181818" points="362.93,344.76,372.6913,343.4496,367.1882,342.1394,368.4984,336.6364,362.93,344.76" style="stroke:#181818;stroke-width:1;"/></g><!--link BDNF to Nrf2--><g class="link" data-entity-1="BDNF" data-entity-2="Nrf2" data-source-line="37" data-uid="lnk26" id="link_BDNF_Nrf2"><path d="M289.05,380.15 C245.66,394.99 176.95,419.45 119,444.32 C112.51,447.11 111.1155,447.6461 104.5555,450.8061" fill="none" id="BDNF-to-Nrf2" style="stroke:#181818;stroke-width:1;"/><polygon fill="#181818" points="99.15,453.41,108.9942,453.1079,103.6546,451.2401,105.5224,445.9005,99.15,453.41" style="stroke:#181818;stroke-width:1;"/></g><!--link BDNF to synapse--><g class="link" data-entity-1="BDNF" data-entity-2="synapse" data-source-line="38" data-uid="lnk27" id="link_BDNF_synapse"><path d="M360.59,384.6 C390.02,403.97 430.6182,430.6812 460.1382,450.1112" fill="none" id="BDNF-to-synapse" style="stroke:#181818;stroke-width:1;"/><polygon fill="#181818" points="465.15,453.41,459.8315,445.1207,460.9735,450.661,455.4331,451.8031,465.15,453.41" style="stroke:#181818;stroke-width:1;"/></g><!--link BDNF to Neurogenesis--><g class="link" data-entity-1="BDNF" data-entity-2="Neurogenesis" data-source-line="39" data-uid="lnk28" id="link_BDNF_Neurogenesis"><path d="M309.06,384.6 C285.44,403.97 253.4792,430.175 229.7892,449.605" fill="none" id="BDNF-to-Neurogenesis" style="stroke:#181818;stroke-width:1;"/><polygon fill="#181818" points="225.15,453.41,234.6455,450.7953,229.016,450.2392,229.5722,444.6097,225.15,453.41" style="stroke:#181818;stroke-width:1;"/></g><!--link BDNF to apoptosis--><g class="link" data-entity-1="BDNF" data-entity-2="apoptosis" data-source-line="40" data-uid="lnk29" id="link_BDNF_apoptosis"><path d="M336.01,384.36 C339.56,400.82 343.5339,419.2551 347.6139,438.1551" fill="none" id="BDNF-to-apoptosis" style="stroke:#181818;stroke-width:1;"/><polygon fill="#181818" points="348.88,444.02,350.8908,434.3786,347.8249,439.1326,343.071,436.0667,348.88,444.02" style="stroke:#181818;stroke-width:1;"/></g><!--link Nrf2 to microglia--><g class="link" data-entity-1="Nrf2" data-entity-2="microglia" data-source-line="41" data-uid="lnk30" id="link_Nrf2_microglia"><path d="M57.58,453.62 C46.71,402.24 24.61,258.11 98,182.19 C113.59,166.06 156.5235,158.4511 202.6635,154.3511" fill="none" id="Nrf2-to-microglia" style="stroke:#181818;stroke-width:1;"/><polygon fill="#181818" points="208.64,153.82,199.3213,150.6323,203.6596,154.2626,200.0294,158.6009,208.64,153.82" style="stroke:#181818;stroke-width:1;"/></g><!--link synapse to serotonin--><g class="link" data-entity-1="synapse" data-entity-2="serotonin" data-source-line="46" data-uid="lnk33" id="link_synapse_serotonin"><path d="M491.87,493.32 C489.23,516.87 485.4112,550.8877 482.7712,574.3377" fill="none" id="synapse-to-serotonin" style="stroke:#181818;stroke-width:1;"/><polygon fill="#181818" points="482.1,580.3,487.0817,571.804,482.6594,575.3314,479.132,570.909,482.1,580.3" style="stroke:#181818;stroke-width:1;"/></g><!--link serotonin to depression--><g class="link" data-entity-1="serotonin" data-entity-2="depression" data-source-line="58" data-uid="lnk35" id="link_serotonin_depression"><path d="M465.42,619.78 C453.76,634.79 440.2304,652.2214 422.8404,674.6114" fill="none" id="serotonin-to-depression" style="stroke:#181818;stroke-width:1;"/><polygon fill="#181818" points="419.16,679.35,427.8397,674.6957,422.227,675.4012,421.5215,669.7885,419.16,679.35" style="stroke:#181818;stroke-width:1;"/></g><!--link Neurogenesis to depression--><g class="link" data-entity-1="Neurogenesis" data-entity-2="depression" data-source-line="59" data-uid="lnk36" id="link_Neurogenesis_depression"><path d="M212.04,493.26 C231.78,530.38 273.912,609.5629 308.172,673.9629" fill="none" id="Neurogenesis-to-depression" style="stroke:#181818;stroke-width:1;"/><polygon fill="#181818" points="310.99,679.26,310.2944,669.4357,308.6417,674.8458,303.2316,673.193,310.99,679.26" style="stroke:#181818;stroke-width:1;"/></g><!--link apoptosis to depression--><g class="link" data-entity-1="apoptosis" data-entity-2="depression" data-source-line="60" data-uid="lnk37" id="link_apoptosis_depression"><path d="M355,502.75 C355,543.35 355,613.69 355,673.05" fill="none" id="apoptosis-to-depression" style="stroke:#181818;stroke-width:1;"/><polygon fill="#181818" points="355,679.05,359,670.05,355,674.05,351,670.05,355,679.05" style="stroke:#181818;stroke-width:1;"/></g><!--SRC=[TLHTJzDG6BxkVaN3bLwG6EEjNeZnaZ-WNZJR0Hl7EKjROeWXMNkGEM03uno80e9JmzZ6ah6ii35-p6bxkd_XEQUXNswzQCvvFv_dUTzMqj-fiA1eoegiWQoXmEKya3za94b3gp2tW3G8DFd9euoqdib8KSGSiQu9_aHmYntcP4MNTKC3kfwH83A0hAdBRmrMnB-vS6w_qCED1xG-zgnVf6YwZRfh3MYx_93vtJjCzpQPdvrfO-oC3iKPm9pCwoHRqj_7jBz3hIhTBtd5lywmupTRSm7O631yGgnBWjl4wXBS9DOPlUhw-9YO7UzgoFBSdRe0lA9cDRISLvLaVbYVM7rYDJX9wq8SUbvjx9PkHFB2ce6OS83b2i9viCJvIa6skrjnxtwmUqY4oIS52idpEVGUpZ-Bzm-FeJEidnAzH_05mIQnnWIFs7cM2Fy7sblUGKbWpoBDK7MKdmOgyjqZaEV5CEE-ALDnToydnStPKtd-Ol6bSrjrx6q1WL-J0OlQqkDO0B-cAGq8tY9udosSlrUbTYTOkpMe57IGcc6mAMBkNhrBQoUU_TtjVWvAWrKcDe10L_LqYpE2ZyHQZtWxw_erJ9Hg3qK5fO0A1XBfwt6Xc4O1iNkbOYR-3bKEs2LC8OzaO09hmXK3mSk9Lj5A9TS6CrvLmUw4hV7CdHdohuQpt-PHqJ1qe243GHK66nCWZP17tgXQ3XJuNga8ogzOcwSoCJU9sQ3x7_cDFVo3_tRhzvhy_t1U2UR3Z5v_CFdJIXlBfdUAcJ5bTykLoSysVvUgALSmDsTqD35hj7pE6zaLltd7VqeRFV-qwFLD-hNhsdP6UiFa2bc4l28AJE7O7AO6XDEOulq7]--></g></svg>