<svg xmlns="http://www.w3.org/2000/svg" xmlns:xlink="http://www.w3.org/1999/xlink" contentStyleType="text/css" data-diagram-type="DESCRIPTION" height="852px" preserveAspectRatio="none" style="width:846px;height:852px;background:#FFFFFF;" version="1.1" viewBox="0 0 846 852" width="846px" zoomAndPan="magnify"><defs/><g><!--cluster ???????--><g class="cluster" data-entity="&#31070;&#32076;&#28814;&#30151;&#24615;&#20206;&#35500;" data-source-line="12" data-uid="ent0006" id="cluster_&#31070;&#32076;&#28814;&#30151;&#24615;&#20206;&#35500;"><rect fill="none" height="192.13" rx="20" ry="20" style="stroke:#181818;stroke-width:1;" width="314" x="7" y="91.12"/><text fill="#000000" font-family="sans-serif" font-size="14" font-weight="bold" lengthAdjust="spacing" textLength="97.9996" x="115.0002" y="108.0859">&#31070;&#32076;&#28814;&#30151;&#24615;&#20206;&#35500;</text></g><!--cluster ????????--><g class="cluster" data-entity="&#12467;&#12523;&#12481;&#12478;&#12540;&#12523;&#20206;&#35500;" data-source-line="22" data-uid="ent0014" id="cluster_&#12467;&#12523;&#12481;&#12478;&#12540;&#12523;&#20206;&#35500;"><rect fill="none" height="93.06" rx="20" ry="20" style="stroke:#181818;stroke-width:1;" width="164" x="395" y="190.19"/><text fill="#000000" font-family="sans-serif" font-size="14" font-weight="bold" lengthAdjust="spacing" textLength="111.9995" x="421.0002" y="207.1559">&#12467;&#12523;&#12481;&#12478;&#12540;&#12523;&#20206;&#35500;</text></g><!--cluster ???????--><g class="cluster" data-entity="&#31070;&#32076;&#21487;&#36870;&#24615;&#20206;&#35500;" data-source-line="28" data-uid="ent0018" id="cluster_&#31070;&#32076;&#21487;&#36870;&#24615;&#20206;&#35500;"><rect fill="none" height="211.21" rx="20" ry="20" style="stroke:#181818;stroke-width:1;" width="555" x="285" y="307.25"/><text fill="#000000" font-family="sans-serif" font-size="14" font-weight="bold" lengthAdjust="spacing" textLength="97.9996" x="513.5002" y="324.2159">&#31070;&#32076;&#21487;&#36870;&#24615;&#20206;&#35500;</text></g><!--cluster ???????--><g class="cluster" data-entity="&#12514;&#12494;&#12450;&#12511;&#12531;&#20206;&#35500;" data-source-line="43" data-uid="ent0031" id="cluster_&#12514;&#12494;&#12450;&#12511;&#12531;&#20206;&#35500;"><rect fill="none" height="93.07" rx="20" ry="20" style="stroke:#181818;stroke-width:1;" width="150" x="391" y="542.46"/><text fill="#000000" font-family="sans-serif" font-size="14" font-weight="bold" lengthAdjust="spacing" textLength="97.9996" x="417.0002" y="559.4259">&#12514;&#12494;&#12450;&#12511;&#12531;&#20206;&#35500;</text></g><!--entity microglia--><g class="entity" data-entity="microglia" data-source-line="13" data-uid="ent0007" id="entity_microglia"><rect fill="#F1F1F1" height="39.0679" rx="20" ry="20" style="stroke:#181818;stroke-width:0.5;" width="187.9993" x="117" y="129.12"/><text fill="#000000" font-family="sans-serif" font-size="14" lengthAdjust="spacing" textLength="167.9993" x="127" y="154.0859">&#12511;&#12463;&#12525;&#12464;&#12522;&#12450;&#32048;&#32990;&#12398;&#27963;&#24615;&#21270;</text></g><!--entity Cytokine--><g class="entity" data-entity="Cytokine" data-source-line="14" data-uid="ent0008" id="entity_Cytokine"><rect fill="#F1F1F1" height="39.0679" rx="20" ry="20" style="stroke:#181818;stroke-width:0.5;" width="173.9993" x="131" y="228.19"/><text fill="#000000" font-family="sans-serif" font-size="14" lengthAdjust="spacing" textLength="153.9993" x="141" y="253.1559">&#28814;&#30151;&#24615;&#12469;&#12452;&#12488;&#12459;&#12452;&#12531;&#25918;&#20986;</text></g><g class="entity" data-entity="GMN9" data-source-line="16" data-uid="ent0010" id="entity_GMN9"><path d="M23.5,233.87 L23.5,261.576 A0,0 0 0 0 23.5,261.576 L96.5001,261.576 A0,0 0 0 0 96.5001,261.576 L96.5001,251.87 L130.83,247.72 L96.5001,243.87 L96.5001,243.87 L86.5001,233.87 L23.5,233.87 A0,0 0 0 0 23.5,233.87" fill="#FEFFDD" style="stroke:#181818;stroke-width:0.5;"/><path d="M86.5001,233.87 L86.5001,243.87 L96.5001,243.87 L86.5001,233.87" fill="#FEFFDD" style="stroke:#181818;stroke-width:0.5;"/><text fill="#000000" font-family="sans-serif" font-size="13" lengthAdjust="spacing" textLength="52.0001" x="29.5" y="252.767">&#28814;&#30151;&#21453;&#24540;</text></g><!--entity cortisol--><g class="entity" data-entity="cortisol" data-source-line="23" data-uid="ent0015" id="entity_cortisol"><rect fill="#F1F1F1" height="39.0679" rx="20" ry="20" style="stroke:#181818;stroke-width:0.5;" width="131.9995" x="411" y="228.19"/><text fill="#000000" font-family="sans-serif" font-size="14" lengthAdjust="spacing" textLength="111.9995" x="421" y="253.1559">&#12467;&#12523;&#12481;&#12478;&#12540;&#12523;&#19978;&#26119;</text></g><!--entity BDNF--><g class="entity" data-entity="BDNF" data-source-line="29" data-uid="ent0019" id="entity_BDNF"><rect fill="#F1F1F1" height="39.0679" rx="20" ry="20" style="stroke:#181818;stroke-width:0.5;" width="85.2257" x="429.39" y="345.25"/><text fill="#000000" font-family="sans-serif" font-size="14" lengthAdjust="spacing" textLength="65.2257" x="439.39" y="370.2159">BDNF&#20302;&#19979;</text></g><!--entity Nrf2--><g class="entity" data-entity="Nrf2" data-source-line="30" data-uid="ent0020" id="entity_Nrf2"><rect fill="#F1F1F1" height="39.0679" rx="20" ry="20" style="stroke:#181818;stroke-width:0.5;" width="77.2458" x="301.38" y="453.86"/><text fill="#000000" font-family="sans-serif" font-size="14" lengthAdjust="spacing" textLength="57.2458" x="311.38" y="478.8259">Nrf2&#20302;&#19979;</text></g><!--entity synapse--><g class="entity" data-entity="synapse" data-source-line="31" data-uid="ent0021" id="entity_synapse"><rect fill="#F1F1F1" height="39.0679" rx="20" ry="20" style="stroke:#181818;stroke-width:0.5;" width="103.9996" x="414" y="453.86"/><text fill="#000000" font-family="sans-serif" font-size="14" lengthAdjust="spacing" textLength="83.9996" x="424" y="478.8259">&#12471;&#12490;&#12503;&#12473;&#33806;&#32302;</text></g><!--entity Neurogenesis--><g class="entity" data-entity="Neurogenesis" data-source-line="32" data-uid="ent0022" id="entity_Neurogenesis"><rect fill="#F1F1F1" height="39.0679" rx="20" ry="20" style="stroke:#181818;stroke-width:0.5;" width="131.9995" x="692" y="453.86"/><text fill="#000000" font-family="sans-serif" font-size="14" lengthAdjust="spacing" textLength="111.9995" x="702" y="478.8259">&#31070;&#32076;&#32048;&#32990;&#26032;&#29983;&#28187;&#23569;</text></g><!--entity apoptosis--><g class="entity" data-entity="apoptosis" data-source-line="33" data-uid="ent0023" id="entity_apoptosis"><rect fill="#F1F1F1" height="58.1358" rx="20" ry="20" style="stroke:#181818;stroke-width:0.5;" width="103.9996" x="553" y="444.32"/><text fill="#000000" font-family="sans-serif" font-size="14" lengthAdjust="spacing" textLength="83.9996" x="563" y="469.2859">&#12450;&#12509;&#12488;&#12540;&#12471;&#12473;</text><text fill="#000000" font-family="sans-serif" font-size="14" lengthAdjust="spacing" textLength="69.9997" x="563" y="488.3539">&#31070;&#32076;&#32048;&#32990;&#27515;</text></g><!--entity serotonin--><g class="entity" data-entity="serotonin" data-source-line="44" data-uid="ent0032" id="entity_serotonin"><rect fill="#F1F1F1" height="39.0679" rx="20" ry="20" style="stroke:#181818;stroke-width:0.5;" width="117.9996" x="407" y="580.46"/><text fill="#000000" font-family="sans-serif" font-size="14" lengthAdjust="spacing" textLength="97.9996" x="417" y="605.4259">&#12475;&#12525;&#12488;&#12491;&#12531;&#20302;&#19979;</text></g><!--entity stress--><g class="entity" data-entity="stress" data-source-line="5" data-uid="ent0002" id="entity_stress"><rect fill="#F1F1F1" height="39.0679" rx="20" ry="20" style="stroke:#181818;stroke-width:0.5;" width="75.9998" x="276" y="18.03"/><text fill="#000000" font-family="sans-serif" font-size="14" lengthAdjust="spacing" textLength="55.9998" x="286" y="42.9959">&#12473;&#12488;&#12524;&#12473;</text></g><g class="entity" data-entity="GMN3" data-source-line="7" data-uid="ent0004" id="entity_GMN3"><path d="M387.1,6 L387.1,33.56 L352.5,37.56 L387.1,41.56 L387.1,69.118 A0,0 0 0 0 387.1,69.118 L532.9002,69.118 A0,0 0 0 0 532.9002,69.118 L532.9002,16 L522.9002,6 L387.1,6 A0,0 0 0 0 387.1,6" fill="#FEFFDD" style="stroke:#181818;stroke-width:0.5;"/><path d="M522.9002,6 L522.9002,16 L532.9002,16 L522.9002,6" fill="#FEFFDD" style="stroke:#181818;stroke-width:0.5;"/><text fill="#000000" font-family="sans-serif" font-size="13" lengthAdjust="spacing" textLength="124.8002" x="393.1" y="24.897">&#36523;&#20307;&#30340;(&#30142;&#24739;&#12289;&#22806;&#20663;&#31561;)</text><text fill="#000000" font-family="sans-serif" font-size="13" lengthAdjust="spacing" textLength="39" x="393.1" y="42.603">&#24515;&#29702;&#30340;</text><text fill="#000000" font-family="sans-serif" font-size="13" lengthAdjust="spacing" textLength="39" x="393.1" y="60.309">&#31038;&#20250;&#30340;</text></g><!--entity depression--><g class="entity" data-entity="depression" data-source-line="50" data-uid="ent0035" id="entity_depression"><rect fill="#F1F1F1" height="166.9233" rx="20" ry="20" style="stroke:#181818;stroke-width:0.5;" width="131.9995" x="539" y="679.53"/><text fill="#000000" font-family="sans-serif" font-size="18" font-weight="bold" lengthAdjust="spacing" textLength="53.9997" x="549" y="708.7719">&#12358;&#12388;&#30149;</text><line style="stroke:#181818;stroke-width:1;" x1="540" x2="669.9995" y1="714.0458" y2="714.0458"/><line style="stroke:#181818;stroke-width:1;" x1="540" x2="669.9995" y1="716.0458" y2="716.0458"/><text fill="#000000" font-family="sans-serif" font-size="14" lengthAdjust="spacing" textLength="83.9996" x="549" y="733.0118">&#30333;&#36074;&#20307;&#31309;&#28187;&#23569;</text><text fill="#000000" font-family="sans-serif" font-size="14" lengthAdjust="spacing" textLength="83.9996" x="549" y="752.0797">&#28023;&#39340;&#20307;&#31309;&#28187;&#23569;</text><text fill="#000000" font-family="sans-serif" font-size="14" lengthAdjust="spacing" textLength="97.9996" x="549" y="771.1476">&#25153;&#26691;&#20307;&#20307;&#31309;&#28187;&#23569;</text><text fill="#000000" font-family="sans-serif" font-size="14" lengthAdjust="spacing" textLength="111.9995" x="549" y="790.2155">&#21069;&#38957;&#21069;&#37326;&#20307;&#31309;&#28187;&#23569;</text><text fill="#000000" font-family="sans-serif" font-size="14" lengthAdjust="spacing" textLength="111.9995" x="549" y="809.2834">&#31070;&#32076;&#20253;&#36948;&#29289;&#36074;&#19981;&#35519;</text><text fill="#000000" font-family="sans-serif" font-size="14" lengthAdjust="spacing" textLength="69.9997" x="549" y="828.3514">&#33075;&#34880;&#27969;&#30064;&#24120;</text></g><!--link stress to microglia--><g class="link" data-entity-1="stress" data-entity-2="microglia" data-source-line="19" data-uid="lnk12" id="link_stress_microglia"><path d="M296.06,57.56 C277.15,77.59 251.6783,104.5666 232.8583,124.5066" fill="none" id="stress-to-microglia" style="stroke:#181818;stroke-width:1;"/><polygon fill="#181818" points="228.74,128.87,237.8264,125.0704,232.1719,125.2338,232.0085,119.5793,228.74,128.87" style="stroke:#181818;stroke-width:1;"/></g><!--link microglia to Cytokine--><g class="link" data-entity-1="microglia" data-entity-2="Cytokine" data-source-line="20" data-uid="lnk13" id="link_microglia_Cytokine"><path d="M212.35,168.37 C213.58,185.45 214.9576,204.5856 216.1976,221.7456" fill="none" id="microglia-to-Cytokine" style="stroke:#181818;stroke-width:1;"/><polygon fill="#181818" points="216.63,227.73,219.9709,218.4651,216.2696,222.743,211.9917,219.0417,216.63,227.73" style="stroke:#181818;stroke-width:1;"/></g><!--link stress to cortisol--><g class="link" data-entity-1="stress" data-entity-2="cortisol" data-source-line="25" data-uid="lnk16" id="link_stress_cortisol"><path d="M328.75,57.4 C359.71,96.93 427.4412,183.4257 458.4612,223.0457" fill="none" id="stress-to-cortisol" style="stroke:#181818;stroke-width:1;"/><polygon fill="#181818" points="462.16,227.77,459.7613,218.2177,459.0777,223.8331,453.4623,223.1495,462.16,227.77" style="stroke:#181818;stroke-width:1;"/></g><!--link Cytokine to cortisol--><g class="link" data-entity-1="Cytokine" data-entity-2="cortisol" data-source-line="26" data-uid="lnk17" id="link_Cytokine_cortisol"><path d="M305.26,260.81 C340.37,263.4 369.5161,263.4174 404.6261,259.5474" fill="none" id="Cytokine-to-cortisol" style="stroke:#181818;stroke-width:1;"/><polygon fill="#181818" points="410.59,258.89,401.2059,255.9001,405.6201,259.4378,402.0824,263.852,410.59,258.89" style="stroke:#181818;stroke-width:1;"/></g><!--link Cytokine to BDNF--><g class="link" data-entity-1="Cytokine" data-entity-2="BDNF" data-source-line="35" data-uid="lnk24" id="link_Cytokine_BDNF"><path d="M259.94,267.72 C307.01,289.04 377.4447,320.9539 424.5247,342.2839" fill="none" id="Cytokine-to-BDNF" style="stroke:#181818;stroke-width:1;"/><polygon fill="#181818" points="429.99,344.76,423.4428,337.4024,425.4356,342.6966,420.1414,344.6894,429.99,344.76" style="stroke:#181818;stroke-width:1;"/></g><!--link cortisol to BDNF--><g class="link" data-entity-1="cortisol" data-entity-2="BDNF" data-source-line="36" data-uid="lnk25" id="link_cortisol_BDNF"><path d="M476.17,267.72 C475.25,289.04 474.0086,317.4356 473.0886,338.7656" fill="none" id="cortisol-to-BDNF" style="stroke:#181818;stroke-width:1;"/><polygon fill="#181818" points="472.83,344.76,477.2141,335.9407,473.0455,339.7646,469.2215,335.596,472.83,344.76" style="stroke:#181818;stroke-width:1;"/></g><!--link BDNF to Nrf2--><g class="link" data-entity-1="BDNF" data-entity-2="Nrf2" data-source-line="37" data-uid="lnk26" id="link_BDNF_Nrf2"><path d="M448.7,384.6 C424.72,403.97 392.2272,430.2094 368.1772,449.6394" fill="none" id="BDNF-to-Nrf2" style="stroke:#181818;stroke-width:1;"/><polygon fill="#181818" points="363.51,453.41,373.0245,450.8655,367.3993,450.2678,367.997,444.6426,363.51,453.41" style="stroke:#181818;stroke-width:1;"/></g><!--link BDNF to synapse--><g class="link" data-entity-1="BDNF" data-entity-2="synapse" data-source-line="38" data-uid="lnk27" id="link_BDNF_synapse"><path d="M470.95,384.36 C469.86,403.8 468.4879,428.1895 467.3879,447.6895" fill="none" id="BDNF-to-synapse" style="stroke:#181818;stroke-width:1;"/><polygon fill="#181818" points="467.05,453.68,471.5505,444.9196,467.3316,448.6879,463.5632,444.469,467.05,453.68" style="stroke:#181818;stroke-width:1;"/></g><!--link BDNF to Neurogenesis--><g class="link" data-entity-1="BDNF" data-entity-2="Neurogenesis" data-source-line="39" data-uid="lnk28" id="link_BDNF_Neurogenesis"><path d="M514.82,381.75 C566.24,400.92 646.7779,430.9342 701.5279,451.3442" fill="none" id="BDNF-to-Neurogenesis" style="stroke:#181818;stroke-width:1;"/><polygon fill="#181818" points="707.15,453.44,700.1141,446.5482,702.465,451.6935,697.3197,454.0443,707.15,453.44" style="stroke:#181818;stroke-width:1;"/></g><!--link BDNF to apoptosis--><g class="link" data-entity-1="BDNF" data-entity-2="apoptosis" data-source-line="40" data-uid="lnk29" id="link_BDNF_apoptosis"><path d="M495.47,384.6 C515.98,401.04 541.3677,421.3982 564.8177,440.1882" fill="none" id="BDNF-to-apoptosis" style="stroke:#181818;stroke-width:1;"/><polygon fill="#181818" points="569.5,443.94,564.9778,435.1907,565.5981,440.8135,559.9754,441.4338,569.5,443.94" style="stroke:#181818;stroke-width:1;"/></g><!--link Nrf2 to microglia--><g class="link" data-entity-1="Nrf2" data-entity-2="microglia" data-source-line="41" data-uid="lnk30" id="link_Nrf2_microglia"><path d="M345.44,453.54 C358.73,403.19 387.2,263.84 322,182.19 C317.3,176.3 316.6699,174.6488 310.3499,170.6488" fill="none" id="Nrf2-to-microglia" style="stroke:#181818;stroke-width:1;"/><polygon fill="#181818" points="305.28,167.44,310.7456,175.6331,309.5049,170.114,315.024,168.8733,305.28,167.44" style="stroke:#181818;stroke-width:1;"/></g><!--link synapse to serotonin--><g class="link" data-entity-1="synapse" data-entity-2="serotonin" data-source-line="46" data-uid="lnk33" id="link_synapse_serotonin"><path d="M466,493.32 C466,516.87 466,550.85 466,574.3" fill="none" id="synapse-to-serotonin" style="stroke:#181818;stroke-width:1;"/><polygon fill="#181818" points="466,580.3,470,571.3,466,575.3,462,571.3,466,580.3" style="stroke:#181818;stroke-width:1;"/></g><!--link Cytokine to serotonin--><g class="link" data-entity-1="Cytokine" data-entity-2="serotonin" data-source-line="47" data-uid="lnk34" id="link_Cytokine_serotonin"><path d="M217.02,267.52 C215.5,316.43 218.15,449.18 285,526.46 C315.9,562.17 361.0256,579.1423 401.0156,588.4323" fill="none" id="Cytokine-to-serotonin" style="stroke:#181818;stroke-width:1;"/><polygon fill="#181818" points="406.86,589.79,398.9986,583.8572,401.9897,588.6586,397.1883,591.6497,406.86,589.79" style="stroke:#181818;stroke-width:1;"/></g><!--link serotonin to depression--><g class="link" data-entity-1="serotonin" data-entity-2="depression" data-source-line="60" data-uid="lnk36" id="link_serotonin_depression"><path d="M482.22,619.78 C496.33,636.12 513.8282,656.3991 534.8582,680.7491" fill="none" id="serotonin-to-depression" style="stroke:#181818;stroke-width:1;"/><polygon fill="#181818" points="538.78,685.29,535.9246,675.8641,535.5119,681.5059,529.8701,681.0932,538.78,685.29" style="stroke:#181818;stroke-width:1;"/></g><!--link Neurogenesis to depression--><g class="link" data-entity-1="Neurogenesis" data-entity-2="depression" data-source-line="61" data-uid="lnk37" id="link_Neurogenesis_depression"><path d="M747.96,493.26 C728.22,530.38 686.088,609.5629 651.828,673.9629" fill="none" id="Neurogenesis-to-depression" style="stroke:#181818;stroke-width:1;"/><polygon fill="#181818" points="649.01,679.26,656.7684,673.193,651.3583,674.8458,649.7056,669.4357,649.01,679.26" style="stroke:#181818;stroke-width:1;"/></g><!--link apoptosis to depression--><g class="link" data-entity-1="apoptosis" data-entity-2="depression" data-source-line="62" data-uid="lnk38" id="link_apoptosis_depression"><path d="M605,502.75 C605,543.35 605,613.69 605,673.05" fill="none" id="apoptosis-to-depression" style="stroke:#181818;stroke-width:1;"/><polygon fill="#181818" points="605,679.05,609,670.05,605,674.05,601,670.05,605,679.05" style="stroke:#181818;stroke-width:1;"/></g><!--SRC=[TLHDJnD163vlVyMc9psG6EDL3s8yyWVKmwOTS6EPQNQN6698kZlOMg05OosA0e9LGqkXIMcwq0z-p7Htjl_2cTcmNxGzR6RUp-TvthSZwUzKc5SqPLNMGCPGu4eEo1zIagIXDPXTH1e4clpaKKhQIAMaC29Dh6k2Fn5ypWvfMT5btT20hgSaY0mWQ-hAMuCLyMvQaz4NUh3vWDR7hlMR54odKNUiFcsN7pA_SulfNf7vsPasnfFXWJW3c9LvdNXB-kU8zdQeLQNx9RVmRpAuy9hdQHzi11W-9jObmMrYTGXk4kkKNdKyV4JC2_TgmFASdRe0lAfcDBIIKvLuVb2VM3rYDJX9goKENRSsTaet8dbntK1CEC1o1U4SMEPy9J_RsQqujp_PFI32v9DyXUI5B7eF5vv5-mV7m1dKJuZU9RX5i4ciCS53Tfudmlr0UylzLXBOCqWpL1tbPe4AVNS8v0KnpAXlnbIStSjfeJX_AizVBBsSZAeJUrj0uDTum9As_3WImAz9Ids2jmZUPmldxLMfVU6ltJfKyZf8pD3V535tjzwXjMFN_k5qFlkbmHeJ6q2WgtgonId1XsAjXxoTTVqQnagr1wA2aaTv0udqZQXGJ2EVs9rI4HF_1Yhxx6AcW4SyC8Orveg0uEL4gt2buck36Q-gO7VCrdZkpWpuluQpt-PHuJ1qe243GHNw6-CZ3P67tb2AUxuee2p8ywLJ4PHVCGnFPM8MYTcW-n_vZVtuQ_1zv7MR_F4ug_Z3OqQtrv_-FKyQowPxWfanONVAbUclDl-MgWcNFzJ9y71grcZvZ3UoArxpbhzOcrtlfE3sJFgruzXsIdh3e0Sq0c8X1IP_P4Wp0u9HpV3-1m00]--></g></svg>