<?xml version="1.0" encoding="UTF-8" standalone="no"?>
<!DOCTYPE svg PUBLIC "-//W3C//DTD SVG 1.1//EN"
 "http://www.w3.org/Graphics/SVG/1.1/DTD/svg11.dtd">
<!-- Generated by graphviz version 12.2.1 (20241206.2353)
 -->
<!-- Title: GSK Pages: 1 -->
<svg width="393pt" height="481pt"
 viewBox="0.00 0.00 393.15 481.15" xmlns="http://www.w3.org/2000/svg" xmlns:xlink="http://www.w3.org/1999/xlink">
<g id="graph0" class="graph" transform="scale(1 1) rotate(0) translate(4 477.15)">
<title>GSK</title>
<polygon fill="white" stroke="none" points="-4,4 -4,-477.15 389.15,-477.15 389.15,4 -4,4"/>
<!-- SSRI -->
<g id="node1" class="node">
<title>SSRI</title>
<path fill="lightblue" stroke="black" d="M160.75,-473.15C160.75,-473.15 12,-473.15 12,-473.15 6,-473.15 0,-467.15 0,-461.15 0,-461.15 0,-320.4 0,-320.4 0,-314.4 6,-308.4 12,-308.4 12,-308.4 160.75,-308.4 160.75,-308.4 166.75,-308.4 172.75,-314.4 172.75,-320.4 172.75,-320.4 172.75,-461.15 172.75,-461.15 172.75,-467.15 166.75,-473.15 160.75,-473.15"/>
<text text-anchor="middle" x="86.38" y="-455.85" font-family="Times,serif" font-size="14.00">SSRI</text>
<text text-anchor="middle" x="86.38" y="-438.6" font-family="Times,serif" font-size="14.00">SNRI</text>
<text text-anchor="middle" x="86.38" y="-421.35" font-family="Times,serif" font-size="14.00">第2世代抗精神病薬</text>
<text text-anchor="middle" x="86.38" y="-400.35" font-family="Times,serif" font-size="14.00">電気けいれん療法</text>
<text text-anchor="middle" x="86.38" y="-379.35" font-family="Times,serif" font-size="14.00">反復経頭蓋磁気刺激療法</text>
<text text-anchor="middle" x="86.38" y="-358.35" font-family="Times,serif" font-size="14.00">運動療法</text>
<text text-anchor="middle" x="86.38" y="-337.35" font-family="Times,serif" font-size="14.00">温熱療法</text>
<text text-anchor="middle" x="86.38" y="-316.35" font-family="Times,serif" font-size="14.00">etc...</text>
</g>
<!-- BDNF -->
<g id="node2" class="node">
<title>BDNF</title>
<ellipse fill="none" stroke="black" cx="250.38" cy="-390.78" rx="41.74" ry="18"/>
<text text-anchor="middle" x="250.38" y="-386.1" font-family="Times,serif" font-size="14.00">BDNF</text>
</g>
<!-- SSRI&#45;&gt;BDNF -->
<g id="edge1" class="edge">
<title>SSRI&#45;&gt;BDNF</title>
<path fill="none" stroke="black" d="M173.18,-390.78C181.01,-390.78 188.85,-390.78 196.68,-390.78"/>
<polygon fill="black" stroke="black" points="196.65,-394.28 206.65,-390.78 196.65,-387.28 196.65,-394.28"/>
</g>
<!-- GSK3B -->
<g id="node3" class="node">
<title>GSK3B</title>
<ellipse fill="lightcoral" stroke="black" cx="195.38" cy="-230.9" rx="68.59" ry="20.51"/>
<text text-anchor="middle" x="195.38" y="-228.1" font-family="Helvetica,sans-Serif" font-weight="bold" font-size="14.00">ＧＳＫー３β</text>
</g>
<!-- BDNF&#45;&gt;GSK3B -->
<g id="edge2" class="edge">
<title>BDNF&#45;&gt;GSK3B</title>
<path fill="none" stroke="black" stroke-dasharray="5,2" d="M238.04,-373.27C224.75,-354.38 204.4,-321.97 196.12,-290.4 193.27,-279.5 192.75,-267.05 193.07,-256.45"/>
<polygon fill="black" stroke="black" points="188.24,-252.5 198.23,-252.93 198.14,-254.93 188.15,-254.5 188.24,-252.5"/>
<polyline fill="none" stroke="black" points="193.28,-251.72 193.06,-256.71"/>
<text text-anchor="middle" x="212.25" y="-277.1" font-family="Times,serif" font-size="14.00"> 抑制</text>
</g>
<!-- Apoptosis -->
<g id="node5" class="node">
<title>Apoptosis</title>
<polygon fill="black" stroke="black" points="377.15,-114 377.15,-132.39 338.04,-145.39 282.71,-145.39 243.6,-132.39 243.6,-114 282.71,-101 338.04,-101 377.15,-114"/>
<polygon fill="none" stroke="black" points="381.15,-111.12 381.15,-135.28 338.68,-149.39 282.07,-149.39 239.6,-135.28 239.6,-111.12 282.07,-97 338.68,-97 381.15,-111.12"/>
<polygon fill="none" stroke="black" points="385.15,-108.23 385.15,-138.16 339.33,-153.39 281.42,-153.39 235.6,-138.16 235.6,-108.23 281.42,-93 339.33,-93 385.15,-108.23"/>
<text text-anchor="middle" x="310.38" y="-120.4" font-family="Helvetica,sans-Serif" font-weight="bold" font-size="14.00" fill="white">神経細胞死</text>
</g>
<!-- BDNF&#45;&gt;Apoptosis -->
<g id="edge7" class="edge">
<title>BDNF&#45;&gt;Apoptosis</title>
<path fill="none" stroke="black" stroke-dasharray="5,2" d="M254.22,-372.76C263.96,-329.67 289.73,-215.59 302.7,-158.19"/>
<polygon fill="black" stroke="black" points="298.66,-153.36 308.41,-155.56 307.97,-157.51 298.22,-155.31 298.66,-153.36"/>
<polyline fill="none" stroke="black" points="303.76,-153.49 302.66,-158.36"/>
<text text-anchor="middle" x="306.34" y="-228.1" font-family="Times,serif" font-size="14.00"> 抑制</text>
</g>
<!-- GSK3B&#45;&gt;BDNF -->
<g id="edge3" class="edge">
<title>GSK3B&#45;&gt;BDNF</title>
<path fill="none" stroke="black" stroke-dasharray="5,2" d="M215.4,-250.67C220.33,-256.26 225.12,-262.69 228.38,-269.4 243.83,-301.31 248.49,-342.77 249.85,-367.77"/>
<polygon fill="black" stroke="black" points="255.03,-371.3 245.04,-371.78 244.94,-369.79 254.93,-369.3 255.03,-371.3"/>
<polyline fill="none" stroke="black" points="250.08,-372.54 249.84,-367.55"/>
<text text-anchor="middle" x="251.99" y="-277.1" font-family="Times,serif" font-size="14.00"> 抑制</text>
</g>
<!-- Neurogenesis -->
<g id="node4" class="node">
<title>Neurogenesis</title>
<polygon fill="none" stroke="black" points="141.25,-114 141.25,-132.39 108.52,-145.39 62.23,-145.39 29.5,-132.39 29.5,-114 62.23,-101 108.52,-101 141.25,-114"/>
<polygon fill="none" stroke="black" points="145.25,-111.29 145.25,-135.1 109.28,-149.39 61.47,-149.39 25.5,-135.1 25.5,-111.29 61.47,-97 109.28,-97 145.25,-111.29"/>
<polygon fill="none" stroke="black" points="149.25,-108.57 149.25,-137.82 110.05,-153.39 60.7,-153.39 21.5,-137.82 21.5,-108.57 60.7,-93 110.05,-93 149.25,-108.57"/>
<text text-anchor="middle" x="85.38" y="-120.4" font-family="Helvetica,sans-Serif" font-weight="bold" font-size="14.00">神経新生</text>
</g>
<!-- GSK3B&#45;&gt;Neurogenesis -->
<g id="edge4" class="edge">
<title>GSK3B&#45;&gt;Neurogenesis</title>
<path fill="none" stroke="black" stroke-dasharray="5,2" d="M164.88,-212.08C156.14,-206.32 146.89,-199.56 139.12,-192.39 127.98,-182.1 117.29,-169.36 108.43,-157.69"/>
<polygon fill="black" stroke="black" points="102.09,-157.58 110.09,-151.58 111.29,-153.18 103.29,-159.18 102.09,-157.58"/>
<polyline fill="none" stroke="black" points="105.49,-153.78 108.49,-157.78"/>
<text text-anchor="middle" x="155.25" y="-179.09" font-family="Times,serif" font-size="14.00"> 抑制</text>
</g>
<!-- GSK3B&#45;&gt;Apoptosis -->
<g id="edge6" class="edge">
<title>GSK3B&#45;&gt;Apoptosis</title>
<path fill="none" stroke="black" d="M215.93,-211C231.17,-196.99 252.42,-177.47 270.89,-160.48"/>
<polygon fill="black" stroke="black" points="273.05,-163.26 278.05,-153.91 268.31,-158.1 273.05,-163.26"/>
<text text-anchor="middle" x="270.57" y="-179.09" font-family="Times,serif" font-size="14.00">誘導</text>
</g>
<!-- Li -->
<g id="node6" class="node">
<title>Li</title>
<path fill="lightblue" stroke="black" d="M225.12,-36C225.12,-36 177.62,-36 177.62,-36 171.62,-36 165.62,-30 165.62,-24 165.62,-24 165.62,-12 165.62,-12 165.62,-6 171.62,0 177.62,0 177.62,0 225.12,0 225.12,0 231.12,0 237.12,-6 237.12,-12 237.12,-12 237.12,-24 237.12,-24 237.12,-30 231.12,-36 225.12,-36"/>
<text text-anchor="middle" x="201.38" y="-15.2" font-family="Times,serif" font-size="14.00">リチウム</text>
</g>
<!-- Li&#45;&gt;GSK3B -->
<g id="edge5" class="edge">
<title>Li&#45;&gt;GSK3B</title>
<path fill="none" stroke="black" stroke-dasharray="5,2" d="M199.2,-36.31C197.43,-51.28 195.08,-73.53 194.12,-93 192.21,-132.11 193.28,-177.58 194.28,-205.02"/>
<polygon fill="black" stroke="black" points="199.43,-208.74 189.43,-209.12 189.36,-207.12 199.35,-206.74 199.43,-208.74"/>
<polyline fill="none" stroke="black" points="194.47,-209.93 194.28,-204.94"/>
<text text-anchor="middle" x="210.25" y="-120.4" font-family="Times,serif" font-size="14.00"> 抑制</text>
</g>
<!-- Li&#45;&gt;Apoptosis -->
<g id="edge8" class="edge">
<title>Li&#45;&gt;Apoptosis</title>
<path fill="none" stroke="black" stroke-dasharray="5,2" d="M219.54,-36.2C235.02,-50.85 257.68,-72.31 276.5,-90.12"/>
<polygon fill="black" stroke="black" points="282.43,-88.86 275.56,-96.12 274.11,-94.74 280.98,-87.48 282.43,-88.86"/>
<polyline fill="none" stroke="black" points="279.72,-93.18 276.09,-89.74"/>
<text text-anchor="middle" x="275.27" y="-61.7" font-family="Times,serif" font-size="14.00"> 抑制</text>
</g>
</g>
</svg>
