<?xml version="1.0" encoding="UTF-8" standalone="no"?>
<!DOCTYPE svg PUBLIC "-//W3C//DTD SVG 1.1//EN"
 "http://www.w3.org/Graphics/SVG/1.1/DTD/svg11.dtd">
<!-- Generated by graphviz version 12.2.1 (20241206.2353)
 -->
<!-- Title: GSK Pages: 1 -->
<svg width="870pt" height="554pt"
 viewBox="0.00 0.00 870.04 553.87" xmlns="http://www.w3.org/2000/svg" xmlns:xlink="http://www.w3.org/1999/xlink">
<g id="graph0" class="graph" transform="scale(1 1) rotate(0) translate(4 549.87)">
<title>GSK</title>
<polygon fill="white" stroke="none" points="-4,4 -4,-549.87 866.04,-549.87 866.04,4 -4,4"/>
<!-- GSK3B -->
<g id="node1" class="node">
<title>GSK3B</title>
<ellipse fill="lightcoral" stroke="black" cx="340.38" cy="-339.36" rx="68.59" ry="20.51"/>
<text text-anchor="middle" x="340.38" y="-336.56" font-family="Helvetica,sans-Serif" font-weight="bold" font-size="14.00">ＧＳＫー３β</text>
</g>
<!-- CREB -->
<g id="node2" class="node">
<title>CREB</title>
<ellipse fill="none" stroke="black" cx="250.38" cy="-231.8" rx="40.69" ry="18"/>
<text text-anchor="middle" x="250.38" y="-227.13" font-family="Times,serif" font-size="14.00">CREB</text>
</g>
<!-- GSK3B&#45;&gt;CREB -->
<g id="edge8" class="edge">
<title>GSK3B&#45;&gt;CREB</title>
<path fill="none" stroke="black" stroke-dasharray="5,2" d="M306.09,-321.36C297.14,-315.74 288.07,-308.85 281.12,-300.85 269.51,-287.49 261.54,-269.02 256.63,-254.69"/>
<polygon fill="black" stroke="black" points="250.64,-252.52 260.14,-249.39 260.77,-251.28 251.27,-254.42 250.64,-252.52"/>
<polyline fill="none" stroke="black" points="255.08,-250.01 256.65,-254.75"/>
<text text-anchor="middle" x="297.25" y="-287.55" font-family="Times,serif" font-size="14.00"> 抑制</text>
</g>
<!-- BCatenin -->
<g id="node5" class="node">
<title>BCatenin</title>
<ellipse fill="none" stroke="black" cx="642.38" cy="-339.36" rx="57.52" ry="18"/>
<text text-anchor="middle" x="642.38" y="-334.69" font-family="Times,serif" font-size="14.00">BCatenin</text>
</g>
<!-- GSK3B&#45;&gt;BCatenin -->
<g id="edge12" class="edge">
<title>GSK3B&#45;&gt;BCatenin</title>
<path fill="none" stroke="black" stroke-dasharray="5,2" d="M373.69,-357.71C416.88,-379.1 494.39,-409.29 559.62,-390.7 581.21,-384.55 602.66,-370.97 618.31,-359.32"/>
<polygon fill="black" stroke="black" points="618.35,-353.03 624.38,-361 622.79,-362.21 616.75,-354.23 618.35,-353.03"/>
<polyline fill="none" stroke="black" points="622.16,-356.41 618.17,-359.43"/>
<text text-anchor="middle" x="545.38" y="-385.57" font-family="Times,serif" font-size="14.00">抑制</text>
</g>
<!-- BDNF -->
<g id="node3" class="node">
<title>BDNF</title>
<ellipse fill="none" stroke="black" cx="250.38" cy="-82.38" rx="41.74" ry="18"/>
<text text-anchor="middle" x="250.38" y="-77.7" font-family="Times,serif" font-size="14.00">BDNF</text>
</g>
<!-- CREB&#45;&gt;BDNF -->
<g id="edge9" class="edge">
<title>CREB&#45;&gt;BDNF</title>
<path fill="none" stroke="black" d="M250.38,-213.31C250.38,-188.37 250.38,-142.3 250.38,-112.25"/>
<polygon fill="black" stroke="black" points="253.88,-112.36 250.38,-102.36 246.88,-112.36 253.88,-112.36"/>
</g>
<!-- AKT -->
<g id="node4" class="node">
<title>AKT</title>
<ellipse fill="none" stroke="black" cx="359.38" cy="-82.38" rx="31.74" ry="18"/>
<text text-anchor="middle" x="359.38" y="-77.7" font-family="Times,serif" font-size="14.00">AKT</text>
</g>
<!-- BDNF&#45;&gt;AKT -->
<g id="edge10" class="edge">
<title>BDNF&#45;&gt;AKT</title>
<path fill="none" stroke="black" d="M292.53,-82.38C300.31,-82.38 308.08,-82.38 315.86,-82.38"/>
<polygon fill="black" stroke="black" points="315.74,-85.88 325.74,-82.38 315.74,-78.88 315.74,-85.88"/>
</g>
<!-- AKT&#45;&gt;GSK3B -->
<g id="edge11" class="edge">
<title>AKT&#45;&gt;GSK3B</title>
<path fill="none" stroke="black" stroke-dasharray="5,2" d="M355.92,-100.53C351.48,-123.48 344.01,-165.47 341.12,-201.75 338.03,-240.7 338.61,-286.1 339.41,-313.51"/>
<polygon fill="black" stroke="black" points="344.53,-317.26 334.54,-317.57 334.48,-315.57 344.47,-315.26 344.53,-317.26"/>
<polyline fill="none" stroke="black" points="339.57,-318.41 339.41,-313.41"/>
<text text-anchor="middle" x="357.25" y="-229" font-family="Times,serif" font-size="14.00"> 抑制</text>
</g>
<!-- Bad -->
<g id="node8" class="node">
<title>Bad</title>
<ellipse fill="lightcoral" stroke="black" cx="457.38" cy="-339.36" rx="30.69" ry="18"/>
<text text-anchor="middle" x="457.38" y="-334.69" font-family="Times,serif" font-size="14.00">Bad</text>
</g>
<!-- AKT&#45;&gt;Bad -->
<g id="edge13" class="edge">
<title>AKT&#45;&gt;Bad</title>
<path fill="none" stroke="black" stroke-dasharray="5,2" d="M361.73,-100.78C366.61,-133.5 379.53,-205.93 404.88,-261.85 414.38,-282.82 429.63,-304.22 441.25,-319.03"/>
<polygon fill="black" stroke="black" points="447.42,-318.76 439.58,-324.97 438.34,-323.41 446.17,-317.19 447.42,-318.76"/>
<polyline fill="none" stroke="black" points="444.12,-322.65 441.01,-318.73"/>
<text text-anchor="middle" x="419.12" y="-229" font-family="Times,serif" font-size="14.00">抑制</text>
</g>
<!-- Wnt -->
<g id="node6" class="node">
<title>Wnt</title>
<ellipse fill="none" stroke="black" cx="783.38" cy="-231.8" rx="78.67" ry="30.05"/>
<text text-anchor="middle" x="783.38" y="-235.75" font-family="Times,serif" font-size="14.00">Wnt</text>
<text text-anchor="middle" x="783.38" y="-218.5" font-family="Times,serif" font-size="14.00">Target Genes</text>
</g>
<!-- BCatenin&#45;&gt;Wnt -->
<g id="edge1" class="edge">
<title>BCatenin&#45;&gt;Wnt</title>
<path fill="none" stroke="black" d="M663.79,-322.33C683.76,-307.38 714.15,-284.63 739.3,-265.8"/>
<polygon fill="black" stroke="black" points="741.18,-268.76 747.09,-259.97 736.98,-263.16 741.18,-268.76"/>
</g>
<!-- Neurogenesis -->
<g id="node7" class="node">
<title>Neurogenesis</title>
<polygon fill="none" stroke="black" points="839.25,-73.18 839.25,-91.57 806.52,-104.57 760.23,-104.57 727.5,-91.57 727.5,-73.18 760.23,-60.18 806.52,-60.18 839.25,-73.18"/>
<polygon fill="none" stroke="black" points="843.25,-70.47 843.25,-94.28 807.28,-108.57 759.47,-108.57 723.5,-94.28 723.5,-70.47 759.47,-56.18 807.28,-56.18 843.25,-70.47"/>
<polygon fill="none" stroke="black" points="847.25,-67.75 847.25,-97 808.05,-112.57 758.7,-112.57 719.5,-97 719.5,-67.75 758.7,-52.18 808.05,-52.18 847.25,-67.75"/>
<text text-anchor="middle" x="783.38" y="-79.58" font-family="Helvetica,sans-Serif" font-weight="bold" font-size="14.00">神経新生</text>
</g>
<!-- Wnt&#45;&gt;Neurogenesis -->
<g id="edge2" class="edge">
<title>Wnt&#45;&gt;Neurogenesis</title>
<path fill="none" stroke="black" d="M783.38,-201.32C783.38,-179.3 783.38,-148.91 783.38,-124.5"/>
<polygon fill="black" stroke="black" points="786.88,-124.57 783.38,-114.57 779.88,-124.57 786.88,-124.57"/>
</g>
<!-- Cytokine -->
<g id="node9" class="node">
<title>Cytokine</title>
<ellipse fill="lightcoral" stroke="black" cx="497.38" cy="-231.8" rx="55.42" ry="18"/>
<text text-anchor="middle" x="497.38" y="-227.13" font-family="Times,serif" font-size="14.00">Cytokine</text>
</g>
<!-- Bad&#45;&gt;Cytokine -->
<g id="edge14" class="edge">
<title>Bad&#45;&gt;Cytokine</title>
<path fill="none" stroke="black" d="M463.8,-321.4C470,-305.03 479.51,-279.96 486.82,-260.66"/>
<polygon fill="black" stroke="black" points="490.02,-262.08 490.3,-251.49 483.48,-259.6 490.02,-262.08"/>
</g>
<!-- Apoptosis -->
<g id="node14" class="node">
<title>Apoptosis</title>
<polygon fill="black" stroke="black" points="616.15,-73.18 616.15,-91.57 577.04,-104.57 521.71,-104.57 482.6,-91.57 482.6,-73.18 521.71,-60.18 577.04,-60.18 616.15,-73.18"/>
<polygon fill="none" stroke="black" points="620.15,-70.3 620.15,-94.45 577.68,-108.57 521.07,-108.57 478.6,-94.45 478.6,-70.3 521.07,-56.18 577.68,-56.18 620.15,-70.3"/>
<polygon fill="none" stroke="black" points="624.15,-67.41 624.15,-97.34 578.33,-112.57 520.42,-112.57 474.6,-97.34 474.6,-67.41 520.42,-52.18 578.33,-52.18 624.15,-67.41"/>
<text text-anchor="middle" x="549.38" y="-79.58" font-family="Helvetica,sans-Serif" font-weight="bold" font-size="14.00" fill="white">神経細胞死</text>
</g>
<!-- Cytokine&#45;&gt;Apoptosis -->
<g id="edge15" class="edge">
<title>Cytokine&#45;&gt;Apoptosis</title>
<path fill="none" stroke="black" d="M503.44,-213.6C511.16,-191.71 524.74,-153.21 535.14,-123.73"/>
<polygon fill="black" stroke="black" points="538.42,-124.94 538.45,-114.35 531.82,-122.62 538.42,-124.94"/>
</g>
<!-- Li -->
<g id="node10" class="node">
<title>Li</title>
<path fill="lightblue" stroke="black" d="M433.12,-545.87C433.12,-545.87 385.62,-545.87 385.62,-545.87 379.62,-545.87 373.62,-539.87 373.62,-533.87 373.62,-533.87 373.62,-521.87 373.62,-521.87 373.62,-515.87 379.62,-509.87 385.62,-509.87 385.62,-509.87 433.12,-509.87 433.12,-509.87 439.12,-509.87 445.12,-515.87 445.12,-521.87 445.12,-521.87 445.12,-533.87 445.12,-533.87 445.12,-539.87 439.12,-545.87 433.12,-545.87"/>
<text text-anchor="middle" x="409.38" y="-525.07" font-family="Times,serif" font-size="14.00">リチウム</text>
</g>
<!-- Li&#45;&gt;GSK3B -->
<g id="edge16" class="edge">
<title>Li&#45;&gt;GSK3B</title>
<path fill="none" stroke="black" stroke-dasharray="5,2" d="M403.01,-509.65C390.66,-476.29 363.46,-402.75 349.31,-364.52"/>
<polygon fill="black" stroke="black" points="343.31,-362.71 352.69,-359.24 353.38,-361.11 344,-364.58 343.31,-362.71"/>
<polyline fill="none" stroke="black" points="347.65,-360.03 349.39,-364.72"/>
<text text-anchor="middle" x="395.98" y="-432.07" font-family="Times,serif" font-size="14.00">抑制</text>
</g>
<!-- p53 -->
<g id="node11" class="node">
<title>p53</title>
<ellipse fill="lightcoral" stroke="black" cx="496.38" cy="-434.87" rx="30.16" ry="18"/>
<text text-anchor="middle" x="496.38" y="-430.19" font-family="Times,serif" font-size="14.00">p53</text>
</g>
<!-- Li&#45;&gt;p53 -->
<g id="edge3" class="edge">
<title>Li&#45;&gt;p53</title>
<path fill="none" stroke="black" stroke-dasharray="5,2" d="M425.74,-509.75C440.75,-494.05 462.94,-470.84 478.43,-454.64"/>
<polygon fill="black" stroke="black" points="477.51,-448.36 484.74,-455.27 483.36,-456.71 476.13,-449.8 477.51,-448.36"/>
<polyline fill="none" stroke="black" points="481.82,-451.09 478.36,-454.71"/>
<text text-anchor="middle" x="476.79" y="-478.57" font-family="Times,serif" font-size="14.00"> 抑制</text>
</g>
<!-- Bax -->
<g id="node12" class="node">
<title>Bax</title>
<ellipse fill="lightcoral" stroke="black" cx="536.38" cy="-339.36" rx="30.16" ry="18"/>
<text text-anchor="middle" x="536.38" y="-334.69" font-family="Times,serif" font-size="14.00">Bax</text>
</g>
<!-- p53&#45;&gt;Bax -->
<g id="edge4" class="edge">
<title>p53&#45;&gt;Bax</title>
<path fill="none" stroke="black" d="M503.53,-417.15C509.41,-403.41 517.85,-383.66 524.71,-367.63"/>
<polygon fill="black" stroke="black" points="527.84,-369.21 528.56,-358.64 521.4,-366.46 527.84,-369.21"/>
</g>
<!-- Caspases -->
<g id="node13" class="node">
<title>Caspases</title>
<ellipse fill="lightcoral" stroke="black" cx="628.38" cy="-231.8" rx="58.05" ry="18"/>
<text text-anchor="middle" x="628.38" y="-227.13" font-family="Times,serif" font-size="14.00">Caspases</text>
</g>
<!-- Bax&#45;&gt;Caspases -->
<g id="edge5" class="edge">
<title>Bax&#45;&gt;Caspases</title>
<path fill="none" stroke="black" d="M549.95,-322.78C564.77,-305.78 588.74,-278.28 606.28,-258.15"/>
<polygon fill="black" stroke="black" points="608.91,-260.47 612.84,-250.63 603.63,-255.87 608.91,-260.47"/>
</g>
<!-- Caspases&#45;&gt;Apoptosis -->
<g id="edge6" class="edge">
<title>Caspases&#45;&gt;Apoptosis</title>
<path fill="none" stroke="black" d="M619.16,-213.6C607.33,-191.52 586.43,-152.53 570.58,-122.95"/>
<polygon fill="black" stroke="black" points="573.73,-121.42 565.92,-114.26 567.56,-124.72 573.73,-121.42"/>
</g>
<!-- SSRI -->
<g id="node15" class="node">
<title>SSRI</title>
<path fill="lightblue" stroke="black" d="M160.75,-164.75C160.75,-164.75 12,-164.75 12,-164.75 6,-164.75 0,-158.75 0,-152.75 0,-152.75 0,-12 0,-12 0,-6 6,0 12,0 12,0 160.75,0 160.75,0 166.75,0 172.75,-6 172.75,-12 172.75,-12 172.75,-152.75 172.75,-152.75 172.75,-158.75 166.75,-164.75 160.75,-164.75"/>
<text text-anchor="middle" x="86.38" y="-147.45" font-family="Times,serif" font-size="14.00">SSRI</text>
<text text-anchor="middle" x="86.38" y="-130.2" font-family="Times,serif" font-size="14.00">SNRI</text>
<text text-anchor="middle" x="86.38" y="-112.95" font-family="Times,serif" font-size="14.00">第2世代抗精神病薬</text>
<text text-anchor="middle" x="86.38" y="-91.95" font-family="Times,serif" font-size="14.00">電気けいれん療法</text>
<text text-anchor="middle" x="86.38" y="-70.95" font-family="Times,serif" font-size="14.00">反復経頭蓋磁気刺激療法</text>
<text text-anchor="middle" x="86.38" y="-49.95" font-family="Times,serif" font-size="14.00">運動療法</text>
<text text-anchor="middle" x="86.38" y="-28.95" font-family="Times,serif" font-size="14.00">温熱療法</text>
<text text-anchor="middle" x="86.38" y="-7.95" font-family="Times,serif" font-size="14.00">etc...</text>
</g>
<!-- SSRI&#45;&gt;BDNF -->
<g id="edge7" class="edge">
<title>SSRI&#45;&gt;BDNF</title>
<path fill="none" stroke="black" d="M173.18,-82.38C181.01,-82.38 188.85,-82.38 196.68,-82.38"/>
<polygon fill="black" stroke="black" points="196.65,-85.88 206.65,-82.38 196.65,-78.88 196.65,-85.88"/>
</g>
</g>
</svg>
